<svg width="16" height="16" viewBox="0 0 16 16" fill="none" xmlns="http://www.w3.org/2000/svg">
<rect x="1.17677" y="2.77565" width="13.6465" height="8.74204" rx="0.426772" stroke="black" stroke-width="0.853545"/>
<rect x="6.59021" y="11.9158" width="0.868012" height="1.30202" fill="black"/>
<rect x="8.54218" y="11.9158" width="0.868012" height="1.30202" fill="black"/>
<path fill-rule="evenodd" clip-rule="evenodd" d="M8.76602 4.94812V9.50196H9.52863H9.61957H10.5219C11.4647 9.50196 12.229 8.73767 12.229 7.79487V6.65521C12.229 5.71241 11.4647 4.94812 10.5219 4.94812H9.61957H9.52863H8.76602ZM9.61957 5.80166V8.64841H10.5219C10.9933 8.64841 11.3755 8.26627 11.3755 7.79487V6.65521C11.3755 6.18381 10.9933 5.80166 10.5219 5.80166H9.61957Z" fill="black"/>
<path fill-rule="evenodd" clip-rule="evenodd" d="M6.28785 4.90845H5.40007L3.71292 9.12634L3.60901 9.38611H4.5283L4.91862 8.41033H6.76931L7.15962 9.38611H8.07892L7.97501 9.12634L6.28785 4.90845ZM6.42789 7.55679L5.84396 6.09697L5.26003 7.55679H6.42789Z" fill="black"/>
<rect x="3.73575" y="12.798" width="8.52941" height="0.852941" rx="0.426471" fill="black"/>
</svg>
