<svg width="16" height="16" viewBox="0 0 16 16" fill="none" xmlns="http://www.w3.org/2000/svg">
<path d="M8.00002 14.2759C7.07658 14.2774 6.15939 14.1113 5.29689 13.7838C4.47813 13.4747 3.72344 13.0195 3.07344 12.4397C2.42657 11.8599 1.91719 11.1864 1.56094 10.4344C1.19219 9.66238 1 8.82119 1 7.9677V2.21623C1 1.94403 1.22344 1.72412 1.5 1.72412C1.77656 1.72412 2 1.94403 2 2.21623V7.9677C2 8.67664 2.15938 9.37635 2.46563 10.0176C2.76563 10.6497 3.19688 11.2202 3.74532 11.7108C4.3047 12.209 4.95157 12.5996 5.65626 12.8657C7.16564 13.4331 8.83439 13.4331 10.3438 12.8657C11.0485 12.6012 11.6953 12.209 12.2547 11.7108C12.8032 11.2202 13.2344 10.6497 13.5344 10.0176C13.8407 9.37635 14 8.67664 14 7.9677V3.41573C14 3.14354 14.2235 2.92363 14.5 2.92363C14.7766 2.92363 15 3.14354 15 3.41573V7.9677C15 8.81965 14.8094 9.66238 14.4407 10.4344C14.0844 11.1848 13.575 11.8599 12.9282 12.4397C12.2782 13.0195 11.525 13.4747 10.7047 13.7838C9.84221 14.1113 8.92502 14.2774 8.00002 14.2759Z" fill="black"/>
<path d="M10.1796 13.871C9.9048 13.871 9.68276 13.6487 9.68276 13.3735C9.68276 10.9221 9.24955 8.83751 8.39712 7.17886C7.72324 5.86997 6.7854 4.81913 5.60845 4.05432C4.55416 3.36878 3.49521 3.04234 2.79338 2.89C2.02479 2.72211 1.50153 2.719 1.49687 2.719C1.22204 2.719 1 2.49671 1 2.22156C1 1.94641 1.22204 1.72412 1.49687 1.72412C1.5419 1.72412 2.38968 1.72878 3.55576 2.05523C4.2343 2.24488 4.89109 2.50914 5.51218 2.84181C6.27456 3.25219 6.97328 3.7714 7.5866 4.38232C8.52754 5.32279 9.26508 6.48866 9.77903 7.84729C10.3753 9.42356 10.6765 11.2827 10.6765 13.3735C10.6765 13.6487 10.4545 13.871 10.1796 13.871Z" fill="black"/>
<path d="M9.1802 7.01156C8.90338 7.01156 8.67974 6.79419 8.67974 6.52514C8.67974 6.43089 8.70789 6.33816 8.76263 6.2576C9.21773 5.5842 9.80108 4.98985 10.497 4.49278C11.0491 4.09755 11.6716 3.76313 12.3487 3.4956C13.4998 3.04261 14.4116 2.94532 14.4491 2.94076C14.7244 2.91492 14.9684 3.11101 14.9949 3.37855C15.0215 3.64153 14.826 3.87714 14.5555 3.90906C14.5477 3.91058 13.7203 4.00179 12.6944 4.40917C12.1001 4.64478 11.5543 4.9412 11.0741 5.28626C10.4814 5.71341 9.98407 6.2196 9.59777 6.79115C9.5055 6.92948 9.3491 7.01156 9.1802 7.01156ZM6.36666 10.903C6.28065 11.1584 5.99757 11.2982 5.73483 11.2146C3.7236 10.5762 3.10428 8.48757 3.07769 8.39941C2.99793 8.14251 3.1465 7.87042 3.41081 7.79289C3.67512 7.71537 3.95506 7.85977 4.03482 8.11667C4.03639 8.12427 4.03952 8.13035 4.04108 8.13795V8.13947C4.05203 8.17595 4.1834 8.5955 4.49462 9.06217C4.90594 9.68236 5.4283 10.0958 6.04449 10.2919C6.3088 10.3725 6.45112 10.6476 6.36666 10.903Z" fill="black"/>
</svg>
