<svg width="16" height="16" viewBox="0 0 16 16" fill="none" xmlns="http://www.w3.org/2000/svg">
<path d="M2 3C2 2.44772 2.44772 2 3 2H6.5C7.05228 2 7.5 2.44772 7.5 3V6.5C7.5 7.05228 7.05228 7.5 6.5 7.5H3C2.44772 7.5 2 7.05228 2 6.5V3Z" fill="#9B2122"/>
<path d="M2 9.5C2 8.94772 2.44772 8.5 3 8.5H6.5C7.05228 8.5 7.5 8.94772 7.5 9.5V13C7.5 13.5523 7.05228 14 6.5 14H3C2.44772 14 2 13.5523 2 13V9.5Z" fill="#E23C39"/>
<path d="M8.5 9.5C8.5 8.94772 8.94772 8.5 9.5 8.5H13C13.5523 8.5 14 8.94772 14 9.5V13C14 13.5523 13.5523 14 13 14H9.5C8.94772 14 8.5 13.5523 8.5 13V9.5Z" fill="#2A6442"/>
<path d="M8.5 3C8.5 2.44772 8.94772 2 9.5 2H13C13.5523 2 14 2.44772 14 3V6.5C14 7.05228 13.5523 7.5 13 7.5H9.5C8.94772 7.5 8.5 7.05228 8.5 6.5V3Z" fill="#018C52"/>
</svg>
