<svg width="16" height="16" viewBox="0 0 16 16" fill="none" xmlns="http://www.w3.org/2000/svg">
<path fill-rule="evenodd" clip-rule="evenodd" d="M3 2.5C2.90795 2.5 2.83334 2.57461 2.83334 2.66667V13.3333C2.83334 13.4254 2.90795 13.5 3 13.5H13C13.0921 13.5 13.1667 13.4254 13.1667 13.3333V2.66667C13.1667 2.57461 13.0921 2.5 13 2.5H3ZM1.83334 2.66667C1.83334 2.02234 2.35566 1.5 3 1.5H13C13.6444 1.5 14.1667 2.02234 14.1667 2.66667V13.3333C14.1667 13.9777 13.6443 14.5 13 14.5H3C2.35566 14.5 1.83334 13.9777 1.83334 13.3333V2.66667Z" fill="#999999"/>
<path fill-rule="evenodd" clip-rule="evenodd" d="M4.16667 4.16667H11.8333V5.16667H4.16667V4.16667Z" fill="#999999"/>
<path d="M5.46667 8.33333C5.83486 8.33333 6.13334 8.03486 6.13334 7.66667C6.13334 7.29848 5.83486 7 5.46667 7C5.09848 7 4.8 7.29848 4.8 7.66667C4.8 8.03486 5.09848 8.33333 5.46667 8.33333Z" fill="#999999"/>
<path d="M5.46667 10.3333C5.83486 10.3333 6.13334 10.0349 6.13334 9.66667C6.13334 9.29848 5.83486 9 5.46667 9C5.09848 9 4.8 9.29848 4.8 9.66667C4.8 10.0349 5.09848 10.3333 5.46667 10.3333Z" fill="#999999"/>
<path d="M5.46667 12.3333C5.83486 12.3333 6.13334 12.0349 6.13334 11.6667C6.13334 11.2985 5.83486 11 5.46667 11C5.09848 11 4.8 11.2985 4.8 11.6667C4.8 12.0349 5.09848 12.3333 5.46667 12.3333Z" fill="#999999"/>
<path d="M8.05001 8.33333C8.4182 8.33333 8.71668 8.03486 8.71668 7.66667C8.71668 7.29848 8.4182 7 8.05001 7C7.68182 7 7.38335 7.29848 7.38335 7.66667C7.38335 8.03486 7.68182 8.33333 8.05001 8.33333Z" fill="#999999"/>
<path d="M8.05001 10.3333C8.4182 10.3333 8.71668 10.0349 8.71668 9.66667C8.71668 9.29848 8.4182 9 8.05001 9C7.68182 9 7.38335 9.29848 7.38335 9.66667C7.38335 10.0349 7.68182 10.3333 8.05001 10.3333Z" fill="#999999"/>
<path d="M8.05001 12.3333C8.4182 12.3333 8.71668 12.0349 8.71668 11.6667C8.71668 11.2985 8.4182 11 8.05001 11C7.68182 11 7.38335 11.2985 7.38335 11.6667C7.38335 12.0349 7.68182 12.3333 8.05001 12.3333Z" fill="#999999"/>
<path d="M10.6334 8.33333C11.0015 8.33333 11.3 8.03486 11.3 7.66667C11.3 7.29848 11.0015 7 10.6334 7C10.2652 7 9.96669 7.29848 9.96669 7.66667C9.96669 8.03486 10.2652 8.33333 10.6334 8.33333Z" fill="#999999"/>
<path d="M10.6334 10.3333C11.0015 10.3333 11.3 10.0349 11.3 9.66667C11.3 9.29848 11.0015 9 10.6334 9C10.2652 9 9.96669 9.29848 9.96669 9.66667C9.96669 10.0349 10.2652 10.3333 10.6334 10.3333Z" fill="#999999"/>
<path d="M10.6334 12.3333C11.0015 12.3333 11.3 12.0349 11.3 11.6667C11.3 11.2985 11.0015 11 10.6334 11C10.2652 11 9.96669 11.2985 9.96669 11.6667C9.96669 12.0349 10.2652 12.3333 10.6334 12.3333Z" fill="#999999"/>
</svg>
