<svg width="16" height="16" viewBox="0 0 16 16" fill="none" xmlns="http://www.w3.org/2000/svg">
<path fill-rule="evenodd" clip-rule="evenodd" d="M2.83333 2.66667C2.83333 2.57461 2.90795 2.5 3 2.5H13C13.0921 2.5 13.1667 2.57461 13.1667 2.66667V13.3333C13.1667 13.4254 13.0921 13.5 13 13.5H3C2.90794 13.5 2.83333 13.4254 2.83333 13.3333V2.66667ZM3 1.5C2.35565 1.5 1.83333 2.02234 1.83333 2.66667V13.3333C1.83333 13.9777 2.35566 14.5 3 14.5H13C13.6443 14.5 14.1667 13.9777 14.1667 13.3333V2.66667C14.1667 2.02234 13.6443 1.5 13 1.5H3ZM4.5 5.33333C4.22386 5.33333 4 5.55719 4 5.83333V9.16667C4 9.44281 4.22386 9.66667 4.5 9.66667H7.33333V11.5V12H8.33333V11.5V9.66667H11.1667C11.4428 9.66667 11.6667 9.44281 11.6667 9.16667V5.83333C11.6667 5.55719 11.4428 5.33333 11.1667 5.33333H8.33333V4.5V4H7.33333V4.5V5.33333H4.5ZM10.6667 8.66667H8.33333V6.33333H10.6667V8.66667ZM7.33333 8.66667V6.33333H5V8.66667H7.33333Z" fill="#999999"/>
</svg>
