<svg width="16" height="16" viewBox="0 0 16 16" fill="none" xmlns="http://www.w3.org/2000/svg">
<path fill-rule="evenodd" clip-rule="evenodd" d="M14.0021 13.6665H14.4113C14.6574 13.6665 14.8256 13.8297 14.8281 14.0832C14.8281 14.3318 14.6649 14.5 14.4113 14.5H2.01673C1.76818 14.5 1.59998 14.3368 1.59998 14.0832C1.59998 13.8749 1.76316 13.6665 2.01673 13.6665H2.43348V4.07869C2.43348 3.70713 2.67951 3.37574 3.01091 3.25272L8.8379 1.51793C9.29232 1.43508 9.66137 1.64346 9.82957 2.0577L9.86974 2.14306V5.94906L13.5854 8.37927C13.8791 8.50229 14.0021 8.83368 14.0021 9.07972V13.6665ZM13.1711 13.6665V9.03453L9.86974 6.89553V13.6665H13.1711ZM9.03122 2.3439L3.24941 4.07869V13.6665H9.03122V2.3439ZM4.81678 6H7.29218C7.53822 6 7.70894 6.16068 7.70894 6.41675C7.70894 6.67032 7.54575 6.83351 7.29218 6.83351H4.81678C4.56823 6.83351 4.40002 6.67032 4.40002 6.41675C4.40002 6.16319 4.56321 6 4.81678 6ZM4.81678 8.4729H7.29218C7.53822 8.4729 7.70894 8.63609 7.70894 8.88965V8.89216V8.89467C7.70894 9.14322 7.54575 9.31143 7.29218 9.31143H4.81678C4.56823 9.31143 4.40002 9.14824 4.40002 8.89467V8.88965C4.40002 8.64111 4.56321 8.4729 4.81678 8.4729Z" fill="#999999"/>
</svg>
