<svg width="16" height="16" viewBox="0 0 16 16" fill="none" xmlns="http://www.w3.org/2000/svg">
<path d="M10.2917 7.30209L7.1462 10.4159" stroke="black" stroke-width="0.893188" stroke-linecap="round"/>
<path d="M8.5053 5.51571L5.35983 8.62955" stroke="black" stroke-width="0.893188" stroke-linecap="round"/>
<path fill-rule="evenodd" clip-rule="evenodd" d="M10.9462 1.68408C10.9462 1.68406 10.9462 1.68403 10.9462 1.68401L10.1043 0.842044C9.63917 0.376962 8.88512 0.376962 8.42004 0.842043L0.841094 8.42099C0.376012 8.88607 0.376011 9.64012 0.841093 10.1052L1.36741 10.6315L1.6832 10.9473C1.85761 11.1217 2.13854 11.116 2.3481 10.986C3.09455 10.5227 4.08781 10.6151 4.73583 11.2631C5.38385 11.9111 5.47623 12.9044 5.01296 13.6508C4.8829 13.8604 4.87721 14.1413 5.05162 14.3157L5.36741 14.6315L5.89372 15.1578C6.35881 15.6229 7.11285 15.6229 7.57793 15.1578L15.1569 7.57889C15.622 7.1138 15.622 6.35976 15.1569 5.89468L14.3147 5.0525C14.3147 5.05248 14.3147 5.05248 14.3146 5.0525C14.3146 5.05252 14.3146 5.05252 14.3146 5.0525L14.1567 4.89464C14.0695 4.80744 13.9288 4.8087 13.8322 4.8854C13.0725 5.48874 11.9644 5.43919 11.262 4.73675C10.5595 4.0343 10.51 2.92619 11.1133 2.16651C11.19 2.06994 11.1913 1.92921 11.1041 1.84201L10.9462 1.68415C10.9462 1.68413 10.9462 1.6841 10.9462 1.68408ZM9.9383 2.49883C10.0169 2.25471 9.97826 1.97921 9.79691 1.79786L9.47267 1.47362C9.3564 1.35735 9.16789 1.35735 9.05162 1.47362L1.47267 9.05257C1.3564 9.16884 1.3564 9.35735 1.47267 9.47362L1.79706 9.79801C1.9784 9.97935 2.25389 10.018 2.498 9.9394C3.4758 9.6245 4.5911 9.85521 5.36741 10.6315C6.14372 11.4078 6.37443 12.5231 6.05953 13.5009C5.98091 13.745 6.01958 14.0205 6.20092 14.2019L6.5253 14.5263C6.64158 14.6425 6.83009 14.6425 6.94636 14.5263L14.5253 6.94731C14.6416 6.83104 14.6416 6.64252 14.5253 6.52626L14.2008 6.2018C14.0195 6.02045 13.744 5.98179 13.4999 6.06042C12.5221 6.37535 11.4067 6.14466 10.6304 5.36832C9.85406 4.59199 9.62336 3.47665 9.9383 2.49883Z" fill="black"/>
</svg>
