<svg width="16" height="16" viewBox="0 0 16 16" fill="none" xmlns="http://www.w3.org/2000/svg">
<path d="M7.80231 4.87239C7.80231 5.00192 7.85005 5.12615 7.93502 5.21775C8.01999 5.30934 8.13524 5.3608 8.25542 5.3608C8.37559 5.3608 8.49084 5.30934 8.57581 5.21775C8.66079 5.12615 8.70852 5.00192 8.70852 4.87239C8.70852 4.74285 8.66079 4.61862 8.57581 4.52703C8.49084 4.43543 8.37559 4.38397 8.25542 4.38397C8.13524 4.38397 8.01999 4.43543 7.93502 4.52703C7.85005 4.61862 7.80231 4.74285 7.80231 4.87239Z" fill="black"/>
<path d="M9.20697 4.87239C9.20697 5.00192 9.25471 5.12615 9.33968 5.21775C9.42466 5.30934 9.53991 5.3608 9.66008 5.3608C9.78025 5.3608 9.8955 5.30934 9.98047 5.21775C10.0654 5.12615 10.1132 5.00192 10.1132 4.87239C10.1132 4.74285 10.0654 4.61862 9.98047 4.52703C9.8955 4.43543 9.78025 4.38397 9.66008 4.38397C9.53991 4.38397 9.42466 4.43543 9.33968 4.52703C9.25471 4.61862 9.20697 4.74285 9.20697 4.87239Z" fill="black"/>
<path d="M14.9202 4.44759C14.8538 4.44759 14.822 4.44759 14.7888 4.48341L11.9539 6.01051V4.44759C11.9531 4.07091 11.8139 3.7099 11.5668 3.44354C11.3197 3.17718 10.9848 3.02717 10.6353 3.02631H2.06855C1.71909 3.02717 1.38418 3.17718 1.13707 3.44354C0.889972 3.7099 0.750798 4.07091 0.75 4.44759V11.5524C0.750798 11.9291 0.889972 12.2901 1.13707 12.5564C1.38418 12.8228 1.71909 12.9728 2.06855 12.9737H10.6353C10.9848 12.9728 11.3197 12.8228 11.5668 12.5564C11.8139 12.2901 11.9531 11.9291 11.9539 11.5524V9.98945L14.7888 11.5166C14.822 11.5524 14.8553 11.5524 14.9202 11.5524C14.9641 11.5552 15.0081 11.548 15.0493 11.5312C15.0904 11.5143 15.1278 11.4883 15.1589 11.4548C15.19 11.4212 15.2142 11.3809 15.2298 11.3366C15.2454 11.2922 15.2521 11.2448 15.2495 11.1975V4.8025C15.2521 4.75515 15.2454 4.70774 15.2298 4.66338C15.2142 4.61903 15.19 4.57876 15.1589 4.54521C15.1278 4.51167 15.0904 4.48563 15.0493 4.4688C15.0081 4.45197 14.9641 4.44474 14.9202 4.44759ZM11.0205 11.3521C11.0193 11.4391 11.0022 11.5249 10.9702 11.6047C10.9382 11.6845 10.8919 11.7568 10.8339 11.8173C10.776 11.8778 10.7075 11.9253 10.6325 11.9573C10.5575 11.9892 10.4773 12.0049 10.3967 12.0033H2.29963C2.21898 12.0049 2.13884 11.9892 2.0638 11.9573C1.98877 11.9253 1.92032 11.8778 1.86238 11.8173C1.80443 11.7568 1.75813 11.6845 1.72612 11.6047C1.69411 11.5249 1.67703 11.4391 1.67585 11.3521V6.8457H11.0205V11.3521ZM11.0416 5.86887H1.65622V4.62505C1.66328 4.45315 1.73317 4.29126 1.85061 4.17473C1.96806 4.0582 2.12351 3.99651 2.28302 4.00313H10.4163C10.5758 3.99651 10.7313 4.0582 10.8487 4.17473C10.9662 4.29126 11.0361 4.45315 11.0431 4.62505L11.0416 5.86887ZM12.771 9.35289L11.9478 8.85145V7.14852L12.771 6.64708V9.35289ZM14.3433 10.1311L13.6847 9.84293V6.15704L14.3433 5.81189V10.1311Z" fill="black"/>
<path d="M8.16607 8.62472C8.3005 8.62472 8.4319 8.66768 8.54367 8.74818C8.65544 8.82869 8.74256 8.9431 8.794 9.07697C8.84544 9.21084 8.8589 9.35815 8.83268 9.50026C8.80645 9.64238 8.74172 9.77292 8.64667 9.87538C8.55161 9.97783 8.43051 10.0476 8.29867 10.0759C8.16683 10.1041 8.03017 10.0896 7.90598 10.0342C7.78178 9.97874 7.67564 9.88484 7.60095 9.76436C7.52627 9.64388 7.48641 9.50223 7.48641 9.35733C7.48681 9.16316 7.55854 8.97707 7.68592 8.83977C7.81329 8.70247 7.98594 8.62515 8.16607 8.62472ZM8.16607 7.64789C7.85242 7.64789 7.5458 7.74815 7.285 7.93598C7.02421 8.12382 6.82094 8.3908 6.70091 8.70316C6.58088 9.01552 6.54947 9.35923 6.61066 9.69083C6.67186 10.0224 6.8229 10.327 7.04469 10.5661C7.26648 10.8052 7.54905 10.968 7.85668 11.0339C8.16431 11.0999 8.48318 11.066 8.77296 10.9367C9.06274 10.8073 9.31042 10.5882 9.48468 10.3071C9.65894 10.0259 9.75195 9.69543 9.75195 9.35733C9.75195 8.90396 9.58487 8.46916 9.28746 8.14857C8.99005 7.82799 8.58667 7.64789 8.16607 7.64789ZM4.5412 8.62472C4.67563 8.62472 4.80703 8.66768 4.9188 8.74818C5.03057 8.82869 5.11769 8.9431 5.16913 9.07697C5.22057 9.21084 5.23403 9.35815 5.20781 9.50026C5.18158 9.64238 5.11685 9.77292 5.0218 9.87538C4.92674 9.97783 4.80564 10.0476 4.6738 10.0759C4.54196 10.1041 4.4053 10.0896 4.28111 10.0342C4.15692 9.97874 4.05077 9.88484 3.97608 9.76436C3.9014 9.64388 3.86154 9.50223 3.86154 9.35733C3.86194 9.16316 3.93367 8.97707 4.06105 8.83977C4.18842 8.70247 4.36107 8.62515 4.5412 8.62472ZM4.5412 7.64789C4.22755 7.64789 3.92093 7.74815 3.66014 7.93598C3.39934 8.12382 3.19607 8.3908 3.07604 8.70316C2.95601 9.01552 2.9246 9.35923 2.9858 9.69083C3.04699 10.0224 3.19803 10.327 3.41982 10.5661C3.64161 10.8052 3.92418 10.968 4.23181 11.0339C4.53944 11.0999 4.85831 11.066 5.14809 10.9367C5.43788 10.8073 5.68556 10.5882 5.85981 10.3071C6.03407 10.0259 6.12708 9.69543 6.12708 9.35733C6.12708 8.90396 5.96 8.46916 5.66259 8.14857C5.36518 7.82799 4.9618 7.64789 4.5412 7.64789Z" fill="black"/>
<path d="M8.16344 10.0893H4.53857V11.0661H8.16344V10.0893Z" fill="black"/>
</svg>
