<svg width="16" height="16" viewBox="0 0 16 16" fill="none" xmlns="http://www.w3.org/2000/svg">
<path d="M13.9429 10.655C14.0666 10.5951 14.209 10.5867 14.3389 10.6318C14.4687 10.6769 14.5753 10.7717 14.6352 10.8954C14.6951 11.0191 14.7034 11.1615 14.6583 11.2914C14.6132 11.4212 14.5184 11.5278 14.3948 11.5877L8.22758 14.5814C8.15753 14.6154 8.08073 14.6332 8.00286 14.6334C7.925 14.6337 7.84808 14.6163 7.77783 14.5828L1.51048 11.5891C1.38643 11.5299 1.29098 11.4239 1.24512 11.2943C1.22241 11.2301 1.21256 11.1621 1.21613 11.0942C1.2197 11.0262 1.23661 10.9596 1.26592 10.8982C1.29522 10.8368 1.33634 10.7817 1.38691 10.7362C1.43749 10.6906 1.49654 10.6555 1.56069 10.6328C1.69025 10.5869 1.83272 10.5944 1.95676 10.6536L7.99821 13.5402L13.9429 10.655ZM13.9429 7.89137C14.0666 7.83145 14.209 7.82312 14.3389 7.86821C14.4687 7.9133 14.5753 8.00812 14.6352 8.13181C14.6951 8.25549 14.7034 8.39792 14.6583 8.52775C14.6132 8.65757 14.5184 8.76417 14.3948 8.82409L8.22758 11.8178C8.15753 11.8518 8.08073 11.8696 8.00286 11.8698C7.925 11.87 7.84808 11.8527 7.77783 11.8192L1.51048 8.82547C1.38643 8.76629 1.29098 8.66025 1.24512 8.53068C1.19925 8.40111 1.20674 8.25862 1.26592 8.13457C1.3251 8.01052 1.43113 7.91506 1.56069 7.86919C1.69025 7.82332 1.83272 7.8308 1.95676 7.88999L7.99821 10.7766L13.9429 7.89137ZM8.38647 1.457L14.5226 4.52529C14.9226 4.72566 15.0994 5.1934 14.944 5.6031L14.9094 5.68394L14.8528 5.78066C14.7696 5.90426 14.6558 6.00422 14.5226 6.07084L8.38647 9.13845C8.26656 9.19841 8.13435 9.22962 8.00029 9.22962C7.86623 9.22962 7.73401 9.19841 7.6141 9.13845L1.47801 6.07084C1.3344 5.99918 1.2136 5.88891 1.12916 5.75241C1.04473 5.61591 1 5.45858 1 5.29807C1 5.13756 1.04473 4.98023 1.12916 4.84373C1.2136 4.70723 1.3344 4.59696 1.47801 4.52529L7.6141 1.45769C7.73401 1.39773 7.86623 1.36652 8.00029 1.36652C8.13435 1.36652 8.26656 1.39773 8.38647 1.45769V1.457ZM8.00029 2.42288L2.25037 5.29703L8.00029 8.17257L13.7502 5.29703L8.00029 2.42219V2.42288Z" fill="black"/>
</svg>
