<svg width="16" height="16" viewBox="0 0 16 16" fill="none" xmlns="http://www.w3.org/2000/svg">
<path fill-rule="evenodd" clip-rule="evenodd" d="M9.20446 2.58904C9.40272 2.3908 9.66924 2.2758 9.94949 2.26756C10.2297 2.25933 10.5026 2.35849 10.7121 2.54476L10.7592 2.58873L14.4278 6.25766C14.6261 6.45588 14.7412 6.72237 14.7495 7.00263C14.7578 7.28288 14.6587 7.55571 14.4724 7.76531L14.4281 7.81242L8.82912 13.4108C8.6309 13.6091 8.3644 13.7242 8.08415 13.7325C7.80389 13.7408 7.53106 13.6417 7.32147 13.4554L7.27435 13.4108L1.57199 7.70783C1.37374 7.50957 1.25874 7.24305 1.2505 6.9628C1.24227 6.68254 1.34143 6.40974 1.5277 6.20018L1.57199 6.15306L4.99089 2.73416C5.18623 2.53888 5.44791 2.42428 5.72389 2.41316C5.99987 2.40205 6.26992 2.49523 6.48032 2.67416L6.52744 2.71688L7.83093 3.96226L9.20477 2.58904H9.20446ZM10.5372 2.81111C10.3968 2.67068 10.2084 2.58865 10.01 2.58154C9.81151 2.57443 9.61775 2.64277 9.46767 2.77279L9.42684 2.81111L6.23483 6.00251C7.1578 6.87163 8.16158 6.53272 9.32064 4.9138L9.38409 4.82397L9.64164 5.00394C9.55638 5.12588 9.47133 5.24164 9.38652 5.35118L12.916 8.88071L14.2061 7.59067C14.3465 7.45028 14.4285 7.2619 14.4356 7.06346C14.4428 6.86503 14.3744 6.67126 14.2444 6.52118L14.2061 6.48035L10.5375 2.81142L10.5372 2.81111ZM12.6938 9.10293L9.18787 5.59698C8.0427 6.95128 6.9457 7.16028 5.95544 6.16892L5.85085 6.06055L5.8364 6.04265L5.82541 6.02506C5.81096 5.99554 5.8141 5.96444 5.84739 5.9167L5.87095 5.88623L5.90236 5.85074L5.94256 5.80991L6.01952 5.73672L6.15678 5.61328L6.32789 5.46514L7.60824 4.18433L6.31009 2.94366C6.16865 2.80854 5.98188 2.73108 5.78633 2.72643C5.59078 2.72178 5.40054 2.79028 5.25285 2.91853L5.21233 2.95622L1.79374 6.37513C1.65331 6.51552 1.57128 6.70389 1.56417 6.90233C1.55706 7.10077 1.6254 7.29454 1.75542 7.44462L1.79374 7.48545L7.49736 13.1891C7.63775 13.3295 7.82613 13.4115 8.02457 13.4186C8.22301 13.4257 8.41677 13.3574 8.56685 13.2274L8.60768 13.1891L9.01626 12.7805L7.94005 11.7043L8.16211 11.4822L9.23833 12.5584L10.2062 11.5906L9.2137 10.598L9.43576 10.3757L10.4283 11.3685L11.3532 10.4436L10.3203 9.41014L10.542 9.18808L11.5753 10.2214L12.6938 9.10293Z" fill="black"/>
<path d="M9.94949 2.26756L9.95686 2.51847L9.94949 2.26756ZM9.20446 2.58904L9.02697 2.41154L8.59841 2.84006H9.20446V2.58904ZM10.7121 2.54476L10.8834 2.36119L10.8789 2.35714L10.7121 2.54476ZM10.7592 2.58873L10.9368 2.41114L10.9305 2.40522L10.7592 2.58873ZM14.4278 6.25766L14.2503 6.43515L14.2504 6.43518L14.4278 6.25766ZM14.7495 7.00263L15.0004 6.9952V6.9952L14.7495 7.00263ZM14.4724 7.76531L14.6554 7.9373L14.6601 7.93203L14.4724 7.76531ZM14.4281 7.81242L14.6057 7.99001L14.611 7.98435L14.4281 7.81242ZM8.82912 13.4108L8.65163 13.2333L8.65159 13.2334L8.82912 13.4108ZM8.08415 13.7325L8.07673 13.4816H8.07673L8.08415 13.7325ZM7.32147 13.4554L7.14882 13.6378L7.15474 13.6431L7.32147 13.4554ZM7.27435 13.4108L7.09678 13.5884L7.10179 13.5931L7.27435 13.4108ZM1.57199 7.70783L1.74949 7.53034L1.74949 7.53034L1.57199 7.70783ZM1.2505 6.9628L1.50141 6.95543L1.2505 6.9628ZM1.5277 6.20018L1.34473 6.02819L1.34008 6.03341L1.5277 6.20018ZM1.57199 6.15306L1.3944 5.97548L1.38909 5.98114L1.57199 6.15306ZM4.99089 2.73416L4.81342 2.55664L4.8134 2.55666L4.99089 2.73416ZM6.48032 2.67416L6.64901 2.48811L6.64295 2.48295L6.48032 2.67416ZM6.52744 2.71688L6.7009 2.53532L6.69604 2.53092L6.52744 2.71688ZM7.83093 3.96226L7.65752 4.14376L7.83489 4.31321L8.00838 4.1398L7.83093 3.96226ZM9.20477 2.58904L9.38223 2.76658L9.81098 2.33803H9.20477V2.58904ZM10.5372 2.81111L10.7147 2.63368L10.7147 2.63364L10.5372 2.81111ZM9.46767 2.77279L9.30317 2.58292L9.2959 2.58975L9.46767 2.77279ZM9.42684 2.81111L9.25498 2.62798L9.24936 2.6336L9.42684 2.81111ZM6.23483 6.00251L6.05735 5.825L5.8744 6.00791L6.06274 6.18526L6.23483 6.00251ZM9.32064 4.9138L9.52474 5.05993L9.52567 5.05861L9.32064 4.9138ZM9.38409 4.82397L9.52787 4.61821L9.32314 4.47515L9.17906 4.67915L9.38409 4.82397ZM9.64164 5.00394L9.84735 5.14779L9.99125 4.94201L9.78542 4.79818L9.64164 5.00394ZM9.38652 5.35118L9.18803 5.19753L9.0527 5.37235L9.20903 5.52868L9.38652 5.35118ZM12.916 8.88071L12.7386 9.0582L12.916 9.2357L13.0935 9.0582L12.916 8.88071ZM14.2061 7.59067L14.0286 7.41315L14.0286 7.41317L14.2061 7.59067ZM14.4356 7.06346L14.6865 7.07245V7.07245L14.4356 7.06346ZM14.2444 6.52118L14.4343 6.35669L14.4274 6.34941L14.2444 6.52118ZM14.2061 6.48035L14.3892 6.30849L14.3836 6.30286L14.2061 6.48035ZM10.5375 2.81142L10.3599 2.98885L10.36 2.98891L10.5375 2.81142ZM12.6938 9.10293L12.8713 9.28043L13.0488 9.10293L12.8713 8.92543L12.6938 9.10293ZM9.18787 5.59698L9.36537 5.41948L9.1724 5.22651L8.9962 5.4349L9.18787 5.59698ZM5.95544 6.16892L5.77481 6.34327L5.77785 6.34631L5.95544 6.16892ZM5.85085 6.06055L5.65551 6.2182L5.6625 6.22687L5.67024 6.23488L5.85085 6.06055ZM5.8364 6.04265L5.62354 6.17569L5.63156 6.18852L5.64106 6.2003L5.8364 6.04265ZM5.82541 6.02506L5.59994 6.1354L5.60565 6.14707L5.61254 6.1581L5.82541 6.02506ZM5.84739 5.9167L5.64857 5.76297L5.6415 5.77311L5.84739 5.9167ZM5.87095 5.88623L5.68297 5.71988L5.67746 5.72611L5.67237 5.73269L5.87095 5.88623ZM5.90236 5.85074L5.72324 5.67438L5.71438 5.68438L5.90236 5.85074ZM5.94256 5.80991L5.76948 5.62791L5.7637 5.63379L5.94256 5.80991ZM6.01952 5.73672L5.8516 5.55001L5.84653 5.55483L6.01952 5.73672ZM6.15678 5.61328L5.99245 5.42347L5.98892 5.42664L6.15678 5.61328ZM6.32789 5.46514L6.49219 5.65492L6.49902 5.649L6.50542 5.64261L6.32789 5.46514ZM7.60824 4.18433L7.78576 4.36179L7.96726 4.18023L7.78167 4.00286L7.60824 4.18433ZM6.31009 2.94366L6.48352 2.76219L6.48348 2.76215L6.31009 2.94366ZM5.25285 2.91853L5.08818 2.72888L5.08188 2.73474L5.25285 2.91853ZM5.21233 2.95622L5.04125 2.77231L5.03483 2.77873L5.21233 2.95622ZM1.79374 6.37513L1.97121 6.55265L1.97124 6.55262L1.79374 6.37513ZM1.56417 6.90233L1.81503 6.91132L1.56417 6.90233ZM1.75542 7.44462L1.56554 7.60911L1.57238 7.61639L1.75542 7.44462ZM1.79374 7.48545L1.6106 7.65731L1.61624 7.66295L1.79374 7.48545ZM7.49736 13.1891L7.67488 13.0116L7.67486 13.0116L7.49736 13.1891ZM8.02457 13.4186L8.03355 13.1678H8.03355L8.02457 13.4186ZM8.56685 13.2274L8.73134 13.4173L8.73862 13.4104L8.56685 13.2274ZM8.60768 13.1891L8.77954 13.3722L8.78518 13.3666L8.60768 13.1891ZM9.01626 12.7805L9.19376 12.958L9.37125 12.7805L9.19376 12.603L9.01626 12.7805ZM7.94005 11.7043L7.76255 11.5268L7.58506 11.7043L7.76255 11.8818L7.94005 11.7043ZM8.16211 11.4822L8.33961 11.3047L8.16211 11.1272L7.98462 11.3047L8.16211 11.4822ZM9.23833 12.5584L9.06083 12.7359L9.23833 12.9134L9.41582 12.7359L9.23833 12.5584ZM10.2062 11.5906L10.3837 11.768L10.5612 11.5906L10.3837 11.4131L10.2062 11.5906ZM9.2137 10.598L9.03608 10.4207L8.85883 10.5982L9.0362 10.7755L9.2137 10.598ZM9.43576 10.3757L9.61329 10.1982L9.43566 10.0205L9.25814 10.1983L9.43576 10.3757ZM10.4283 11.3685L10.2508 11.5459L10.4283 11.7235L10.6058 11.546L10.4283 11.3685ZM11.3532 10.4436L11.5307 10.6211L11.7081 10.4436L11.5307 10.2661L11.3532 10.4436ZM10.3203 9.41014L10.1426 9.23277L9.96543 9.41022L10.1427 9.58759L10.3203 9.41014ZM10.542 9.18808L10.7195 9.01058L10.5419 8.83296L10.3644 9.01071L10.542 9.18808ZM11.5753 10.2214L11.3978 10.3989L11.5753 10.5764L11.7528 10.3989L11.5753 10.2214ZM9.94212 2.01666C9.59788 2.02677 9.2705 2.16803 9.02697 2.41154L9.38195 2.76655C9.53494 2.61357 9.7406 2.52483 9.95686 2.51847L9.94212 2.01666ZM10.8789 2.35714C10.6215 2.12834 10.2864 2.00654 9.94212 2.01666L9.95686 2.51847C10.1731 2.51212 10.3836 2.58864 10.5453 2.73237L10.8789 2.35714ZM10.9305 2.40522L10.8834 2.36125L10.5408 2.72827L10.5879 2.77224L10.9305 2.40522ZM14.6053 6.08017L10.9367 2.41124L10.5817 2.76622L14.2503 6.43515L14.6053 6.08017ZM15.0004 6.9952C14.9902 6.65096 14.8489 6.32361 14.6053 6.08013L14.2504 6.43518C14.4034 6.58814 14.4922 6.79379 14.4986 7.01005L15.0004 6.9952ZM14.6601 7.93203C14.8888 7.67458 15.0106 7.33945 15.0004 6.9952L14.4986 7.01005C14.505 7.22631 14.4285 7.43684 14.2848 7.59858L14.6601 7.93203ZM14.611 7.98435L14.6553 7.93723L14.2895 7.59338L14.2453 7.64049L14.611 7.98435ZM9.0066 13.5883L14.6056 7.98993L14.2507 7.63491L8.65163 13.2333L9.0066 13.5883ZM8.09157 13.9834C8.43582 13.9732 8.76316 13.8319 9.00664 13.5883L8.65159 13.2334C8.49863 13.3864 8.29299 13.4752 8.07673 13.4816L8.09157 13.9834ZM7.15474 13.6431C7.4122 13.8718 7.74732 13.9936 8.09157 13.9834L8.07673 13.4816C7.86046 13.488 7.64993 13.4115 7.48819 13.2678L7.15474 13.6431ZM7.10179 13.5931L7.1489 13.6377L7.49403 13.2731L7.44692 13.2285L7.10179 13.5931ZM1.39448 7.88531L7.09685 13.5883L7.45186 13.2333L1.74949 7.53034L1.39448 7.88531ZM0.999596 6.97017C1.00971 7.31441 1.15097 7.64178 1.39448 7.88532L1.74949 7.53034C1.59651 7.37735 1.50777 7.17169 1.50141 6.95543L0.999596 6.97017ZM1.34008 6.03341C1.11128 6.29082 0.989484 6.62592 0.999596 6.97017L1.50141 6.95543C1.49506 6.73916 1.57158 6.52865 1.71531 6.36694L1.34008 6.03341ZM1.38909 5.98114L1.3448 6.02825L1.7106 6.3721L1.75488 6.32499L1.38909 5.98114ZM4.8134 2.55666L1.39449 5.97557L1.74948 6.33056L5.16839 2.91165L4.8134 2.55666ZM5.71379 2.16235C5.37479 2.176 5.05335 2.31677 4.81342 2.55664L5.16837 2.91168C5.3191 2.76099 5.52103 2.67256 5.73399 2.66398L5.71379 2.16235ZM6.64295 2.48295C6.3845 2.26315 6.05278 2.1487 5.71379 2.16235L5.73399 2.66398C5.94695 2.6554 6.15534 2.7273 6.3177 2.86538L6.64295 2.48295ZM6.69604 2.53092L6.64893 2.4882L6.31172 2.86013L6.35883 2.90284L6.69604 2.53092ZM8.00433 3.78077L6.70084 2.53538L6.35403 2.89838L7.65752 4.14376L8.00433 3.78077ZM9.02732 2.41151L7.65347 3.78472L8.00838 4.1398L9.38223 2.76658L9.02732 2.41151ZM9.20446 2.84006H9.20477V2.33803H9.20446V2.84006ZM10.001 2.8324C10.136 2.83724 10.2641 2.89304 10.3596 2.98858L10.7147 2.63364C10.5294 2.44832 10.2808 2.34007 10.0189 2.33069L10.001 2.8324ZM9.63203 2.96251C9.73414 2.87405 9.86596 2.82756 10.001 2.8324L10.0189 2.33069C9.75706 2.32131 9.50136 2.41148 9.3033 2.58307L9.63203 2.96251ZM9.59861 2.99415L9.63944 2.95583L9.2959 2.58975L9.25506 2.62807L9.59861 2.99415ZM6.41231 6.18003L9.60432 2.98862L9.24936 2.6336L6.05735 5.825L6.41231 6.18003ZM9.11654 4.76767C8.54532 5.56553 8.04251 6.00196 7.60647 6.15418C7.39489 6.22804 7.19829 6.23539 7.00863 6.18433C6.81623 6.13254 6.61571 6.01638 6.40691 5.81976L6.06274 6.18526C6.31543 6.4232 6.5865 6.5906 6.87812 6.66911C7.17247 6.74835 7.47232 6.73275 7.77193 6.62816C8.35829 6.42347 8.9369 5.88099 9.52474 5.05992L9.11654 4.76767ZM9.17906 4.67915L9.11561 4.76898L9.52567 5.05861L9.58912 4.96878L9.17906 4.67915ZM9.78542 4.79818L9.52787 4.61821L9.24031 5.02973L9.49786 5.2097L9.78542 4.79818ZM9.58501 5.50484C9.67248 5.39186 9.75993 5.27282 9.84735 5.14779L9.43593 4.86009C9.35282 4.97894 9.27018 5.09141 9.18803 5.19753L9.58501 5.50484ZM9.20903 5.52868L12.7386 9.0582L13.0935 8.70321L9.56402 5.17369L9.20903 5.52868ZM14.0286 7.41317L12.7386 8.70321L13.0935 9.0582L14.3836 7.76817L14.0286 7.41317ZM14.1848 7.05448C14.18 7.18948 14.1242 7.31764 14.0286 7.41315L14.3836 7.76819C14.5689 7.58293 14.6771 7.33433 14.6865 7.07245L14.1848 7.05448ZM14.0547 6.68555C14.1431 6.78765 14.1896 6.91947 14.1848 7.05448L14.6865 7.07245C14.6959 6.81058 14.6057 6.55487 14.4341 6.35682L14.0547 6.68555ZM14.023 6.65212L14.0614 6.69296L14.4274 6.34941L14.3891 6.30858L14.023 6.65212ZM10.36 2.98891L14.0286 6.65784L14.3836 6.30286L10.715 2.63393L10.36 2.98891ZM10.3596 2.98854L10.3599 2.98885L10.715 2.63399L10.7147 2.63368L10.3596 2.98854ZM12.8713 8.92543L9.36537 5.41948L9.01038 5.77447L12.5163 9.28043L12.8713 8.92543ZM5.77785 6.34631C6.31453 6.8836 6.91529 7.12556 7.55812 7.0096C8.18283 6.89692 8.79099 6.45509 9.37955 5.75906L8.9962 5.4349C8.43958 6.09316 7.92665 6.43299 7.469 6.51554C7.02947 6.59482 6.58661 6.4456 6.13304 5.99152L5.77785 6.34631ZM5.67024 6.23488L5.77483 6.34324L6.13605 5.99459L6.03146 5.88623L5.67024 6.23488ZM5.64106 6.2003L5.65551 6.2182L6.04619 5.90291L6.03174 5.885L5.64106 6.2003ZM5.61254 6.1581L5.62354 6.17569L6.04926 5.90961L6.03827 5.89202L5.61254 6.1581ZM5.6415 5.77311C5.61422 5.81224 5.58353 5.86618 5.57146 5.9332C5.55786 6.00868 5.57178 6.07786 5.59994 6.1354L6.05088 5.91473C6.05663 5.92649 6.06288 5.9431 6.06609 5.96375C6.06936 5.98474 6.06869 6.00471 6.06554 6.02222C6.05974 6.05438 6.04728 6.0689 6.05329 6.06028L5.6415 5.77311ZM5.67237 5.73269L5.64881 5.76316L6.04598 6.07024L6.06953 6.03977L5.67237 5.73269ZM5.71438 5.68438L5.68297 5.71988L6.05893 6.05259L6.09034 6.0171L5.71438 5.68438ZM5.7637 5.63379L5.72349 5.67463L6.08123 6.02685L6.12143 5.98602L5.7637 5.63379ZM5.84653 5.55483L5.76958 5.62801L6.11555 5.9918L6.1925 5.91862L5.84653 5.55483ZM5.98892 5.42664L5.85167 5.55008L6.18737 5.92337L6.32463 5.79993L5.98892 5.42664ZM6.16359 5.27537L5.99248 5.42351L6.32108 5.80306L6.49219 5.65492L6.16359 5.27537ZM7.43071 4.00686L6.15036 5.28768L6.50542 5.64261L7.78576 4.36179L7.43071 4.00686ZM6.13665 3.12512L7.4348 4.36579L7.78167 4.00286L6.48352 2.76219L6.13665 3.12512ZM5.78037 2.97738C5.9134 2.98054 6.04047 3.03324 6.13669 3.12516L6.48348 2.76215C6.29683 2.58384 6.05035 2.48162 5.7923 2.47548L5.78037 2.97738ZM5.41742 3.10807C5.5179 3.02082 5.64733 2.97421 5.78037 2.97738L5.7923 2.47548C5.53424 2.46935 5.28318 2.55975 5.08827 2.72899L5.41742 3.10807ZM5.3833 3.14001L5.42382 3.10232L5.08188 2.73474L5.04136 2.77243L5.3833 3.14001ZM1.97124 6.55262L5.38983 3.13371L5.03483 2.77873L1.61623 6.19764L1.97124 6.55262ZM1.81503 6.91132C1.81986 6.77632 1.87567 6.64816 1.97121 6.55265L1.61626 6.19761C1.43095 6.38287 1.3227 6.63147 1.31331 6.89335L1.81503 6.91132ZM1.94514 7.28025C1.85668 7.17815 1.81019 7.04633 1.81503 6.91132L1.31331 6.89335C1.30393 7.15522 1.39411 7.41093 1.56569 7.60898L1.94514 7.28025ZM1.97677 7.31368L1.93845 7.27284L1.57238 7.61639L1.6107 7.65722L1.97677 7.31368ZM7.67486 13.0116L1.97123 7.30795L1.61624 7.66295L7.31986 13.3666L7.67486 13.0116ZM8.03355 13.1678C7.89855 13.1629 7.77039 13.1071 7.67488 13.0116L7.31984 13.3665C7.50511 13.5519 7.7537 13.6601 8.01558 13.6695L8.03355 13.1678ZM8.40248 13.0377C8.30038 13.1261 8.16856 13.1726 8.03355 13.1678L8.01558 13.6695C8.27745 13.6789 8.53316 13.5887 8.73121 13.4171L8.40248 13.0377ZM8.43591 13.006L8.39508 13.0444L8.73862 13.4104L8.77945 13.3721L8.43591 13.006ZM8.83876 12.603L8.43018 13.0116L8.78518 13.3666L9.19376 12.958L8.83876 12.603ZM9.19376 12.603L8.11755 11.5268L7.76255 11.8818L8.83877 12.958L9.19376 12.603ZM8.11755 11.8818L8.33961 11.6597L7.98462 11.3047L7.76255 11.5268L8.11755 11.8818ZM7.98462 11.6597L9.06083 12.7359L9.41582 12.3809L8.33961 11.3047L7.98462 11.6597ZM10.0287 11.4131L9.06083 12.3809L9.41582 12.7359L10.3837 11.768L10.0287 11.4131ZM10.3837 11.4131L9.3912 10.4206L9.0362 10.7755L10.0287 11.768L10.3837 11.4131ZM9.39132 10.7754L9.61339 10.553L9.25814 10.1983L9.03608 10.4207L9.39132 10.7754ZM9.25824 10.5531L10.2508 11.5459L10.6058 11.191L9.61329 10.1982L9.25824 10.5531ZM11.1757 10.2661L10.2508 11.191L10.6058 11.546L11.5307 10.6211L11.1757 10.2661ZM11.5307 10.2661L10.4978 9.2327L10.1427 9.58759L11.1756 10.621L11.5307 10.2661ZM10.4979 9.58751L10.7196 9.36545L10.3644 9.01071L10.1426 9.23277L10.4979 9.58751ZM10.3645 9.36558L11.3978 10.3989L11.7528 10.0439L10.7195 9.01058L10.3645 9.36558ZM12.5163 8.92543L11.3978 10.0439L11.7528 10.3989L12.8713 9.28043L12.5163 8.92543Z" fill="black"/>
</svg>
