<svg width="17" height="17" viewBox="0 0 17 17" fill="none" xmlns="http://www.w3.org/2000/svg">
<path fill-rule="evenodd" clip-rule="evenodd" d="M9.24468 16.6915C8.83341 17.1028 8.16659 17.1028 7.75532 16.6915L0.308459 9.24466C-0.10282 8.83338 -0.102818 8.16657 0.30846 7.75529L7.75532 0.308434C8.16659 -0.102845 8.83341 -0.102844 9.24469 0.308434L16.6915 7.75529C17.1028 8.16657 17.1028 8.83339 16.6915 9.24466L9.24468 16.6915ZM8.5 15.9468L15.9469 8.49998L8.5 1.05312L1.05315 8.49997L8.5 15.9468ZM8.49999 9.24467L6.63829 11.1064L5.8936 10.3617L7.7553 8.49999L5.8936 6.63828L6.63829 5.8936L8.49999 7.7553L10.3617 5.89358L11.1064 6.63826L9.24467 8.49999L11.1064 10.3617L10.3617 11.1064L8.49999 9.24467Z" fill="#999999"/>
</svg>
