<svg width="32" height="32" viewBox="0 0 32 32" fill="none" xmlns="http://www.w3.org/2000/svg">
<rect width="32" height="32" rx="3.2" fill="#0052D9"/>
<path opacity="0.3" fill-rule="evenodd" clip-rule="evenodd" d="M24.8001 7L16.8001 7.00011L11.1356 7.00289C10.5079 7.00289 10.0001 7.51883 10.0001 8.15258V9.80005H26.0001V8.12828C26.0001 7.49453 25.4278 7 24.8001 7ZM10.0001 18.6636V11.4H26.0001V18.6001C26.0001 19.2359 25.4278 19.8001 24.8001 19.8001L11.2001 19.8001C10.5725 19.8001 10.0001 19.2994 10.0001 18.6636ZM22.0442 15.8C21.7743 15.8 21.5819 16.0618 21.6624 16.3194L21.9124 17.1194C21.9646 17.2863 22.1192 17.4 22.2942 17.4H24.456C24.7259 17.4 24.9183 17.1383 24.8378 16.8807L24.5878 16.0807C24.5357 15.9137 24.381 15.8 24.206 15.8H22.0442Z" fill="white"/>
<path fill-rule="evenodd" clip-rule="evenodd" d="M20.8001 11L12.8001 11.0001L7.13559 11.0029C6.50793 11.0029 6.00012 11.5188 6.00012 12.1526V13.8H22.0001V12.1283C22.0001 11.4945 21.4278 11 20.8001 11ZM6.00012 22.6636V15.4H22.0001V22.6001C22.0001 23.2359 21.4278 23.8001 20.8001 23.8001L7.20012 23.8001C6.57247 23.8001 6.00012 23.2994 6.00012 22.6636ZM18.0442 19.8C17.7743 19.8 17.5819 20.0618 17.6624 20.3194L17.9124 21.1194C17.9646 21.2863 18.1192 21.4 18.2942 21.4H20.456C20.7259 21.4 20.9183 21.1383 20.8378 20.8807L20.5878 20.0807C20.5357 19.9137 20.381 19.8 20.206 19.8H18.0442Z" fill="white"/>
</svg>
