<svg width="16" height="16" viewBox="0 0 16 16" fill="none" xmlns="http://www.w3.org/2000/svg">
<path d="M2.76792 6.21283L5.00167 6.21283" stroke="black" stroke-width="0.72575" stroke-linecap="round"/>
<path d="M3.88294 7.3313L3.88294 5.09754" stroke="black" stroke-width="0.72575" stroke-linecap="round"/>
<path d="M8.01627 7.02308C8.40196 7.02308 8.71461 6.71042 8.71461 6.32473C8.71461 5.93905 8.40196 5.62638 8.01627 5.62638C7.63058 5.62638 7.31792 5.93905 7.31792 6.32473C7.31792 6.71042 7.63058 7.02308 8.01627 7.02308Z" stroke="black" stroke-width="0.72575"/>
<path d="M10.5124 7.02327C10.898 7.02327 11.2107 6.7106 11.2107 6.32492C11.2107 5.93923 10.898 5.62657 10.5124 5.62657C10.1267 5.62657 9.81401 5.93923 9.81401 6.32492C9.81401 6.7106 10.1267 7.02327 10.5124 7.02327Z" stroke="black" stroke-width="0.72575"/>
<path fill-rule="evenodd" clip-rule="evenodd" d="M1.99252 2.19336C1.1506 2.19336 0.50013 2.89745 0.50013 3.72561V10.3378C0.50013 11.166 1.1506 11.8701 1.99252 11.8701H3.56487C4.3114 11.8701 4.92341 11.3108 5.03849 10.5826L5.0601 10.4483L5.06021 10.4476C5.14223 9.92765 5.56684 9.57147 6.03634 9.57147H7.54354C8.01304 9.57147 8.43765 9.92765 8.51966 10.4476L8.51977 10.4483L8.54143 10.5829C8.61647 11.0581 8.90306 11.4611 9.30056 11.6839C9.2414 11.4332 9.21009 11.1717 9.21009 10.9029C9.21009 10.6927 9.22924 10.487 9.26589 10.2874C9.11222 9.4476 8.40561 8.81756 7.54209 8.81756H6.03489C5.15648 8.81756 4.44037 9.46985 4.30358 10.3313L4.28195 10.4659L4.28184 10.4666C4.25242 10.653 4.15999 10.8197 4.02737 10.9369C3.89494 11.0538 3.7291 11.1162 3.56343 11.1162H1.99252C1.60976 11.1162 1.26393 10.7852 1.26393 10.3378V3.72561C1.26393 3.27824 1.60976 2.94726 1.99252 2.94726H11.5845C11.9672 2.94726 12.3131 3.27824 12.3131 3.72561V7.5275C12.4068 7.51972 12.5015 7.51575 12.5973 7.51575C12.7611 7.51575 12.9222 7.52737 13.0797 7.54985L13.0797 3.72561L13.0797 3.72466C13.0764 2.89758 12.4281 2.19336 11.5845 2.19336H1.99252Z" fill="black"/>
<path d="M15.1371 10.9031C15.1371 12.3062 13.9997 13.4435 12.5967 13.4435C11.1937 13.4435 10.0563 12.3062 10.0563 10.9031C10.0563 9.50008 11.1937 8.36269 12.5967 8.36269C13.9997 8.36269 15.1371 9.50008 15.1371 10.9031Z" stroke="black" stroke-width="0.72575"/>
<path fill-rule="evenodd" clip-rule="evenodd" d="M11.9484 8.67157C11.4714 9.28858 11.1876 10.0625 11.1876 10.9028C11.1876 11.7429 11.4713 12.5167 11.9482 13.1337C12.1539 13.1933 12.3713 13.2253 12.5963 13.2253C12.8715 13.2253 13.1356 13.1774 13.3807 13.0895C13.8373 12.4799 14.1078 11.7228 14.1078 10.9026C14.1078 10.0824 13.8374 9.32541 13.3808 8.71587C13.1358 8.62793 12.8716 8.58002 12.5963 8.58002C12.3714 8.58002 12.1541 8.61196 11.9484 8.67157ZM13.3821 10.9026C13.3821 10.1591 13.1047 9.48035 12.6478 8.96425C12.1908 9.48037 11.9133 10.1592 11.9133 10.9028C11.9133 11.6463 12.1907 12.325 12.6476 12.8411C13.1046 12.325 13.3821 11.6462 13.3821 10.9026Z" fill="black"/>
<path d="M10.2745 10.9025H14.9197" stroke="black" stroke-width="0.72575" stroke-linecap="round"/>
</svg>
