<svg width="16" height="16" viewBox="0 0 16 16" fill="none" xmlns="http://www.w3.org/2000/svg">
<path d="M12.2105 14.7501H3.78929C2.96876 14.7501 2.29938 14.1068 2.29938 13.3134V13.2919L2.81761 5.16496C2.81761 4.37157 3.48699 3.72827 4.30752 3.72827H11.6923C12.5128 3.72827 13.1606 4.37157 13.1822 5.16496L13.7004 13.3134C13.7004 14.1068 13.031 14.7501 12.2105 14.7501ZM3.16309 13.3134C3.16309 13.635 3.4438 13.8923 3.78929 13.8923H12.2105C12.556 13.8923 12.8367 13.635 12.8367 13.3134L12.3185 5.16496C12.3185 4.84332 12.0378 4.586 11.6923 4.586H4.30752C3.96203 4.586 3.68132 4.84332 3.68132 5.16496V5.18641L3.16309 13.3134Z" fill="black"/>
<path d="M5.81849 9.70988C5.58096 9.70988 5.38663 9.51689 5.38663 9.28102C5.38663 9.04514 5.58096 8.85215 5.81849 8.85215L10.1587 8.80927C10.3962 8.80927 10.5905 9.00225 10.5905 9.23813C10.5905 9.474 10.3962 9.66699 10.1587 9.66699L5.81849 9.70988Z" fill="black"/>
<path d="M7.99946 11.8335C6.55274 11.8335 5.38672 10.6756 5.38672 9.23891C5.38672 7.80222 6.55274 6.64429 7.99946 6.64429C9.44618 6.64429 10.6122 7.80222 10.6122 9.23891C10.6122 9.47479 10.4179 9.66777 10.1803 9.66777C9.94282 9.66777 9.74849 9.47479 9.74849 9.23891C9.74849 8.29541 8.97114 7.50201 7.99946 7.50201C7.02778 7.50201 6.25043 8.27397 6.25043 9.23891C6.25043 10.2039 7.02778 10.9758 7.99946 10.9758C8.56087 10.9758 9.05751 10.7185 9.38141 10.2896C9.53256 10.0966 9.79167 10.0538 9.98601 10.2039C10.1803 10.354 10.2235 10.6113 10.0724 10.8043C9.57574 11.4476 8.81999 11.8335 7.99946 11.8335Z" fill="black"/>
<path fill-rule="evenodd" clip-rule="evenodd" d="M9.22881 3.48544V3.93254H6.54621V3.48544C6.54621 2.74466 7.14673 2.14414 7.88751 2.14414C8.62829 2.14414 9.22881 2.74466 9.22881 3.48544ZM5.65201 3.48544C5.65201 2.25081 6.65288 1.24994 7.88751 1.24994C9.12214 1.24994 10.123 2.25081 10.123 3.48544V3.93254V3.93276H5.65201V3.93254V3.48544Z" fill="black"/>
</svg>
