<svg width="16" height="16" viewBox="0 0 16 16" fill="none" xmlns="http://www.w3.org/2000/svg">
<path d="M8.00001 10.9068C7.91041 10.9068 7.82255 10.882 7.74616 10.8352L0.981678 6.68444C0.910888 6.641 0.85242 6.58014 0.811859 6.50766C0.771298 6.43519 0.75 6.35352 0.75 6.27047C0.75 6.18741 0.771298 6.10575 0.811859 6.03327C0.85242 5.96079 0.910888 5.89993 0.981678 5.85649L7.74616 1.70606C7.82259 1.65916 7.9105 1.63434 8.00018 1.63434C8.08985 1.63434 8.17777 1.65916 8.2542 1.70606L15.0183 5.85649C15.0891 5.89993 15.1476 5.96079 15.1882 6.03327C15.2287 6.10575 15.25 6.18741 15.25 6.27047C15.25 6.35352 15.2287 6.43519 15.1882 6.50766C15.1476 6.58014 15.0891 6.641 15.0183 6.68444L8.25387 10.8352C8.17747 10.882 8.08961 10.9068 8.00001 10.9068ZM2.16451 6.27063L8.00001 9.85118L13.8355 6.27063L8.00001 2.69008L2.16451 6.27063Z" fill="black"/>
<path d="M7.96766 14.3652C6.58763 14.3652 5.21343 14.043 3.90885 13.399C3.73976 13.3674 3.58697 13.2778 3.47675 13.1457C3.36654 13.0137 3.3058 12.8473 3.30496 12.6753V7.88115C3.30496 7.75234 3.35613 7.6288 3.44722 7.53771C3.53831 7.44663 3.66184 7.39546 3.79066 7.39546C3.91948 7.39546 4.04301 7.44663 4.1341 7.53771C4.22519 7.6288 4.27636 7.75234 4.27636 7.88115V12.4975C6.64494 13.6894 9.2771 13.6894 11.6913 12.4975V8.13274C11.6913 8.00393 11.7425 7.88039 11.8336 7.7893C11.9247 7.69822 12.0482 7.64705 12.177 7.64705C12.3059 7.64705 12.4294 7.69822 12.5205 7.7893C12.6116 7.88039 12.6627 8.00393 12.6627 8.13274V12.6753C12.6619 12.8475 12.6011 13.014 12.4907 13.1462C12.3803 13.2784 12.2272 13.3679 12.0579 13.3993C10.7313 14.043 9.34607 14.3652 7.96766 14.3652ZM14.1198 6.30005H14.7674V9.86182H14.1198V6.30005Z" fill="black"/>
<path d="M6.19214 7.29657L7.93382 8.38512" stroke="black" stroke-width="0.87084" stroke-linecap="round"/>
<path d="M14.459 10.6083C14.3342 10.6083 14.2121 10.5713 14.1082 10.5019C14.0044 10.4325 13.9235 10.3339 13.8757 10.2186C13.8279 10.1032 13.8154 9.97623 13.8398 9.85375C13.8641 9.73127 13.9243 9.61877 14.0126 9.53046C14.1009 9.44216 14.2134 9.38202 14.3359 9.35766C14.4583 9.3333 14.5853 9.3458 14.7007 9.39359C14.816 9.44138 14.9146 9.52231 14.984 9.62614C15.0534 9.72998 15.0904 9.85205 15.0904 9.97693C15.0903 10.1443 15.0237 10.3048 14.9053 10.4232C14.7869 10.5416 14.6264 10.6082 14.459 10.6083ZM14.459 9.96074C14.4558 9.96074 14.4527 9.96169 14.45 9.96347C14.4474 9.96525 14.4453 9.96778 14.4441 9.97074C14.4429 9.9737 14.4425 9.97695 14.4432 9.98009C14.4438 9.98323 14.4453 9.98612 14.4476 9.98838C14.4498 9.99064 14.4527 9.99219 14.4559 9.99281C14.459 9.99344 14.4623 9.99312 14.4652 9.99189C14.4682 9.99066 14.4707 9.98859 14.4725 9.98593C14.4743 9.98327 14.4752 9.98013 14.4752 9.97693C14.4752 9.97481 14.4748 9.9727 14.474 9.97074C14.4732 9.96877 14.472 9.96699 14.4705 9.96548C14.469 9.96398 14.4672 9.96279 14.4652 9.96198C14.4633 9.96116 14.4612 9.96074 14.459 9.96074Z" fill="black"/>
</svg>
