<svg width="16" height="16" viewBox="0 0 16 16" fill="none" xmlns="http://www.w3.org/2000/svg">
<path fill-rule="evenodd" clip-rule="evenodd" d="M4 2.25H11V5.61401L12 4.61401V2.25C12 1.69772 11.5523 1.25 11 1.25H4C3.44772 1.25 3 1.69772 3 2.25V13.75C3 14.3023 3.44772 14.75 4 14.75H11C11.5523 14.75 12 14.3023 12 13.75V8.85665L11 9.85665V13.75H4L4 2.25ZM14.1478 4.96281L13.7914 4.59686C13.714 4.5173 13.6055 4.46957 13.4971 4.46957C13.3886 4.46957 13.2802 4.5173 13.2027 4.59686L9.54645 8.33592C9.48448 8.39956 9.4535 8.47912 9.43801 8.55867L9.28308 9.46559C9.26759 9.52924 9.31407 9.57697 9.37604 9.57697H9.39153L10.2746 9.41786C10.3521 9.40195 10.4295 9.35422 10.4915 9.30648L14.1478 5.55151C14.3027 5.3924 14.3027 5.12192 14.1478 4.96281ZM9.75 11H5.25V12H9.75V11Z" fill="#999999"/>
</svg>
