<svg width="16" height="16" viewBox="0 0 16 16" fill="none" xmlns="http://www.w3.org/2000/svg">
<g opacity="0.9">
<path fill-rule="evenodd" clip-rule="evenodd" d="M15 8C15 4.13401 11.866 1 8 1C4.13401 0.999998 1 4.134 1 8C0.999998 11.866 4.134 15 8 15C11.866 15 15 11.866 15 8ZM4.40164 3.19833C5.40415 2.44585 6.65001 2 8 2C11.3137 2 14 4.68629 14 8C14 9.54504 13.416 10.9537 12.4567 12.0172L4.40164 3.19833ZM3.65433 3.86294C2.62925 4.93938 2 6.3962 2 8C2 11.3137 4.68629 14 8 14C9.40866 14 10.7039 13.5146 11.7277 12.7018L3.65433 3.86294Z" fill="#999999"/>
</g>
</svg>
