<svg width="16" height="16" viewBox="0 0 16 16" fill="none" xmlns="http://www.w3.org/2000/svg">
<path fill-rule="evenodd" clip-rule="evenodd" d="M2.83334 2.66667C2.83334 2.57461 2.90795 2.5 3 2.5H13C13.0921 2.5 13.1667 2.57461 13.1667 2.66667V13.3333C13.1667 13.4254 13.0921 13.5 13 13.5H3C2.90795 13.5 2.83334 13.4254 2.83334 13.3333V2.66667ZM3 1.5C2.35566 1.5 1.83334 2.02234 1.83334 2.66667V13.3333C1.83334 13.9777 2.35566 14.5 3 14.5H13C13.6443 14.5 14.1667 13.9777 14.1667 13.3333V2.66667C14.1667 2.02234 13.6444 1.5 13 1.5H3ZM4 5.5C4 5.22386 4.22386 5 4.5 5H7.16667H7.66667V6H7.16667H5V7.33333H7H7.5V8.33333H7H5V9.66667H7H7.5V10.6667H7H5H4.5H4V10.1667V9.66667V8.33333V7.33333V5.5ZM9.33333 5.66667V6.16667V6.26756C9.62751 6.09739 9.96905 6 10.3333 6C11.4379 6 12.3333 6.89542 12.3333 8V10.1667V10.6667H11.3333V10.1667V8C11.3333 7.44771 10.8856 7 10.3333 7C9.78104 7 9.33333 7.44771 9.33333 8V10.1667V10.6667H8.33333V10.1667V8V6.16667V5.66667H9.33333Z" fill="#999999"/>
</svg>
