<svg width="16" height="16" viewBox="0 0 16 16" fill="none" xmlns="http://www.w3.org/2000/svg">
<path d="M11.2323 5.08405V7.41807" stroke="black" stroke-width="0.807697" stroke-linecap="round" stroke-linejoin="round"/>
<path d="M4.77132 9.74982V10.917" stroke="black" stroke-width="0.807697" stroke-linecap="round" stroke-linejoin="round"/>
<mask id="path-3-inside-1_1408_133" fill="white">
<path d="M8.53889 1.53877C8.53889 1.24138 8.77997 1.00031 9.07736 1.00031H11.2318C12.7187 1.00031 13.9241 2.2057 13.9241 3.69263V12.3079C13.9241 13.7948 12.7187 15.0002 11.2318 15.0002H9.07736C8.77997 15.0002 8.53889 14.7591 8.53889 14.4618V1.53877Z"/>
</mask>
<path d="M8.53889 1.53877C8.53889 1.24138 8.77997 1.00031 9.07736 1.00031H11.2318C12.7187 1.00031 13.9241 2.2057 13.9241 3.69263V12.3079C13.9241 13.7948 12.7187 15.0002 11.2318 15.0002H9.07736C8.77997 15.0002 8.53889 14.7591 8.53889 14.4618V1.53877Z" stroke="black" stroke-width="1.61539" mask="url(#path-3-inside-1_1408_133)"/>
<mask id="path-4-inside-2_1408_133" fill="white">
<path d="M7.46265 1.53865C7.46265 1.24126 7.22157 1.00018 6.92418 1.00018H4.76979C3.28286 1.00018 2.07746 2.20558 2.07746 3.69251V12.3078C2.07746 13.7947 3.28286 15.0001 4.76978 15.0001H6.92418C7.22157 15.0001 7.46265 14.759 7.46265 14.4616V1.53865Z"/>
</mask>
<path d="M7.46265 1.53865C7.46265 1.24126 7.22157 1.00018 6.92418 1.00018H4.76979C3.28286 1.00018 2.07746 2.20558 2.07746 3.69251V12.3078C2.07746 13.7947 3.28286 15.0001 4.76978 15.0001H6.92418C7.22157 15.0001 7.46265 14.759 7.46265 14.4616V1.53865Z" stroke="black" stroke-width="1.61539" mask="url(#path-4-inside-2_1408_133)"/>
</svg>
