<svg width="16" height="16" viewBox="0 0 16 16" fill="none" xmlns="http://www.w3.org/2000/svg">
<path d="M2.68523 1.14288H10.2865L13.715 4.6499V14.4745C13.715 14.6858 13.5365 14.8572 13.3163 14.8572H2.68523C2.465 14.8572 2.28647 14.6858 2.28647 14.4745V1.52554C2.28647 1.3142 2.465 1.14288 2.68523 1.14288Z" fill="#00A870"/>
<path d="M10.2865 1.14288V4.2757C10.2865 4.49143 10.4614 4.66632 10.6771 4.66632H13.7708L10.2865 1.14288Z" fill="#28CD96"/>
<path d="M7.17728 8.47644L4.74848 5.71436H6.42724L8.01631 7.69148L9.67824 5.71436H11.3035L8.81986 8.47644L11.4275 11.4151H9.73192L7.98013 9.32007L6.23281 11.4286H4.57031L7.17728 8.47644Z" fill="white"/>
</svg>
