<svg width="16" height="16" viewBox="0 0 16 16" fill="none" xmlns="http://www.w3.org/2000/svg">
<mask id="path-1-outside-1_1408_306" maskUnits="userSpaceOnUse" x="0" y="0.993469" width="16" height="14" fill="black">
<rect fill="white" y="0.993469" width="16" height="14"/>
<path fill-rule="evenodd" clip-rule="evenodd" d="M6.18645 11.3088C5.99076 11.1578 5.74516 11.0679 5.47823 11.0679C5.17159 11.0675 4.87735 11.1889 4.66022 11.4055C4.44308 11.622 4.32082 11.9159 4.32032 12.2225C4.32032 12.2605 4.31369 12.2977 4.30107 12.3328C4.36656 12.9081 4.85605 13.356 5.45154 13.356C5.60338 13.3562 5.75378 13.3265 5.89415 13.2686C6.03452 13.2107 6.16211 13.1257 6.26963 13.0185C6.37715 12.9113 6.4625 12.7839 6.52081 12.6437C6.57912 12.5035 6.60924 12.3532 6.60945 12.2014C6.60945 11.842 6.44483 11.5207 6.18645 11.3088ZM3.67638 12.5478H2.5119C2.11132 12.5481 1.72701 12.3894 1.44348 12.1064C1.15995 11.8234 1.00043 11.4394 1 11.0389V7.8893C1 7.33176 1.22199 6.79725 1.6169 6.40342L3.57765 4.44647H3.57793C3.97293 4.05246 4.50806 3.8312 5.06597 3.83119H7.50553V2.86082C7.50553 2.63078 7.59691 2.41017 7.75957 2.24751C7.92223 2.08485 8.14284 1.99347 8.37288 1.99347H14.1326C14.3627 1.99347 14.5833 2.08485 14.7459 2.24751C14.9086 2.41017 15 2.63078 15 2.86082V8.5528C15 8.56689 14.9991 8.58092 14.9972 8.59483C14.9988 8.60767 14.9996 8.62061 14.9996 8.6336V11.0386C14.9996 11.8729 14.3219 12.5481 13.4877 12.5481H13.1896C13.0275 13.3796 12.2938 14.0065 11.4146 14.0065C10.5351 14.0065 9.80135 13.3793 9.63941 12.5478H7.22666C7.06465 13.3794 6.33091 14.0065 5.45154 14.0065C4.5721 14.0065 3.83832 13.3793 3.67638 12.5478ZM6.58312 10.7929C6.27325 10.5445 5.8797 10.3959 5.45154 10.3959C4.55715 10.3959 3.8134 11.0446 3.66862 11.8973H2.5119C2.39893 11.8974 2.28704 11.8754 2.18261 11.8323C2.07818 11.7892 1.98326 11.726 1.90327 11.6462C1.82328 11.5665 1.75979 11.4717 1.71642 11.3674C1.67305 11.2631 1.65065 11.1513 1.65051 11.0383V7.88876C1.65062 7.69829 1.68828 7.50971 1.76135 7.33381C1.83441 7.15791 1.94145 6.99815 2.07633 6.86366L4.03735 4.9067C4.30975 4.63457 4.68 4.4817 5.06597 4.4817H7.48913V8.04136C7.48935 8.28479 7.58624 8.51817 7.75849 8.69017C7.93075 8.86218 8.16428 8.95872 8.40771 8.95858H14.3491V11.0383C14.3489 11.1513 14.3265 11.2631 14.2831 11.3673C14.2397 11.4716 14.1762 11.5663 14.0962 11.6461C14.0162 11.7258 13.9213 11.789 13.8169 11.8321C13.7125 11.8751 13.6006 11.8972 13.4877 11.897H13.1974C13.0526 11.0445 12.3091 10.3959 11.4146 10.3959C10.5203 10.3959 9.77659 11.0445 9.63169 11.897H7.25766C7.1809 11.4812 6.96084 11.1054 6.63574 10.835C6.61844 10.8207 6.60089 10.8066 6.58312 10.7929ZM10.2689 12.0347C10.2609 12.0897 10.2567 12.1453 10.2567 12.2011C10.2567 12.8383 10.7744 13.356 11.4146 13.356C11.5664 13.3563 11.7169 13.3266 11.8573 13.2687C11.9977 13.2108 12.1253 13.1258 12.2328 13.0186C12.3404 12.9114 12.4258 12.784 12.4841 12.6438C12.5349 12.5216 12.5643 12.3916 12.5712 12.2597C12.5698 12.2475 12.5691 12.2352 12.5691 12.2228C12.5691 11.5856 12.0514 11.0679 11.4112 11.0679C11.1045 11.0675 10.8103 11.1889 10.5932 11.4055C10.4209 11.5773 10.3083 11.7977 10.2689 12.0347ZM5.16001 6.11363C5.16011 6.02737 5.12595 5.9446 5.06503 5.88353C5.00407 5.8225 4.92136 5.78819 4.8351 5.78814C4.74884 5.78809 4.66609 5.8223 4.60506 5.88326L3.39971 7.08562C3.33865 7.14658 3.3043 7.22931 3.30422 7.31559C3.30415 7.40188 3.33835 7.48466 3.39931 7.54573C3.46027 7.60679 3.54299 7.64114 3.62927 7.64122C3.71556 7.6413 3.79834 7.60709 3.85941 7.54613L5.06448 6.3435C5.12555 6.28257 5.15991 6.19989 5.16001 6.11363ZM8.21955 2.70749C8.26022 2.66683 8.31537 2.64398 8.37288 2.64398H14.1326C14.1901 2.64398 14.2453 2.66683 14.286 2.70749C14.3266 2.74816 14.3495 2.80331 14.3495 2.86082V8.22754H8.37288C8.31537 8.22754 8.26022 8.2047 8.21955 8.16403C8.17889 8.12337 8.15604 8.06822 8.15604 8.01071V2.86082C8.15604 2.80331 8.17889 2.74816 8.21955 2.70749Z"/>
</mask>
<path fill-rule="evenodd" clip-rule="evenodd" d="M6.18645 11.3088C5.99076 11.1578 5.74516 11.0679 5.47823 11.0679C5.17159 11.0675 4.87735 11.1889 4.66022 11.4055C4.44308 11.622 4.32082 11.9159 4.32032 12.2225C4.32032 12.2605 4.31369 12.2977 4.30107 12.3328C4.36656 12.9081 4.85605 13.356 5.45154 13.356C5.60338 13.3562 5.75378 13.3265 5.89415 13.2686C6.03452 13.2107 6.16211 13.1257 6.26963 13.0185C6.37715 12.9113 6.4625 12.7839 6.52081 12.6437C6.57912 12.5035 6.60924 12.3532 6.60945 12.2014C6.60945 11.842 6.44483 11.5207 6.18645 11.3088ZM3.67638 12.5478H2.5119C2.11132 12.5481 1.72701 12.3894 1.44348 12.1064C1.15995 11.8234 1.00043 11.4394 1 11.0389V7.8893C1 7.33176 1.22199 6.79725 1.6169 6.40342L3.57765 4.44647H3.57793C3.97293 4.05246 4.50806 3.8312 5.06597 3.83119H7.50553V2.86082C7.50553 2.63078 7.59691 2.41017 7.75957 2.24751C7.92223 2.08485 8.14284 1.99347 8.37288 1.99347H14.1326C14.3627 1.99347 14.5833 2.08485 14.7459 2.24751C14.9086 2.41017 15 2.63078 15 2.86082V8.5528C15 8.56689 14.9991 8.58092 14.9972 8.59483C14.9988 8.60767 14.9996 8.62061 14.9996 8.6336V11.0386C14.9996 11.8729 14.3219 12.5481 13.4877 12.5481H13.1896C13.0275 13.3796 12.2938 14.0065 11.4146 14.0065C10.5351 14.0065 9.80135 13.3793 9.63941 12.5478H7.22666C7.06465 13.3794 6.33091 14.0065 5.45154 14.0065C4.5721 14.0065 3.83832 13.3793 3.67638 12.5478ZM6.58312 10.7929C6.27325 10.5445 5.8797 10.3959 5.45154 10.3959C4.55715 10.3959 3.8134 11.0446 3.66862 11.8973H2.5119C2.39893 11.8974 2.28704 11.8754 2.18261 11.8323C2.07818 11.7892 1.98326 11.726 1.90327 11.6462C1.82328 11.5665 1.75979 11.4717 1.71642 11.3674C1.67305 11.2631 1.65065 11.1513 1.65051 11.0383V7.88876C1.65062 7.69829 1.68828 7.50971 1.76135 7.33381C1.83441 7.15791 1.94145 6.99815 2.07633 6.86366L4.03735 4.9067C4.30975 4.63457 4.68 4.4817 5.06597 4.4817H7.48913V8.04136C7.48935 8.28479 7.58624 8.51817 7.75849 8.69017C7.93075 8.86218 8.16428 8.95872 8.40771 8.95858H14.3491V11.0383C14.3489 11.1513 14.3265 11.2631 14.2831 11.3673C14.2397 11.4716 14.1762 11.5663 14.0962 11.6461C14.0162 11.7258 13.9213 11.789 13.8169 11.8321C13.7125 11.8751 13.6006 11.8972 13.4877 11.897H13.1974C13.0526 11.0445 12.3091 10.3959 11.4146 10.3959C10.5203 10.3959 9.77659 11.0445 9.63169 11.897H7.25766C7.1809 11.4812 6.96084 11.1054 6.63574 10.835C6.61844 10.8207 6.60089 10.8066 6.58312 10.7929ZM10.2689 12.0347C10.2609 12.0897 10.2567 12.1453 10.2567 12.2011C10.2567 12.8383 10.7744 13.356 11.4146 13.356C11.5664 13.3563 11.7169 13.3266 11.8573 13.2687C11.9977 13.2108 12.1253 13.1258 12.2328 13.0186C12.3404 12.9114 12.4258 12.784 12.4841 12.6438C12.5349 12.5216 12.5643 12.3916 12.5712 12.2597C12.5698 12.2475 12.5691 12.2352 12.5691 12.2228C12.5691 11.5856 12.0514 11.0679 11.4112 11.0679C11.1045 11.0675 10.8103 11.1889 10.5932 11.4055C10.4209 11.5773 10.3083 11.7977 10.2689 12.0347ZM5.16001 6.11363C5.16011 6.02737 5.12595 5.9446 5.06503 5.88353C5.00407 5.8225 4.92136 5.78819 4.8351 5.78814C4.74884 5.78809 4.66609 5.8223 4.60506 5.88326L3.39971 7.08562C3.33865 7.14658 3.3043 7.22931 3.30422 7.31559C3.30415 7.40188 3.33835 7.48466 3.39931 7.54573C3.46027 7.60679 3.54299 7.64114 3.62927 7.64122C3.71556 7.6413 3.79834 7.60709 3.85941 7.54613L5.06448 6.3435C5.12555 6.28257 5.15991 6.19989 5.16001 6.11363ZM8.21955 2.70749C8.26022 2.66683 8.31537 2.64398 8.37288 2.64398H14.1326C14.1901 2.64398 14.2453 2.66683 14.286 2.70749C14.3266 2.74816 14.3495 2.80331 14.3495 2.86082V8.22754H8.37288C8.31537 8.22754 8.26022 8.2047 8.21955 8.16403C8.17889 8.12337 8.15604 8.06822 8.15604 8.01071V2.86082C8.15604 2.80331 8.17889 2.74816 8.21955 2.70749Z" fill="black"/>
<path d="M6.18645 11.3088L6.27834 11.1968L6.27492 11.1941L6.18645 11.3088ZM5.47823 11.0679L5.47806 11.2127H5.47823V11.0679ZM4.32032 12.2225L4.1755 12.2223V12.2225H4.32032ZM4.30107 12.3328L4.16482 12.2837L4.15335 12.3155L4.15718 12.3491L4.30107 12.3328ZM5.45154 13.356L5.45174 13.2112H5.45154V13.356ZM5.89415 13.2686L5.94939 13.4025L5.94939 13.4025L5.89415 13.2686ZM6.60945 12.2014L6.75427 12.2016V12.2014H6.60945ZM3.67638 12.5478L3.81854 12.5201L3.79573 12.403H3.67638V12.5478ZM2.5119 12.5478V12.403H2.51177L2.5119 12.5478ZM1.44348 12.1064L1.54579 12.0039H1.54579L1.44348 12.1064ZM1 11.0389H0.855176L0.855176 11.039L1 11.0389ZM1.6169 6.40342L1.71917 6.50597L1.71921 6.50593L1.6169 6.40342ZM3.57765 4.44647V4.30164H3.51775L3.47535 4.34396L3.57765 4.44647ZM3.57793 4.44647V4.59129H3.63781L3.6802 4.549L3.57793 4.44647ZM5.06597 3.83119V3.68636H5.06597L5.06597 3.83119ZM7.50553 3.83119V3.97601H7.65035V3.83119H7.50553ZM7.75957 2.24751L7.86198 2.34992L7.75957 2.24751ZM14.7459 2.24751L14.6435 2.34992L14.7459 2.24751ZM14.9972 8.59483L14.8536 8.57611L14.8513 8.59409L14.8535 8.61209L14.9972 8.59483ZM13.1896 12.5481V12.4032H13.0703L13.0475 12.5203L13.1896 12.5481ZM9.63941 12.5478L9.78157 12.5201L9.75875 12.403H9.63941V12.5478ZM7.22666 12.5478V12.403H7.10732L7.08451 12.5201L7.22666 12.5478ZM6.58312 10.7929L6.49252 10.9059L6.49473 10.9076L6.58312 10.7929ZM3.66862 11.8973V12.0421H3.79093L3.8114 11.9215L3.66862 11.8973ZM2.5119 11.8973V11.7524L2.51167 11.7524L2.5119 11.8973ZM2.18261 11.8323L2.12739 11.9662L2.12739 11.9662L2.18261 11.8323ZM1.90327 11.6462L1.80101 11.7488H1.80101L1.90327 11.6462ZM1.71642 11.3674L1.58269 11.423L1.58269 11.423L1.71642 11.3674ZM1.65051 11.0383H1.50569L1.50569 11.0385L1.65051 11.0383ZM1.65051 7.88876L1.50569 7.88868V7.88876H1.65051ZM2.07633 6.86366L2.17858 6.96621L2.17863 6.96617L2.07633 6.86366ZM4.03735 4.9067L4.13965 5.00921L4.1397 5.00916L4.03735 4.9067ZM7.48913 4.4817H7.63395V4.33688H7.48913V4.4817ZM7.48913 8.04136H7.34431V8.04149L7.48913 8.04136ZM8.40771 8.95858V8.81376H8.40762L8.40771 8.95858ZM14.3491 8.95858H14.4939V8.81376H14.3491V8.95858ZM14.3491 11.0383L14.4939 11.0385V11.0383H14.3491ZM14.2831 11.3673L14.1494 11.3117V11.3117L14.2831 11.3673ZM14.0962 11.6461L14.1984 11.7486L14.1984 11.7486L14.0962 11.6461ZM13.8169 11.8321L13.8721 11.9659L13.8721 11.9659L13.8169 11.8321ZM13.4877 11.897L13.4879 11.7522H13.4877V11.897ZM13.1974 11.897L13.0547 11.9213L13.0752 12.0418H13.1974V11.897ZM9.63169 11.897V12.0418H9.75398L9.77447 11.9213L9.63169 11.897ZM7.25766 11.897L7.11524 11.9233L7.13712 12.0418H7.25766V11.897ZM6.63574 10.835L6.72835 10.7237H6.72835L6.63574 10.835ZM10.2689 12.0347L10.126 12.0109L10.1256 12.0136L10.2689 12.0347ZM10.2567 12.2011L10.1118 12.2009V12.2011H10.2567ZM11.4146 13.356L11.4148 13.2112H11.4146V13.356ZM12.2328 13.0186L12.1306 12.916L12.1306 12.916L12.2328 13.0186ZM12.4841 12.6438L12.3504 12.5882L12.4841 12.6438ZM12.5712 12.2597L12.7158 12.2672L12.7164 12.2552L12.7151 12.2433L12.5712 12.2597ZM11.4112 11.0679L11.411 11.2127H11.4112V11.0679ZM10.5932 11.4055L10.4909 11.3029H10.4909L10.5932 11.4055ZM5.06503 5.88353L5.16756 5.78125L5.16749 5.78118L5.06503 5.88353ZM5.16001 6.11363L5.01519 6.11346L5.16001 6.11363ZM4.8351 5.78814L4.83501 5.93296L4.8351 5.78814ZM4.60506 5.88326L4.70734 5.98579L4.7074 5.98573L4.60506 5.88326ZM3.39971 7.08562L3.29744 6.98309L3.2974 6.98313L3.39971 7.08562ZM3.30422 7.31559L3.44905 7.31572L3.30422 7.31559ZM3.85941 7.54613L3.75711 7.44362L3.75709 7.44364L3.85941 7.54613ZM5.06448 6.3435L4.9622 6.24098L4.96218 6.24099L5.06448 6.3435ZM8.21955 2.70749L8.11715 2.60509L8.11715 2.60509L8.21955 2.70749ZM14.286 2.70749L14.3884 2.60509L14.3884 2.60508L14.286 2.70749ZM14.3495 8.22754V8.37237H14.4943V8.22754H14.3495ZM8.21955 8.16403L8.11715 8.26644L8.11715 8.26644L8.21955 8.16403ZM6.27492 11.1941C6.05475 11.0242 5.77824 10.923 5.47823 10.923V11.2127C5.71208 11.2127 5.92678 11.2913 6.09798 11.4234L6.27492 11.1941ZM5.4784 10.923C5.13336 10.9226 4.80228 11.0593 4.55796 11.3029L4.76248 11.508C4.95243 11.3186 5.20982 11.2124 5.47806 11.2127L5.4784 10.923ZM4.55796 11.3029C4.31363 11.5466 4.17606 11.8772 4.1755 12.2223L4.46515 12.2228C4.46559 11.9545 4.57254 11.6974 4.76248 11.508L4.55796 11.3029ZM4.1755 12.2225C4.1755 12.2436 4.17182 12.2642 4.16482 12.2837L4.43732 12.3818C4.45556 12.3312 4.46515 12.2774 4.46515 12.2225H4.1755ZM4.15718 12.3491C4.23092 12.997 4.78177 13.5008 5.45154 13.5008V13.2112C4.93033 13.2112 4.5022 12.8192 4.44497 12.3164L4.15718 12.3491ZM5.45133 13.5008C5.6222 13.5011 5.79144 13.4677 5.94939 13.4025L5.83892 13.1347C5.71613 13.1854 5.58457 13.2114 5.45174 13.2112L5.45133 13.5008ZM5.94939 13.4025C6.10734 13.3373 6.25091 13.2417 6.37189 13.1211L6.16737 12.916C6.07332 13.0097 5.96171 13.0841 5.83892 13.1347L5.94939 13.4025ZM6.37189 13.1211C6.49288 13.0004 6.58892 12.8571 6.65453 12.6993L6.38709 12.5881C6.33609 12.7108 6.26143 12.8222 6.16737 12.916L6.37189 13.1211ZM6.65453 12.6993C6.72014 12.5416 6.75403 12.3724 6.75427 12.2016L6.46463 12.2012C6.46444 12.334 6.43809 12.4655 6.38709 12.5881L6.65453 12.6993ZM6.75427 12.2014C6.75427 11.7968 6.56873 11.435 6.27829 11.1968L6.09461 11.4208C6.32093 11.6064 6.46463 11.8873 6.46463 12.2014H6.75427ZM3.67638 12.403H2.5119V12.6926H3.67638V12.403ZM2.51177 12.403C2.1496 12.4033 1.80213 12.2597 1.54579 12.0039L1.34118 12.2089C1.65189 12.519 2.07305 12.693 2.51203 12.6926L2.51177 12.403ZM1.54579 12.0039C1.28944 11.7481 1.14521 11.4009 1.14482 11.0387L0.855176 11.039C0.855649 11.478 1.03047 11.8988 1.34118 12.2089L1.54579 12.0039ZM1.14482 11.0389V7.8893H0.855176V11.0389H1.14482ZM1.14482 7.8893C1.14482 7.37027 1.35147 6.87265 1.71917 6.50597L1.51464 6.30088C1.0925 6.72185 0.855176 7.29324 0.855176 7.8893H1.14482ZM1.71921 6.50593L3.67996 4.54897L3.47535 4.34396L1.5146 6.30092L1.71921 6.50593ZM3.57765 4.59129H3.57793V4.30164H3.57765V4.59129ZM3.6802 4.549C4.04805 4.18208 4.54641 3.97602 5.06597 3.97601L5.06597 3.68636C4.46971 3.68637 3.8978 3.92285 3.47565 4.34393L3.6802 4.549ZM5.06597 3.97601H7.50553V3.68636H5.06597V3.97601ZM7.65035 3.83119V2.86082H7.36071V3.83119H7.65035ZM7.65035 2.86082C7.65035 2.66919 7.72648 2.48542 7.86198 2.34992L7.65717 2.1451C7.46735 2.33492 7.36071 2.59237 7.36071 2.86082H7.65035ZM7.86198 2.34992C7.99748 2.21442 8.18125 2.13829 8.37288 2.13829V1.84865C8.10443 1.84865 7.84698 1.95528 7.65717 2.1451L7.86198 2.34992ZM8.37288 2.13829H14.1326V1.84865H8.37288V2.13829ZM14.1326 2.13829C14.3242 2.13829 14.508 2.21442 14.6435 2.34992L14.8483 2.1451C14.6585 1.95528 14.4011 1.84865 14.1326 1.84865V2.13829ZM14.6435 2.34992C14.779 2.48542 14.8551 2.66919 14.8551 2.86082H15.1448C15.1448 2.59237 15.0382 2.33492 14.8483 2.1451L14.6435 2.34992ZM14.8551 2.86082V8.5528H15.1448V2.86082H14.8551ZM14.8551 8.5528C14.8551 8.56062 14.8546 8.5684 14.8536 8.57611L15.1409 8.61355C15.1435 8.59345 15.1448 8.57316 15.1448 8.5528H14.8551ZM14.8535 8.61209C14.8543 8.61921 14.8547 8.62639 14.8547 8.6336H15.1444C15.1444 8.61483 15.1433 8.59612 15.141 8.57757L14.8535 8.61209ZM14.8547 8.6336V11.0386H15.1444V8.6336H14.8547ZM14.8547 11.0386C14.8547 11.7926 14.2423 12.4032 13.4877 12.4032V12.6929C14.4016 12.6929 15.1444 11.9532 15.1444 11.0386H14.8547ZM13.4877 12.4032H13.1896V12.6929H13.4877V12.4032ZM13.0475 12.5203C12.8984 13.2849 12.2234 13.8617 11.4146 13.8617V14.1514C12.3642 14.1514 13.1566 13.4742 13.3318 12.5758L13.0475 12.5203ZM11.4146 13.8617C10.6055 13.8617 9.93046 13.2847 9.78157 12.5201L9.49726 12.5755C9.67223 13.474 10.4647 14.1514 11.4146 14.1514V13.8617ZM9.63941 12.403H7.22666V12.6926H9.63941V12.403ZM7.08451 12.5201C6.93554 13.2848 6.2605 13.8617 5.45154 13.8617V14.1514C6.40131 14.1514 7.19376 13.4741 7.36881 12.5755L7.08451 12.5201ZM5.45154 13.8617C4.64251 13.8617 3.96743 13.2847 3.81854 12.5201L3.53423 12.5755C3.7092 13.474 4.5017 14.1514 5.45154 14.1514V13.8617ZM5.45154 10.5407C5.84561 10.5407 6.20745 10.6774 6.49253 10.9059L6.67371 10.6799C6.33905 10.4116 5.91378 10.2511 5.45154 10.2511V10.5407ZM3.8114 11.9215C3.94452 11.1376 4.62872 10.5407 5.45154 10.5407V10.2511C4.48558 10.2511 3.68229 10.9517 3.52584 11.873L3.8114 11.9215ZM2.5119 12.0421H3.66862V11.7524H2.5119V12.0421ZM2.12739 11.9662C2.24941 12.0165 2.38014 12.0423 2.51213 12.0421L2.51167 11.7524C2.41773 11.7526 2.32468 11.7342 2.23783 11.6984L2.12739 11.9662ZM1.80101 11.7488C1.89447 11.842 2.00538 11.9159 2.12739 11.9662L2.23783 11.6984C2.15099 11.6626 2.07205 11.61 2.00553 11.5437L1.80101 11.7488ZM1.58269 11.423C1.63337 11.5449 1.70755 11.6556 1.80101 11.7488L2.00553 11.5437C1.93901 11.4774 1.88621 11.3986 1.85014 11.3118L1.58269 11.423ZM1.50569 11.0385C1.50585 11.1705 1.53202 11.3012 1.58269 11.423L1.85014 11.3118C1.81408 11.2251 1.79545 11.1321 1.79534 11.0381L1.50569 11.0385ZM1.50569 7.88876V11.0383H1.79534V7.88876H1.50569ZM1.6276 7.27825C1.54723 7.47174 1.5058 7.67917 1.50569 7.88868L1.79534 7.88884C1.79543 7.71741 1.82933 7.54768 1.89509 7.38937L1.6276 7.27825ZM1.97407 6.76111C1.82571 6.90904 1.70797 7.08477 1.6276 7.27825L1.89509 7.38937C1.96085 7.23105 2.05719 7.08726 2.17858 6.96621L1.97407 6.76111ZM3.93505 4.80419L1.97403 6.76115L2.17863 6.96617L4.13965 5.00921L3.93505 4.80419ZM5.06597 4.33688C4.64176 4.33688 4.23466 4.50488 3.93499 4.80425L4.1397 5.00916C4.38485 4.76426 4.71824 4.62652 5.06597 4.62652V4.33688ZM7.48913 4.33688H5.06597V4.62652H7.48913V4.33688ZM7.63395 8.04136V4.4817H7.34431V8.04136H7.63395ZM7.86083 8.58769C7.71574 8.44282 7.63413 8.24626 7.63395 8.04123L7.34431 8.04149C7.34455 8.32332 7.45673 8.59351 7.65616 8.79265L7.86083 8.58769ZM8.40762 8.81376C8.20259 8.81388 8.00591 8.73256 7.86083 8.58769L7.65616 8.79265C7.8556 8.99179 8.12596 9.10357 8.40779 9.1034L8.40762 8.81376ZM14.3491 8.81376H8.40771V9.1034H14.3491V8.81376ZM14.4939 11.0383V8.95858H14.2042V11.0383H14.4939ZM14.4168 11.423C14.4675 11.3011 14.4937 11.1705 14.4939 11.0385L14.2042 11.0381C14.2041 11.132 14.1854 11.225 14.1494 11.3117L14.4168 11.423ZM14.1984 11.7486C14.2919 11.6555 14.3661 11.5448 14.4168 11.423L14.1494 11.3117C14.1133 11.3984 14.0605 11.4772 13.994 11.5435L14.1984 11.7486ZM13.8721 11.9659C13.9941 11.9156 14.105 11.8418 14.1984 11.7486L13.994 11.5435C13.9274 11.6098 13.8485 11.6624 13.7617 11.6982L13.8721 11.9659ZM13.4874 12.0418C13.6194 12.042 13.7501 12.0162 13.8721 11.9659L13.7617 11.6982C13.6748 11.734 13.5818 11.7523 13.4879 11.7522L13.4874 12.0418ZM13.1974 12.0418H13.4877V11.7522H13.1974V12.0418ZM11.4146 10.5407C12.2375 10.5407 12.9215 11.1374 13.0547 11.9213L13.3402 11.8727C13.1837 10.9516 12.3807 10.2511 11.4146 10.2511V10.5407ZM9.77447 11.9213C9.90769 11.1375 10.5918 10.5407 11.4146 10.5407V10.2511C10.4487 10.2511 9.64549 10.9515 9.48892 11.8727L9.77447 11.9213ZM7.25766 12.0418H9.63169V11.7522H7.25766V12.0418ZM6.54314 10.9464C6.84219 11.1951 7.04463 11.5408 7.11524 11.9233L7.40007 11.8707C7.31717 11.4216 7.07948 11.0157 6.72835 10.7237L6.54314 10.9464ZM6.49473 10.9076C6.51107 10.9202 6.52721 10.9332 6.54314 10.9464L6.72835 10.7237C6.70966 10.7082 6.69071 10.693 6.67151 10.6782L6.49473 10.9076ZM10.1256 12.0136C10.1166 12.0755 10.1119 12.1381 10.1118 12.2009L10.4015 12.2013C10.4015 12.1525 10.4052 12.1038 10.4122 12.0557L10.1256 12.0136ZM10.1118 12.2011C10.1118 12.9185 10.6946 13.5008 11.4146 13.5008V13.2112C10.8541 13.2112 10.4015 12.7581 10.4015 12.2011H10.1118ZM11.4143 13.5008C11.5852 13.5011 11.7545 13.4677 11.9125 13.4026L11.8021 13.1348C11.6792 13.1855 11.5477 13.2114 11.4148 13.2112L11.4143 13.5008ZM11.9125 13.4026C12.0705 13.3374 12.2141 13.2418 12.3351 13.1212L12.1306 12.916C12.0365 13.0098 11.9249 13.0842 11.8021 13.1348L11.9125 13.4026ZM12.3351 13.1212C12.4561 13.0005 12.5522 12.8572 12.6178 12.6994L12.3504 12.5882C12.2993 12.7108 12.2247 12.8222 12.1306 12.916L12.3351 13.1212ZM12.6178 12.6994C12.675 12.5619 12.7081 12.4157 12.7158 12.2672L12.4266 12.2522C12.4206 12.3676 12.3948 12.4813 12.3504 12.5882L12.6178 12.6994ZM12.7151 12.2433C12.7143 12.2365 12.7139 12.2296 12.7139 12.2228H12.4243C12.4243 12.2407 12.4253 12.2586 12.4273 12.2762L12.7151 12.2433ZM12.7139 12.2228C12.7139 11.5053 12.1311 10.923 11.4112 10.923V11.2127C11.9716 11.2127 12.4243 11.6658 12.4243 12.2228H12.7139ZM11.4113 10.923C11.0663 10.9226 10.7352 11.0593 10.4909 11.3029L10.6954 11.508C10.8854 11.3186 11.1428 11.2124 11.411 11.2127L11.4113 10.923ZM10.4909 11.3029C10.297 11.4962 10.1704 11.7443 10.1261 12.0109L10.4118 12.0584C10.4463 11.8512 10.5447 11.6583 10.6954 11.508L10.4909 11.3029ZM4.9625 5.98581C4.99629 6.01969 5.01524 6.06561 5.01519 6.11346L5.30484 6.1138C5.30498 5.98913 5.2556 5.86951 5.16756 5.78125L4.9625 5.98581ZM4.83501 5.93296C4.88286 5.93299 4.92875 5.95203 4.96256 5.98588L5.16749 5.78118C5.07938 5.69298 4.95985 5.64339 4.83518 5.64332L4.83501 5.93296ZM4.7074 5.98573C4.74126 5.95192 4.78716 5.93293 4.83501 5.93296L4.83518 5.64332C4.71052 5.64324 4.59093 5.69269 4.50272 5.78079L4.7074 5.98573ZM3.50199 7.18816L4.70734 5.98579L4.50278 5.78073L3.29744 6.98309L3.50199 7.18816ZM3.44905 7.31572C3.44909 7.26784 3.46815 7.22194 3.50203 7.18812L3.2974 6.98313C3.20915 7.07122 3.15951 7.19077 3.1594 7.31546L3.44905 7.31572ZM3.5018 7.44341C3.46798 7.40953 3.449 7.3636 3.44905 7.31572L3.1594 7.31546C3.15929 7.44016 3.20872 7.55979 3.29681 7.64804L3.5018 7.44341ZM3.6294 7.4964C3.58153 7.49635 3.53563 7.47729 3.5018 7.44341L3.29681 7.64804C3.38491 7.73629 3.50445 7.78593 3.62915 7.78604L3.6294 7.4964ZM3.75709 7.44364C3.72321 7.47746 3.67728 7.49644 3.6294 7.4964L3.62915 7.78604C3.75384 7.78615 3.87348 7.73672 3.96173 7.64863L3.75709 7.44364ZM4.96218 6.24099L3.75711 7.44362L3.96171 7.64864L5.16679 6.44601L4.96218 6.24099ZM5.01519 6.11346C5.01513 6.16131 4.99607 6.20718 4.9622 6.24098L5.16677 6.44602C5.25503 6.35797 5.30469 6.23847 5.30484 6.1138L5.01519 6.11346ZM8.37288 2.49916C8.27696 2.49916 8.18497 2.53726 8.11715 2.60509L8.32196 2.8099C8.33546 2.79639 8.35378 2.78881 8.37288 2.78881V2.49916ZM14.1326 2.49916H8.37288V2.78881H14.1326V2.49916ZM14.3884 2.60508C14.3205 2.53726 14.2285 2.49916 14.1326 2.49916V2.78881C14.1517 2.78881 14.17 2.79639 14.1835 2.8099L14.3884 2.60508ZM14.4943 2.86082C14.4943 2.7649 14.4562 2.67291 14.3884 2.60509L14.1835 2.8099C14.197 2.8234 14.2046 2.84172 14.2046 2.86082H14.4943ZM14.4943 8.22754V2.86082H14.2046V8.22754H14.4943ZM8.37288 8.37237H14.3495V8.08272H8.37288V8.37237ZM8.11715 8.26644C8.18497 8.33427 8.27696 8.37237 8.37288 8.37237V8.08272C8.35378 8.08272 8.33546 8.07513 8.32196 8.06163L8.11715 8.26644ZM8.01122 8.01071C8.01122 8.10663 8.04932 8.19862 8.11715 8.26644L8.32196 8.06163C8.30845 8.04812 8.30087 8.02981 8.30087 8.01071H8.01122ZM8.01122 2.86082V8.01071H8.30087V2.86082H8.01122ZM8.11715 2.60509C8.04932 2.67291 8.01122 2.7649 8.01122 2.86082H8.30087C8.30087 2.84172 8.30845 2.8234 8.32196 2.8099L8.11715 2.60509Z" fill="black" mask="url(#path-1-outside-1_1408_306)"/>
</svg>
