<svg width="16" height="16" viewBox="0 0 16 16" fill="none" xmlns="http://www.w3.org/2000/svg">
<path d="M3.99994 2V14H8.49989V15H3.99528C3.51999 15 2.99994 14.6627 2.99994 14.0781V1.92191C2.99994 1.33727 3.51999 1 3.99528 1H8.86578C9.13431 1 9.39156 1.108 9.57961 1.29969L13.2137 5.004C13.3971 5.19096 13.4999 5.44241 13.4999 5.70431V7.5H12.4999V6.01275H8.49997V2H3.99994ZM9.49997 2.64645V5.01275H11.8214L9.49997 2.64645Z" fill="#999999"/>
<path d="M11.4999 8.42065C10.4291 8.42065 9.49989 9.24178 9.49989 10.3222H10.4999C10.4999 9.85692 10.9164 9.42065 11.4999 9.42065C12.0834 9.42065 12.4999 9.85692 12.4999 10.3222C12.4999 10.6216 12.2198 10.9812 11.7811 11.1477L11.7786 11.1487C11.3355 11.3196 10.9999 11.7405 10.9999 12.2599V12.9207H11.9999V12.2599C11.9999 12.1949 12.0413 12.1195 12.1375 12.0821C12.7955 11.8317 13.4999 11.1914 13.4999 10.3222C13.4999 9.24178 12.5707 8.42065 11.4999 8.42065Z" fill="#999999"/>
<path d="M11.4998 13.8C11.1684 13.8 10.8998 14.0686 10.8998 14.4C10.8998 14.7314 11.1684 15 11.4998 15C11.8312 15 12.0998 14.7314 12.0998 14.4C12.0998 14.0686 11.8312 13.8 11.4998 13.8Z" fill="#999999"/>
</svg>
