<svg width="16" height="16" viewBox="0 0 16 16" fill="none" xmlns="http://www.w3.org/2000/svg">
<path d="M3.57121 1C3.09592 1 2.57587 1.33727 2.57587 1.92191V14.0781C2.57587 14.6627 3.09592 15 3.57121 15H12.5047C12.98 15 13.5001 14.6627 13.5001 14.0781V5.70431C13.5001 5.44241 13.3973 5.19096 13.2139 5.004L9.57979 1.29969C9.39173 1.108 9.13449 1 8.86595 1H3.57121ZM3.57587 11.3636V2H8.57598V6.0092H12.5001V10.2878L10.5759 8.3636L7.57587 11.3636L5.57587 9.3636L3.57587 11.3636ZM3.57587 12.6364L5.57587 10.6364L6.93947 12L4.93947 14H3.57587V12.6364ZM10.5759 9.6364L12.5001 11.5606V14H6.21226L10.5759 9.6364ZM11.8181 5.0092H9.57598V2.72374L11.8181 5.0092Z" fill="#999999"/>
</svg>
