<svg width="16" height="16" viewBox="0 0 16 16" fill="none" xmlns="http://www.w3.org/2000/svg">
<path d="M4 14V2H8.50011V6.01275H12.5V8H13.5V5.70431C13.5 5.44241 13.3973 5.19096 13.2139 5.004L9.57975 1.29969C9.3917 1.108 9.13445 1 8.86591 1H3.99534C3.52005 1 3 1.33727 3 1.92191V14.0781C3 14.6627 3.52005 15 3.99534 15H7.50003V14H4ZM11.8216 5.01275H9.50011V2.64645L11.8216 5.01275Z" fill="#999999"/>
<path fill-rule="evenodd" clip-rule="evenodd" d="M12.033 13.4429C11.725 13.607 11.3734 13.7 11 13.7C9.78497 13.7 8.8 12.715 8.8 11.5C8.8 11.005 8.96349 10.5482 9.23941 10.1806L12.033 13.4429ZM12.6594 12.9445L9.82792 9.63788C10.1673 9.42385 10.5692 9.3 11 9.3C12.215 9.3 13.2 10.285 13.2 11.5C13.2 12.0528 12.9961 12.558 12.6594 12.9445ZM14 11.5C14 13.1569 12.6569 14.5 11 14.5C9.34315 14.5 8 13.1569 8 11.5C8 9.84315 9.34315 8.5 11 8.5C12.6569 8.5 14 9.84315 14 11.5Z" fill="#999999"/>
</svg>
