<svg width="21" height="21" viewBox="0 0 21 21" fill="none" xmlns="http://www.w3.org/2000/svg">
<path fill-rule="evenodd" clip-rule="evenodd" d="M12.2667 4.80525C12.2667 4.80528 12.2667 4.80531 12.2667 4.80534V5.07176V7.47028H13.3333V12.0009H12.2667V13.3336H5.06654C4.32978 13.3336 3.7334 12.7389 3.7334 12.0024V12.0009H2.66666V7.47028H3.73333V7.46405H3.7334V2.93968V2.67317H8.80006C8.94734 2.67317 9.06673 2.79249 9.06673 2.93968C9.06673 3.08687 8.94734 3.20619 8.80006 3.20619H4.26673V7.47028H11.7324L11.732 5.33827H9.60006V2.93968C9.60006 2.78954 9.71929 2.66979 9.86785 2.66672C9.92338 2.66597 9.96275 2.67816 10.005 2.69818C10.0385 2.71408 10.0725 2.73578 10.1143 2.76592C10.1774 2.81133 12.1665 4.59592 12.1824 4.61074C12.2384 4.66319 12.2667 4.73413 12.2667 4.80525ZM11.6063 4.80525C11.3893 4.60835 10.8983 4.16417 10.1334 3.4727V4.80525H11.6063ZM11.7333 12.0009H8H4.26673V12.0024C4.26673 12.4442 4.62406 12.8005 5.06654 12.8005H11.7334L11.7333 12.0009Z" fill="#C9353F"/>
<path d="M4.08008 8.26666V11.1227H4.51608V9.84266H5.93608V9.47066H4.51608V8.63866H6.02008V8.26666H4.08008Z" fill="white"/>
<path d="M6.4123 8.26666V11.1227H6.8443V8.26666H6.4123Z" fill="white"/>
<path d="M7.41211 8.26666V11.1227H9.41611V10.7507H7.84411V8.26666H7.41211Z" fill="white"/>
<path d="M9.77539 8.26666V11.1227H11.8954V10.7507H10.2114V9.84266H11.7314V9.47066H10.2114V8.63866H11.8274V8.26666H9.77539Z" fill="white"/>
</svg>
