<svg width="16" height="16" viewBox="0 0 16 16" fill="none" xmlns="http://www.w3.org/2000/svg">
<path d="M3.99996 2V14H8.49991V15H3.99531C3.52001 15 2.99996 14.6627 2.99996 14.0781V1.92191C2.99996 1.33727 3.52002 1 3.99531 1H8.8658C9.13433 1 9.39158 1.108 9.57964 1.29969L13.2138 5.004C13.3972 5.19096 13.4999 5.44241 13.4999 5.70431V7.5H12.4999V6.01275H8.5V2H3.99996ZM9.5 2.64645V5.01275H11.8215L9.5 2.64645Z" fill="#999999"/>
<path fill-rule="evenodd" clip-rule="evenodd" d="M12.2 10.5C12.2 11.4389 11.4389 12.2 10.5 12.2C9.56112 12.2 8.8 11.4389 8.8 10.5C8.8 9.56112 9.56112 8.8 10.5 8.8C11.4389 8.8 12.2 9.56112 12.2 10.5ZM11.9622 12.528C11.5511 12.825 11.046 13 10.5 13C9.11929 13 8 11.8807 8 10.5C8 9.11929 9.11929 8 10.5 8C11.8807 8 13 9.11929 13 10.5C13 11.046 12.825 11.5511 12.5279 11.9623L14.2828 13.7172L13.7172 14.2828L11.9622 12.528Z" fill="#999999"/>
</svg>
