<svg width="16" height="16" viewBox="0 0 16 16" fill="none" xmlns="http://www.w3.org/2000/svg">
<path d="M10.5 10.5H4.5V11.5H10.5V10.5Z" fill="#999999"/>
<path d="M2 0.921911C2 0.337268 2.52005 0 2.99534 0L8.2929 6.88434e-05C8.55812 7.22706e-05 8.81246 0.105429 9 0.292962L12.7071 4.00007C12.8946 4.18761 13 4.44196 13 4.70718V13.0782C13 13.6628 12.4799 14.0001 12.0047 14.0001L2.99534 14C2.52005 14 2 13.6627 2 13.0781V0.921911ZM3 1V13L12 13.0001V5.01283H8.00005V1.00007L3 1ZM9.00005 4.01283H11.3056L9.00005 1.70722V4.01283Z" fill="#999999"/>
</svg>
