<svg width="16" height="16" viewBox="0 0 16 16" fill="none" xmlns="http://www.w3.org/2000/svg">
<path fill-rule="evenodd" clip-rule="evenodd" d="M11.7922 2.59376H4.19829C3.88763 2.59376 3.63578 2.84561 3.63578 3.15627V3.43752C3.63578 3.59286 3.76171 3.71878 3.91704 3.71878H12.0734V2.87502C12.0734 2.71969 11.9475 2.59376 11.7922 2.59376ZM4.19829 1.75C3.42163 1.75 2.79202 2.37961 2.79202 3.15627V3.4366H2.79169V5.12482H2.79193V14.1249C2.79193 14.7463 3.29562 15.2499 3.91695 15.2499H12.9171C13.5384 15.2499 14.0421 14.7463 14.0421 14.1249V5.12479C14.0421 4.50349 13.5385 3.99983 12.9172 3.99978V3.71878V2.87502C12.9172 2.25369 12.4135 1.75 11.7922 1.75H4.19829ZM12.9171 4.84354H3.63569V14.1249C3.63569 14.2803 3.76161 14.4062 3.91695 14.4062H12.9171C13.0724 14.4062 13.1983 14.2803 13.1983 14.1249V5.12479C13.1983 4.96946 13.0724 4.84354 12.9171 4.84354Z" fill="black"/>
<path fill-rule="evenodd" clip-rule="evenodd" d="M8.00927 9.36993L5.9176 7.27827L6.51423 6.68164L8.46618 8.63359L10.4181 6.68164L11.0148 7.27827L8.9231 9.36993H10.7174V10.2137H8.88709V10.7762H10.7164V11.62H8.88709V13.45H8.04332V11.62H6.21592V10.7762H8.04332V10.2137H6.21692V9.36993H8.00927Z" fill="black"/>
</svg>
