<svg width="16" height="16" viewBox="0 0 16 16" fill="none" xmlns="http://www.w3.org/2000/svg">
<path d="M1.5 3.5C1.5 2.94771 1.94772 2.5 2.5 2.5H5.42857H5.5906L5.72183 2.59503L7.66202 4H13.5C14.0523 4 14.5 4.44772 14.5 5V13C14.5 13.5523 14.0523 14 13.5 14H2.5C1.94772 14 1.5 13.5523 1.5 13L1.5 3.5ZM5.26655 3.5L2.5 3.5V13H13.5V5H7.5H7.33798L7.20675 4.90497L5.26655 3.5Z" fill="#999999"/>
<path d="M6.1407 9.22018L7.49832 7.88764L7.53172 12.0069L8.54255 12L8.50928 7.89884L9.88204 9.23767L10.5957 8.53719L8.34445 6.34156C8.1498 6.15173 7.83914 6.15223 7.6451 6.34268L5.4248 8.52198L6.1407 9.22018Z" fill="#999999"/>
</svg>
