<svg width="16" height="16" viewBox="0 0 16 16" fill="none" xmlns="http://www.w3.org/2000/svg">
<path d="M12.5 4.20711V7H13.5V3C13.5 2.72386 13.2761 2.5 13 2.5L9 2.5V3.5H11.7929L8.64645 6.64646L9.35355 7.35357L12.5 4.20711Z" fill="#999999"/>
<path d="M3.5 11.7929V9H2.5V13C2.5 13.2761 2.72386 13.5 3 13.5L7 13.5L7 12.5H4.2071L7.35355 9.35353L6.64645 8.64643L3.5 11.7929Z" fill="#999999"/>
<path d="M4.20711 3.5L7 3.5L7 2.5L3 2.5C2.72386 2.5 2.5 2.72386 2.5 3L2.5 7L3.5 7L3.5 4.2071L3.5 3.5L4 3.5L4.20711 3.5Z" fill="#999999"/>
<path d="M11.7929 12.5L9 12.5L9 13.5L13 13.5C13.2761 13.5 13.5 13.2761 13.5 13L13.5 9L12.5 9L12.5 11.7929L12.5 12.5L12 12.5L11.7929 12.5Z" fill="#999999"/>
</svg>
