<svg width="16" height="16" viewBox="0 0 16 16" fill="none" xmlns="http://www.w3.org/2000/svg">
<path d="M8.00006 7.40741V10.9829" stroke="black" stroke-width="0.807775" stroke-linecap="round"/>
<path d="M6.01355 7.80542H7.99995H9.98635" stroke="black" stroke-width="0.807775" stroke-linecap="round"/>
<path d="M6.01355 9.79175H7.99995H9.98635" stroke="black" stroke-width="0.807775" stroke-linecap="round"/>
<path d="M6.01379 5.02515L8.00019 7.40883L9.98659 5.02515" stroke="black" stroke-width="0.807775" stroke-linecap="round"/>
<path d="M13.95 9.526L12.8296 9.64191C12.7137 9.64964 12.6055 9.72691 12.5591 9.83509C12.5127 9.93555 12.5282 10.0592 12.59 10.1519L12.6982 10.2987L7.78357 13.8302L6.46219 12.246C6.33082 12.0838 6.08354 12.0529 5.91354 12.1765C5.35717 12.5706 4.53806 13.1579 4.4067 13.2429C4.23669 13.3279 4.15169 13.5288 4.21351 13.7065C4.28306 13.9074 4.50715 14.0156 4.72352 13.9538C4.79307 13.9306 4.83943 13.9152 6.09127 13.0188L7.41266 14.6029C7.48993 14.6956 7.60584 14.7497 7.72176 14.7497C7.80676 14.7497 7.89176 14.7265 7.96131 14.6725L13.1773 10.9169L13.2546 11.0251C13.3164 11.1101 13.4169 11.1565 13.525 11.1565H13.556C13.6719 11.141 13.78 11.0715 13.8264 10.9633L14.2823 9.96646C14.3287 9.85828 14.3132 9.74236 14.2437 9.64191C14.1819 9.55691 14.066 9.51054 13.95 9.526ZM7.99222 1.24994C4.27533 1.24994 1.24619 4.1709 1.24619 7.77187C1.24619 9.51054 1.94938 11.1488 3.2244 12.3851C3.30168 12.4624 3.40213 12.501 3.51032 12.501C3.6185 12.501 3.71896 12.4624 3.79623 12.3851C3.95078 12.2306 3.95078 11.991 3.79623 11.8365C2.66803 10.7547 2.04984 9.30963 2.04984 7.77187C2.04984 4.60364 4.71579 2.02268 7.99994 2.02268C11.2841 2.02268 13.95 4.60364 13.95 7.77187C13.95 7.98824 14.1278 8.15825 14.3519 8.15825C14.576 8.15825 14.7537 7.98052 14.7537 7.77187C14.746 4.1709 11.7168 1.24994 7.99222 1.24994Z" fill="black" stroke="black" stroke-width="0.0201944"/>
</svg>
