<svg width="16" height="16" viewBox="0 0 16 16" fill="none" xmlns="http://www.w3.org/2000/svg">
<path d="M3.36451 7.05463L5.93927 7.05463" stroke="black" stroke-width="0.836542" stroke-linecap="round"/>
<path d="M4.6503 8.3432L4.6503 5.76845" stroke="black" stroke-width="0.836542" stroke-linecap="round"/>
<path d="M9.41526 7.98883C9.85982 7.98883 10.2202 7.62843 10.2202 7.18387C10.2202 6.7393 9.85982 6.37891 9.41526 6.37891C8.97069 6.37891 8.6103 6.7393 8.6103 7.18387C8.6103 7.62843 8.97069 7.98883 9.41526 7.98883Z" stroke="black" stroke-width="0.836542"/>
<path d="M12.2908 7.98883C12.7353 7.98883 13.0957 7.62843 13.0957 7.18387C13.0957 6.7393 12.7353 6.37891 12.2908 6.37891C11.8462 6.37891 11.4858 6.7393 11.4858 7.18387C11.4858 7.62843 11.8462 7.98883 12.2908 7.98883Z" stroke="black" stroke-width="0.836542"/>
<path fill-rule="evenodd" clip-rule="evenodd" d="M0.749931 4.18925C0.749931 3.23467 1.49971 2.4231 2.47016 2.4231H13.5264C14.4989 2.4231 15.2461 3.23481 15.25 4.18816L15.25 4.18925L15.25 11.8108C15.25 12.7654 14.5002 13.577 13.5298 13.577H11.7174C10.8568 13.577 10.1514 12.9328 10.0188 12.0934L9.99388 11.9382L9.99375 11.9374C9.89922 11.3381 9.40978 10.9275 8.86861 10.9275H7.13131C6.59014 10.9275 6.10071 11.3381 6.00617 11.9374L6.00604 11.9382L5.98114 12.093C5.84849 12.9323 5.14304 13.577 4.28255 13.577H2.47016C1.49971 13.577 0.749931 12.7654 0.749931 11.8108V4.18925ZM2.47016 3.29209C2.02896 3.29209 1.63033 3.67358 1.63033 4.18925V11.8108C1.63033 12.3265 2.02896 12.708 2.47016 12.708H4.28088C4.47185 12.708 4.66301 12.6362 4.81565 12.5013C4.96852 12.3663 5.07506 12.1741 5.10897 11.9592L5.10909 11.9584L5.13403 11.8034C5.2917 10.8104 6.11713 10.0585 7.12965 10.0585H8.86694C9.87941 10.0585 10.7047 10.8099 10.8625 11.8029L10.8876 11.9591C10.9216 12.174 11.0274 12.3655 11.1811 12.5015L11.182 12.5022C11.3332 12.6372 11.5236 12.708 11.7157 12.708H13.5264C13.9676 12.708 14.3663 12.3265 14.3663 11.8108V4.18925C14.3663 3.67358 13.9676 3.29209 13.5264 3.29209H2.47016Z" fill="black"/>
</svg>
