<svg width="16" height="16" viewBox="0 0 16 16" fill="none" xmlns="http://www.w3.org/2000/svg">
<path d="M14.75 9.44042V13.3549C14.7446 13.3609 14.7354 13.3659 14.7342 13.3724C14.6554 13.7836 14.2696 14.0746 13.866 14.0746H2.31855C2.20532 14.0768 2.0921 14.0705 1.97982 14.0558C1.7513 14.0207 1.55794 13.9099 1.42821 13.7191C1.3528 13.6082 1.30833 13.4778 1.24997 13.3549V9.44042C1.25454 9.43726 1.26227 9.4348 1.26315 9.43077C1.3238 9.16623 1.38216 8.90117 1.44456 8.63699C1.59292 8.00874 1.74339 7.38085 1.89245 6.75243C1.99634 6.31358 2.09759 5.87316 2.2013 5.43379C2.32446 4.91105 2.44845 4.38841 2.57325 3.8659C2.67029 3.46023 2.77822 3.05703 2.86452 2.64908C2.95628 2.21568 3.34687 1.92446 3.76892 1.92499C6.60147 1.92967 9.43401 1.93072 12.2666 1.92815C12.3242 1.92741 12.3818 1.9336 12.4379 1.94658C12.7679 2.02803 12.9973 2.22744 13.095 2.55359C13.1688 2.79934 13.2168 3.05281 13.2762 3.30295C13.3872 3.77011 13.4981 4.23716 13.6088 4.70409C13.7206 5.17382 13.8327 5.64344 13.9449 6.11295C14.0621 6.60445 14.1793 7.09636 14.2965 7.58868C14.4004 8.02167 14.5047 8.45467 14.6094 8.88766C14.6549 9.07302 14.7032 9.25646 14.75 9.44042ZM13.8296 13.1579V10.4829H2.16878V13.1579H13.8296ZM7.55122 8.07913C7.43502 8.06491 7.31374 8.05737 7.19561 8.03384C6.78428 7.95187 6.38701 7.8311 6.01629 7.62713C5.73961 7.47476 5.48982 7.28869 5.28574 7.04979C5.17453 6.92206 5.0804 6.78044 5.00572 6.6285C4.87301 6.3508 4.81113 6.05642 4.85033 5.74256C4.87151 5.55205 4.92357 5.36625 5.00449 5.19243C5.13914 4.91157 5.34428 4.68653 5.58334 4.48905C5.94861 4.18748 6.36856 3.99632 6.8226 3.87871C7.05727 3.81798 7.29809 3.78041 7.53575 3.73249V2.84375H3.76365C3.69334 3.15497 3.62302 3.46445 3.55113 3.77322C3.45234 4.19608 3.35126 4.61843 3.25107 5.04094C3.12216 5.58581 2.99296 6.13062 2.86347 6.67537C2.76415 7.09525 2.66624 7.51531 2.56657 7.93502C2.44446 8.44934 2.32142 8.96343 2.19743 9.47728C2.19128 9.50309 2.18583 9.52994 2.17985 9.55873H7.55122V8.07913ZM8.46159 3.73811C8.62542 3.76707 8.7838 3.7934 8.9413 3.82324C9.36197 3.90078 9.76448 4.05597 10.1282 4.28087C10.4741 4.49555 10.771 4.765 10.963 5.12854C11.1373 5.45907 11.201 5.81032 11.1342 6.18685C11.0651 6.57689 10.8745 6.89215 10.6014 7.1688C10.3674 7.40542 10.0928 7.57973 9.79384 7.72016C9.496 7.86135 9.18043 7.96173 8.85569 8.01857C8.71805 8.04245 8.57989 8.06298 8.44893 8.08405V9.55856H13.8171C13.8187 9.54262 13.8187 9.52657 13.8171 9.51064C13.7284 9.13815 13.6394 8.76583 13.5501 8.39369C13.4388 7.92677 13.3279 7.45978 13.2175 6.99274C13.1004 6.50123 12.9832 6.00938 12.866 5.51717C12.7682 5.10888 12.6684 4.70093 12.5714 4.29245C12.4644 3.84226 12.3589 3.39172 12.255 2.94082C12.2374 2.86516 12.2063 2.83725 12.1214 2.83743C10.9352 2.84129 9.74831 2.84006 8.56284 2.84006H8.46317L8.46159 3.73811ZM8.21092 7.176V7.18284C8.27684 7.17477 8.34346 7.17073 8.40833 7.15792C8.63561 7.11263 8.86817 7.08314 9.08737 7.01275C9.45458 6.89496 9.7905 6.7196 10.0434 6.4096C10.3168 6.0738 10.2929 5.67761 9.99897 5.35638C9.7745 5.11063 9.49237 4.95265 9.18265 4.84136C8.75144 4.68635 8.29337 4.61972 7.83581 4.64546C7.5194 4.66143 7.21248 4.70672 6.91348 4.80713C6.53151 4.93527 6.18223 5.11555 5.9291 5.44292C5.7324 5.69903 5.71184 6.01745 5.86107 6.27479C5.99168 6.50053 6.18469 6.6636 6.40793 6.79034C6.85969 7.04645 7.34801 7.17056 7.86692 7.17652C7.98241 7.17705 8.09631 7.176 8.21092 7.176Z" fill="black"/>
</svg>
