<svg width="32" height="32" viewBox="0 0 32 32" fill="none" xmlns="http://www.w3.org/2000/svg">
<rect width="32" height="32" rx="3.2" fill="#0052D9"/>
<path fill-rule="evenodd" clip-rule="evenodd" d="M15.8845 21.4976C20.1794 21.4976 23.6612 18.0159 23.6612 13.721C23.6612 9.42606 20.1794 5.94434 15.8845 5.94434C11.5896 5.94434 8.10788 9.42606 8.10788 13.721C8.10788 18.0159 11.5896 21.4976 15.8845 21.4976ZM18.1492 13.2638H16.5567V14.1374H18.1492C18.5601 14.1374 18.9197 14.497 18.9197 14.9079C18.9197 15.3189 18.6115 15.6785 18.1492 15.6785H16.5567V17.2708C16.5567 17.6817 16.1971 18.0413 15.7861 18.0413C15.3751 18.0413 15.0155 17.6817 15.0155 17.2708V15.6785H13.3716C12.9607 15.6785 12.6011 15.3189 12.6011 14.9079C12.6011 14.497 12.9607 14.1374 13.3716 14.1374H15.0155V13.2638H13.3717C12.9607 13.2638 12.6011 12.9042 12.6011 12.4932C12.6011 12.0823 12.9607 11.7227 13.3717 11.7227H14.1085L13.2175 10.6441C12.9607 10.3359 13.012 9.82218 13.3203 9.56532C13.6285 9.30847 14.1422 9.35984 14.3991 9.66806L15.7861 11.3119L17.1731 9.66806C17.43 9.35984 17.9437 9.30847 18.2519 9.56532C18.5601 9.82218 18.6115 10.3359 18.3547 10.6441L17.4402 11.7227H18.1492C18.5601 11.7227 18.9197 12.0823 18.9197 12.4932C18.9197 12.9042 18.6115 13.2638 18.1492 13.2638Z" fill="#4C86E4"/>
<path d="M25.1027 19.4267C24.5176 18.6957 23.5035 18.6145 22.8014 19.183L19.9289 21.533H14.8583C14.8193 21.533 14.8193 21.533 14.7803 21.4924C14.7803 21.4924 14.7413 21.4518 14.7413 21.4112C14.7413 21.3706 14.7803 21.3299 14.8193 21.3299H17.8617C18.7588 21.3299 19.4609 20.5584 19.4609 19.665C19.4609 18.731 18.7198 18 17.8617 18H12.6238C11.1416 18.3655 9.81542 19.6244 9.34736 20.1117H7.5C6.94772 20.1117 6.5 20.5594 6.5 21.1117V25C6.5 25.5523 6.94772 26 7.5 26H19.5255C19.7609 26 19.9887 25.917 20.1689 25.7655L24.9077 21.782C25.2587 21.4977 25.4538 21.0917 25.4928 20.645C25.5318 20.2389 25.4148 19.7922 25.1027 19.4267Z" fill="white"/>
</svg>
