<svg width="16" height="16" viewBox="0 0 16 16" fill="none" xmlns="http://www.w3.org/2000/svg">
<path fill-rule="evenodd" clip-rule="evenodd" d="M1.91275 8.10674V5.62503H11.7555V8.10674C11.7555 9.7034 10.9426 11.1102 9.70807 11.9358H9.64795L9.69622 11.936H9.70775C8.97669 12.4249 8.09781 12.7099 7.15235 12.7099H6.51591C3.97365 12.7099 1.91275 10.649 1.91275 8.10674ZM1.00012 5.13669C1.00012 4.90236 1.19008 4.7124 1.42441 4.7124H12.2438C12.4782 4.7124 12.6681 4.90236 12.6681 5.13669V6.15649H14.402C14.7322 6.15649 14.9999 6.42418 14.9999 6.75438C14.9999 9.09176 13.4522 11.0677 11.3258 11.7133C10.3144 12.8827 8.81976 13.6225 7.15235 13.6225H6.51591C3.46962 13.6225 1.00012 11.153 1.00012 8.10674V5.13669ZM12.2224 10.2826C13.2669 9.5694 13.9785 8.4045 14.0758 7.06912H12.6681V8.10674C12.6681 8.87941 12.5093 9.61498 12.2224 10.2826Z" fill="black"/>
<path d="M4.02062 1.95386C4.46395 2.19702 5.08461 2.92303 4.02062 3.88178C3.82359 4.0902 3.54774 4.59042 4.02062 4.9239" stroke="black" stroke-width="0.912627" stroke-linecap="round"/>
<path d="M6.56643 1.95361C7.00976 2.19677 7.63041 2.92278 6.56643 3.88153C6.3694 4.08996 6.09355 4.59018 6.56643 4.92365" stroke="black" stroke-width="0.912627" stroke-linecap="round"/>
<path d="M9.11076 1.95361C9.55408 2.19677 10.1747 2.92278 9.11076 3.88153C8.91372 4.08996 8.63788 4.59018 9.11076 4.92365" stroke="black" stroke-width="0.912627" stroke-linecap="round"/>
<path d="M2.90955 14.0464H10.5468" stroke="black" stroke-width="0.912627" stroke-linecap="round"/>
<path d="M3.28188 9.14099C3.51003 9.71138 4.1945 10.8978 5.10713 11.0803" stroke="black" stroke-width="0.912627" stroke-linecap="round"/>
</svg>
