<svg width="16" height="16" viewBox="0 0 16 16" fill="none" xmlns="http://www.w3.org/2000/svg">
<circle cx="8" cy="8" r="8" fill="#ECF2FE"/>
<path fill-rule="evenodd" clip-rule="evenodd" d="M5.9697 7.18625V6.69697C5.9697 5.75976 6.72946 5 7.66667 5C8.60388 5 9.36364 5.75976 9.36364 6.69697V7.18625H10.0909C10.2248 7.18625 10.3333 7.29479 10.3333 7.42867V10.8226C10.3333 10.9565 10.2248 11.065 10.0909 11.065H5.24242C5.10854 11.065 5 10.9565 5 10.8226V7.42867C5 7.29479 5.10854 7.18625 5.24242 7.18625H5.9697ZM6.45455 6.69697V7.18625H8.87879V6.69697C8.87879 6.02753 8.3361 5.48485 7.66667 5.48485C6.99723 5.48485 6.45455 6.02753 6.45455 6.69697ZM6.69704 9.6105V9.12565H8.63643V9.6105H6.69704Z" fill="#307AF2"/>
</svg>
