<svg width="16" height="16" viewBox="0 0 16 16" fill="none" xmlns="http://www.w3.org/2000/svg">
<path d="M9.00006 3V5H10.0001V2.5C10.0001 2.22386 9.7762 2 9.50006 2H1.50006C1.22392 2 1.00006 2.22386 1.00006 2.5V13.5C1.00006 13.7761 1.22392 14 1.50006 14H9.50006C9.7762 14 10.0001 13.7761 10.0001 13.5V11H9.00006V13H2.00006V3H9.00006Z" fill="#999999"/>
<path d="M11.2317 5.25423L13.4774 7.50001L6 7.49999L6 8.49999L13.4774 8.50001L11.2317 10.7458L11.9388 11.4529L15.0381 8.35356C15.2334 8.1583 15.2334 7.84172 15.0381 7.64646L11.9388 4.54712L11.2317 5.25423Z" fill="#999999"/>
</svg>
