<svg width="16" height="16" viewBox="0 0 16 16" fill="none" xmlns="http://www.w3.org/2000/svg">
<path d="M4.49995 1.93783C7.848 0.00483471 12.1291 1.15196 14.0621 4.50001C15.9951 7.84806 14.848 12.1292 11.4999 14.0622C8.1519 15.9952 3.87077 14.8481 1.93777 11.5C0.00477368 8.15196 1.1519 3.87083 4.49995 1.93783ZM13.454 5.49839L10.4517 5.49837C11.5421 6.56769 11.8336 8.26397 11.0778 9.66049L11.0789 9.66116L8.58983 13.9724C9.41451 13.8915 10.2356 13.6375 10.9999 13.1962C13.706 11.6338 14.7346 8.28186 13.454 5.49839ZM7.43435 13.9738L8.93909 11.3675C8.8162 11.4017 8.69146 11.4293 8.56546 11.4501C8.31934 11.4917 8.07131 11.5064 7.82555 11.4953C6.51435 11.4407 5.3895 10.6647 4.83746 9.55389L2.52394 5.54674C1.7655 7.24342 1.80351 9.26747 2.8038 11C3.8127 12.7475 5.56788 13.7954 7.43435 13.9738ZM4.99995 2.80386C4.22194 3.25304 3.58259 3.85015 3.09691 4.53915L4.58547 7.11742C4.94916 5.71465 6.16099 4.65352 7.641 4.51397L7.68094 4.51033C7.83362 4.49628 7.98755 4.4922 8.1417 4.49837L12.8727 4.49839C11.0967 2.0206 7.69549 1.24759 4.99995 2.80386ZM7.97232 5.49837C7.91093 5.4984 7.85007 5.50065 7.78979 5.50503L7.75149 5.50823C6.97813 5.58575 6.25199 6.02168 5.83371 6.74616C5.14335 7.94189 5.55304 9.47087 6.74877 10.1612C7.20503 10.4246 7.70981 10.5279 8.198 10.4884C9.47361 10.375 10.4737 9.30347 10.4737 7.99837C10.4737 6.61811 9.35511 5.4991 7.97502 5.49837H7.97232Z" fill="#999999"/>
</svg>
