<svg width="16" height="16" viewBox="0 0 16 16" fill="none" xmlns="http://www.w3.org/2000/svg">
<path fill-rule="evenodd" clip-rule="evenodd" d="M1.58655 4.9917V12.5545H14.4136V4.9917H1.58655ZM1.02885 4.24835C0.874845 4.24835 0.75 4.35929 0.75 4.49614V13.0501C0.75 13.1869 0.874845 13.2978 1.02885 13.2978H14.9713C15.1253 13.2978 15.2501 13.1869 15.2501 13.0501V4.49614C15.2501 4.35929 15.1253 4.24835 14.9713 4.24835H1.02885Z" fill="black"/>
<path fill-rule="evenodd" clip-rule="evenodd" d="M8.27929 7.09957C8.27929 6.89424 8.09197 6.72778 7.86089 6.72778C7.62981 6.72778 7.44249 6.89424 7.44249 7.09957V8.0852H6.18729C5.95621 8.0852 5.76889 8.25165 5.76889 8.45699C5.76889 8.66232 5.95621 8.82878 6.18729 8.82878H7.44249V9.81524C7.44249 10.0206 7.62981 10.187 7.86089 10.187C8.09197 10.187 8.27929 10.0206 8.27929 9.81524V8.82878H9.53449C9.76557 8.82878 9.95289 8.66232 9.95289 8.45699C9.95289 8.25165 9.76557 8.0852 9.53449 8.0852H8.27929V7.09957Z" fill="black"/>
<path fill-rule="evenodd" clip-rule="evenodd" d="M12.183 12.8913V4.74591H13.0196V12.8913H12.183Z" fill="black"/>
<path fill-rule="evenodd" clip-rule="evenodd" d="M2.98146 12.8913L2.98146 4.74591H3.81808L3.81808 12.8913H2.98146Z" fill="black"/>
<path fill-rule="evenodd" clip-rule="evenodd" d="M5.37977 2.70227C4.97932 2.70227 4.65469 3.00851 4.65469 3.38628V4.93235H5.5471V3.54413H10.2322V4.93235H11.1246V3.38628C11.1246 3.00851 10.8 2.70227 10.3996 2.70227H5.37977Z" fill="black"/>
</svg>
