<svg width="16" height="16" viewBox="0 0 16 16" fill="none" xmlns="http://www.w3.org/2000/svg">
<rect x="11.6003" y="4.3999" width="0.900002" height="9.00002" fill="black"/>
<rect x="3.49974" y="4.3999" width="0.900002" height="9.00002" fill="black"/>
<rect x="1.69999" y="4.17559" width="12.6" height="9.45002" rx="0.450001" stroke="black" stroke-width="0.900002"/>
<path fill-rule="evenodd" clip-rule="evenodd" d="M5.55951 1.92456C5.18671 1.92456 4.88451 2.2757 4.88451 2.70886V4.48465H5.71528V2.88985H10.0768V4.48465H10.9076V2.70886C10.9076 2.2757 10.6054 1.92456 10.2326 1.92456H5.55951Z" fill="black"/>
<path fill-rule="evenodd" clip-rule="evenodd" d="M8.25962 6.96576C8.25962 6.73037 8.08527 6.53955 7.8702 6.53955C7.65513 6.53955 7.48078 6.73037 7.48078 6.96576V8.09566H6.3125C6.09743 8.09566 5.92308 8.28648 5.92308 8.52187C5.92308 8.75726 6.09743 8.94808 6.3125 8.94808H7.48078V10.0789C7.48078 10.3143 7.65513 10.5052 7.8702 10.5052C8.08527 10.5052 8.25962 10.3143 8.25962 10.0789V8.94808H9.4279C9.64297 8.94808 9.81732 8.75726 9.81732 8.52187C9.81732 8.28648 9.64297 8.09566 9.4279 8.09566H8.25962V6.96576Z" fill="black"/>
</svg>
