<svg width="16" height="16" viewBox="0 0 16 16" fill="none" xmlns="http://www.w3.org/2000/svg">
<path d="M7.27079 11.5176H8.88588C8.95388 11.5176 9.02188 11.4666 9.02188 11.3986L9.08989 10.6846C9.15789 10.6506 9.22589 10.6336 9.2939 10.5996L9.83793 11.0586C9.90593 11.0926 9.99093 11.0926 10.0419 11.0416L11.181 9.90252C11.249 9.85152 11.249 9.74952 11.198 9.69851L10.739 9.15449C10.773 9.08648 10.807 9.01848 10.824 8.95048L11.538 8.89947C11.623 8.88247 11.674 8.83147 11.674 8.74647V7.13138C11.674 7.04638 11.623 6.97837 11.538 6.97837L10.824 6.91037C10.79 6.84237 10.773 6.77436 10.739 6.70636L11.232 6.12833C11.266 6.06033 11.266 5.97532 11.215 5.92432L10.0759 4.78526C10.0249 4.71726 9.92293 4.71726 9.87193 4.76826L9.3279 5.22728C9.2599 5.19328 9.19189 5.17628 9.12389 5.14228L9.05589 4.42824C9.03888 4.34324 8.98788 4.29224 8.90288 4.29224H7.28779C7.21979 4.29224 7.13479 4.34324 7.13479 4.42824L7.06678 5.14228C6.99878 5.17628 6.93078 5.19328 6.86277 5.22728L6.31875 4.76826C6.25074 4.73426 6.16574 4.73426 6.11473 4.78526L4.97568 5.92432C4.90767 5.97532 4.90767 6.07733 4.95868 6.12833L5.4177 6.67236C5.3837 6.74036 5.3667 6.80837 5.33269 6.87637L4.61866 6.94437C4.53365 6.96137 4.48265 7.01238 4.48265 7.09738V8.71246C4.48265 8.79747 4.53365 8.86547 4.61866 8.86547L5.31569 8.93347C5.3497 9.00148 5.3667 9.06948 5.4007 9.13749L4.94167 9.68151C4.90767 9.74952 4.90767 9.83452 4.95868 9.88552L6.09773 11.0246C6.14874 11.0926 6.25074 11.0926 6.30174 11.0416L6.84577 10.5826C6.91378 10.6166 6.98178 10.6506 7.04978 10.6676L7.11779 11.3816C7.13479 11.4666 7.18579 11.5176 7.27079 11.5176Z" stroke="black" stroke-width="0.456339"/>
<circle cx="8.0956" cy="7.90494" r="0.380283" stroke="black" stroke-width="0.760565"/>
<circle cx="3.6452" cy="3.42096" r="1.04578" stroke="black" stroke-width="0.760565"/>
<circle cx="12.4209" cy="3.42114" r="1.04578" stroke="black" stroke-width="0.760565"/>
<circle cx="12.4208" cy="12.421" r="1.04578" stroke="black" stroke-width="0.760565"/>
<circle cx="3.6452" cy="12.421" r="1.04578" stroke="black" stroke-width="0.760565"/>
<path fill-rule="evenodd" clip-rule="evenodd" d="M11.6954 13.6495C11.4694 13.5158 11.2836 13.3215 11.1602 13.0889C10.2429 13.6597 9.15994 13.9895 8 13.9895C6.86065 13.9895 5.79561 13.6713 4.88885 13.1191C4.75909 13.3499 4.56693 13.541 4.33523 13.6695C5.39061 14.3531 6.64895 14.75 8 14.75C9.36415 14.75 10.6338 14.3454 11.6954 13.6495ZM2.92855 11.188C2.347 10.2648 2.01055 9.17171 2.01055 8.00002C2.01055 6.77854 2.3762 5.64246 3.00401 4.69526C2.77061 4.57767 2.57395 4.39785 2.4358 4.17759C1.68784 5.26431 1.24998 6.58103 1.24998 8.00002C1.24998 9.38752 1.66863 10.6773 2.38649 11.7498C2.51154 11.516 2.69985 11.3211 2.92855 11.188ZM13.0884 11.161C13.3209 11.2844 13.5152 11.4704 13.6489 11.6964C14.3451 10.6345 14.75 9.36456 14.75 8.00002C14.75 6.6022 14.3251 5.30361 13.5975 4.22637C13.4514 4.43939 13.2489 4.61074 13.0116 4.71895C13.6299 5.66137 13.9895 6.7887 13.9895 8.00002C13.9895 9.16031 13.6595 10.2435 13.0884 11.161ZM11.1024 2.87566C10.1976 2.32666 9.1357 2.01057 8 2.01057C6.88598 2.01057 5.84299 2.31471 4.94955 2.84449C4.84348 2.60476 4.67328 2.39975 4.46071 2.2512C5.48975 1.61632 6.7021 1.25 8 1.25C9.31262 1.25 10.5377 1.62467 11.5742 2.2729C11.3668 2.42609 11.2024 2.63416 11.1024 2.87566Z" fill="black"/>
</svg>
