<svg width="16" height="16" viewBox="0 0 16 16" fill="none" xmlns="http://www.w3.org/2000/svg">
<path d="M5.51948 1.38947H3.53615C2.4407 1.38947 1.38763 2.11206 1.38763 3.2074V5.19068C1.38763 6.28617 2.44077 7.33918 3.53615 7.33918H5.51948C7.52399 7.33918 7.33743 7.27777 7.33743 5.19068V3.2074C7.33743 2.11191 6.61479 1.38947 5.51948 1.38947ZM6.67639 4.9702C6.67639 6.59379 6.85783 6.67811 5.29901 6.67811H3.75669C2.90452 6.67811 2.04874 5.82226 2.04874 4.9702V3.42761C2.04874 2.57579 2.90464 2.0505 3.75669 2.0505H5.29901C6.15113 2.0505 6.67639 2.57574 6.67639 3.42787V4.9702ZM5.51948 8.66153H3.53615C2.4407 8.66153 1.38763 9.38427 1.38763 10.4794V12.4627C1.38763 13.5578 2.44077 14.6112 3.53615 14.6112H5.51948C6.61494 14.6112 7.33743 13.5578 7.33743 12.4627V10.4794C7.33743 8.55794 7.44125 8.66153 5.51948 8.66153ZM6.67639 12.2422C6.67639 13.094 6.15114 13.9501 5.29901 13.9501H3.75669C2.90452 13.9501 2.04874 13.0939 2.04874 12.2422V10.6996C2.04874 9.84772 2.90464 9.32244 3.75669 9.32244H5.29901C6.79374 9.32244 6.67639 9.20553 6.67639 10.6996V12.2422ZM12.7915 1.38947H10.8081C9.71264 1.38947 8.65964 2.11224 8.65964 3.2074V5.19068C8.65964 7.19517 8.80377 7.33918 10.8081 7.33918H12.7915C13.887 7.33918 14.6094 6.28605 14.6094 5.19068V3.2074C14.6094 2.11228 13.8869 1.38947 12.7915 1.38947ZM13.9485 4.97061C13.9485 5.82244 13.4232 6.67796 12.5711 6.67796H11.0288C9.4696 6.67804 9.32079 6.52989 9.32079 4.97061V3.42801C9.32079 2.57618 10.1767 2.0502 11.0288 2.0502H12.5711C13.4232 2.0502 13.9485 2.57607 13.9485 3.42801V4.97061ZM12.7915 8.66153H10.8081C8.80369 8.66153 8.65964 8.47541 8.65964 10.4794V12.4627C8.65964 13.5578 9.71278 14.6112 10.8081 14.6112H12.7915C13.887 14.6112 14.6094 13.5578 14.6094 12.4627V10.4794C14.6094 9.38433 13.8869 8.66153 12.7915 8.66153ZM13.9485 12.2422C13.9485 13.094 13.4232 13.9501 12.5711 13.9501H11.0288C10.1766 13.9501 9.32079 13.0939 9.32079 12.2422V10.6996C9.32079 9.14071 9.46952 9.32244 11.0288 9.32244H12.5711C13.4232 9.32244 13.9485 9.84772 13.9485 10.6996V12.2422Z" fill="black"/>
<path fill-rule="evenodd" clip-rule="evenodd" d="M1.24994 3.20705C1.24994 2.00655 2.39705 1.24994 3.53764 1.24994H5.52096C6.09987 1.24994 6.59166 1.44147 6.93909 1.78886C7.28651 2.13625 7.47809 2.62805 7.47809 3.20705V5.19033C7.47809 5.36361 7.47941 5.52432 7.48064 5.67286C7.48305 5.96592 7.48508 6.2116 7.47577 6.41295C7.46189 6.71338 7.42262 6.95513 7.2936 7.12989C7.15857 7.31281 6.94821 7.39408 6.67066 7.43435C6.39422 7.47447 6.01891 7.478 5.52096 7.478H3.53764C2.94593 7.478 2.37501 7.1946 1.9542 6.7738C1.53338 6.353 1.24994 5.78209 1.24994 5.19033V3.20705ZM3.53764 1.52829C2.48731 1.52829 1.52829 2.21687 1.52829 3.20705V5.19033C1.52829 5.69405 1.77142 6.19739 2.15102 6.57697C2.53062 6.95655 3.03396 7.19965 3.53764 7.19965H5.52096C6.02526 7.19965 6.37833 7.19551 6.63068 7.15889C6.88192 7.12243 7.00077 7.0579 7.06966 6.96458C7.14457 6.8631 7.18394 6.69817 7.19772 6.4001C7.20668 6.20625 7.20474 5.97307 7.20235 5.68612C7.20111 5.53622 7.19974 5.37164 7.19974 5.19033V3.20705C7.19974 2.69056 7.03 2.27339 6.74227 1.98569C6.45454 1.69799 6.03736 1.52829 5.52096 1.52829H3.53764ZM8.52194 3.20705C8.52194 2.00674 9.66897 1.24994 10.8096 1.24994H12.793C13.3719 1.24994 13.8637 1.44157 14.2111 1.78901C14.5585 2.13644 14.75 2.62823 14.75 3.20705V5.19033C14.75 6.33081 13.9936 7.478 12.793 7.478H10.8096C10.3096 7.478 9.91469 7.46923 9.60744 7.42261C9.29959 7.37589 9.05911 7.28846 8.88532 7.11468C8.71152 6.94089 8.62408 6.70042 8.57736 6.39256C8.53073 6.0853 8.52194 5.69036 8.52194 5.19033V3.20705ZM10.8096 1.52829C9.75926 1.52829 8.8003 2.21703 8.8003 3.20705V5.19033C8.8003 5.69254 8.80953 6.06729 8.85256 6.35079C8.89549 6.63369 8.96936 6.80507 9.08214 6.91785C9.19492 7.03062 9.3663 7.10448 9.6492 7.1474C9.9327 7.19042 10.3074 7.19965 10.8096 7.19965H12.793C13.7833 7.19965 14.4717 6.24059 14.4717 5.19033V3.20705C14.4717 2.69075 14.302 2.27357 14.0143 1.98582C13.7265 1.69807 13.3094 1.52829 12.793 1.52829H10.8096ZM9.9397 2.53106C9.64777 2.74783 9.46144 3.05363 9.46144 3.42766V4.97026C9.46144 5.36045 9.47096 5.65165 9.50722 5.8723C9.54332 6.09201 9.60328 6.22364 9.68995 6.31025C9.77663 6.39687 9.90834 6.45676 10.1281 6.4928C10.3488 6.52899 10.6401 6.53845 11.0303 6.53844H12.5725C12.9467 6.53844 13.2524 6.35218 13.469 6.06041C13.6872 5.76651 13.8108 5.36953 13.8108 4.97026V3.42766C13.8108 3.03055 13.6889 2.72434 13.4824 2.51766C13.2758 2.31099 12.9697 2.18902 12.5725 2.18902H11.0303C10.6309 2.18902 10.2337 2.31272 9.9397 2.53106ZM9.77376 2.30758C10.1207 2.04997 10.5775 1.91067 11.0303 1.91067H12.5725C13.0275 1.91067 13.4101 2.05164 13.6792 2.32089C13.9483 2.59013 14.0891 2.97282 14.0891 3.42766V4.97026C14.0891 5.42282 13.95 5.87951 13.6925 6.22633C13.4335 6.57528 13.0505 6.81679 12.5725 6.81679H11.0303C10.6408 6.81681 10.3288 6.80778 10.0831 6.76748C9.83646 6.72704 9.63861 6.65246 9.49319 6.50714C9.34776 6.36181 9.27307 6.16404 9.23255 5.91743C9.19218 5.67176 9.18309 5.35972 9.18309 4.97026V3.42766C9.18309 2.94986 9.42472 2.56675 9.77376 2.30758ZM2.66761 2.53104C2.3757 2.74764 2.18939 3.05325 2.18939 3.42726V4.96985C2.18939 5.35048 2.38199 5.74386 2.68304 6.04492C2.9841 6.34597 3.37749 6.53858 3.75817 6.53858H5.30049C5.6929 6.53858 5.96187 6.53296 6.15073 6.50188C6.33714 6.47121 6.41454 6.42047 6.45797 6.3554C6.50856 6.27958 6.5354 6.15365 6.54275 5.91734C6.54698 5.78132 6.54493 5.62342 6.54247 5.43381C6.54069 5.29692 6.53869 5.1435 6.53869 4.96985V3.42752C6.53869 3.03032 6.41685 2.72424 6.21031 2.5177C6.00377 2.31117 5.69769 2.18933 5.30049 2.18933H3.75817C3.35878 2.18933 2.96163 2.31287 2.66761 2.53104ZM2.50174 2.30751C2.84868 2.05007 3.3055 1.91098 3.75817 1.91098H5.30049C5.75541 1.91098 6.13802 2.05176 6.40714 2.32088C6.67626 2.58999 6.81705 2.9726 6.81705 3.42752V4.96985C6.81705 5.13301 6.81895 5.28315 6.82069 5.41994C6.82319 5.61651 6.82534 5.78552 6.82097 5.92599C6.81363 6.16211 6.7884 6.36169 6.6895 6.5099C6.58343 6.66886 6.41392 6.74067 6.19593 6.77654C5.98039 6.81201 5.68748 6.81693 5.30049 6.81693H3.75817C3.28668 6.81693 2.8261 6.58162 2.48622 6.24174C2.14634 5.90186 1.91104 5.44128 1.91104 4.96985V3.42726C1.91104 2.94945 2.15269 2.56651 2.50174 2.30751ZM10.3471 8.51949C10.4902 8.5207 10.6443 8.522 10.8096 8.522H12.793C13.3719 8.522 13.8637 8.71363 14.2111 9.06106C14.5585 9.40848 14.75 9.90025 14.75 10.479V12.4624C14.75 13.6025 13.9937 14.75 12.793 14.75H10.8096C10.2179 14.75 9.64699 14.4665 9.22619 14.0457C8.80539 13.6248 8.52194 13.0539 8.52194 12.4624V10.479C8.52194 9.98 8.53062 9.60413 8.57773 9.32631C8.62518 9.04644 8.716 8.83833 8.903 8.70523C9.08188 8.57791 9.32432 8.53835 9.62176 8.52439C9.82117 8.51503 10.0624 8.51707 10.3471 8.51949ZM8.85217 9.37284C8.80963 9.62373 8.8003 9.97609 8.8003 10.479V12.4624C8.8003 12.9659 9.04342 13.4692 9.42303 13.8489C9.80263 14.2285 10.306 14.4717 10.8096 14.4717H12.793C13.7833 14.4717 14.4717 13.5123 14.4717 12.4624V10.479C14.4717 9.96277 14.302 9.54561 14.0143 9.25787C13.7265 8.97013 13.3094 8.80036 12.793 8.80036H10.8096C10.6362 8.80036 10.4782 8.79901 10.3338 8.79777C10.055 8.79539 9.82658 8.79344 9.63481 8.80244C9.34149 8.8162 9.17209 8.85536 9.06441 8.93201C8.96483 9.00288 8.89436 9.12398 8.85217 9.37284ZM7.47863 10.2025C7.47837 10.2901 7.47809 10.3823 7.47809 10.479V12.4624C7.47809 13.6026 6.72159 14.75 5.52096 14.75H3.53764C2.94592 14.75 2.375 14.4665 1.95419 14.0457C1.53339 13.6248 1.24994 13.0539 1.24994 12.4624V10.479C1.24994 9.27877 2.39705 8.522 3.53764 8.522H5.52096C5.61758 8.522 5.70956 8.52173 5.79705 8.52147C6.13969 8.52045 6.41336 8.51964 6.62658 8.53626C6.8912 8.55689 7.10387 8.606 7.24902 8.75116C7.39417 8.89632 7.44325 9.10898 7.46386 9.37358C7.48047 9.58667 7.47965 9.86015 7.47863 10.2025ZM5.80504 8.79983C5.7161 8.80009 5.62155 8.80036 5.52096 8.80036H3.53764C2.48731 8.80036 1.52829 9.48907 1.52829 10.479V12.4624C1.52829 12.9659 1.77141 13.4692 2.15102 13.8489C2.53063 14.2285 3.03397 14.4717 3.53764 14.4717H5.52096C6.51124 14.4717 7.19974 13.5123 7.19974 12.4624V10.479C7.19974 10.3783 7.20001 10.2836 7.20027 10.1945C7.20125 9.85419 7.202 9.596 7.18635 9.3952C7.16638 9.13881 7.1213 9.0171 7.05218 8.94797C6.98307 8.87885 6.86135 8.83376 6.60494 8.81377C6.40403 8.79811 6.14565 8.79885 5.80504 8.79983ZM9.50661 9.85231C9.4711 10.0398 9.46144 10.308 9.46144 10.6992V12.2419C9.46144 12.6223 9.65404 13.0157 9.95512 13.3168C10.2562 13.6179 10.6496 13.8105 11.0303 13.8105H12.5725C12.9467 13.8105 13.2524 13.6242 13.469 13.3323C13.6872 13.0382 13.8108 12.6411 13.8108 12.2419V10.6992C13.8108 10.3022 13.6889 9.99615 13.4824 9.78963C13.2759 9.58311 12.9698 9.46126 12.5725 9.46126H11.0303C10.8637 9.46126 10.7159 9.45928 10.5834 9.45749C10.3992 9.45502 10.2445 9.45294 10.1099 9.45716C9.87749 9.46445 9.74779 9.49102 9.66689 9.5431C9.59644 9.58846 9.5415 9.66822 9.50661 9.85231ZM10.5976 9.17927C10.7299 9.18101 10.8744 9.18291 11.0303 9.18291H12.5725C13.0275 9.18291 13.4101 9.32371 13.6792 9.5928C13.9483 9.86189 14.0891 10.2444 14.0891 10.6992V12.2419C14.0891 12.6944 13.95 13.1512 13.6925 13.4982C13.4335 13.8472 13.0505 14.0889 12.5725 14.0889H11.0303C10.5588 14.0889 10.0982 13.8535 9.75829 13.5136C9.41841 13.1737 9.18309 12.7131 9.18309 12.2419V10.6992C9.18309 10.311 9.19203 10.0174 9.23313 9.8005C9.27486 9.58023 9.35456 9.41314 9.5162 9.30906C9.66739 9.21172 9.86723 9.18629 10.1012 9.17894C10.2402 9.17458 10.4063 9.17676 10.5976 9.17927ZM5.60945 9.46005C5.51593 9.46063 5.41335 9.46126 5.30049 9.46126H3.75817C3.35878 9.46126 2.96163 9.58481 2.66761 9.80298C2.3757 10.0196 2.18939 10.3252 2.18939 10.6992V12.2419C2.18939 12.6223 2.38198 13.0157 2.68305 13.3168C2.98411 13.6179 3.3775 13.8105 3.75817 13.8105H5.30049C5.67467 13.8105 5.98034 13.6242 6.19697 13.3323C6.41516 13.0382 6.53869 12.6411 6.53869 12.2419V10.6992C6.53869 10.5861 6.53934 10.4832 6.53992 10.3895C6.5413 10.1685 6.54237 9.99819 6.53394 9.86237C6.52169 9.66483 6.49026 9.58778 6.45128 9.54879C6.41231 9.50981 6.33525 9.47836 6.13766 9.46607C6.00163 9.45761 5.83096 9.45867 5.60945 9.46005ZM6.81824 10.403C6.81766 10.4948 6.81705 10.5935 6.81705 10.6992V12.2419C6.81705 12.6944 6.67796 13.1512 6.42049 13.4982C6.16146 13.8472 5.77844 14.0889 5.30049 14.0889H3.75817C3.28667 14.0889 2.82609 13.8535 2.48621 13.5136C2.14635 13.1737 1.91104 12.7131 1.91104 12.2419V10.6992C1.91104 10.2214 2.15268 9.83845 2.50174 9.57944C2.84868 9.32201 3.3055 9.18291 3.75817 9.18291H5.30049C5.40594 9.18291 5.5044 9.1823 5.59604 9.18173C5.82346 9.18032 6.00885 9.17917 6.15493 9.18826C6.35573 9.20074 6.52959 9.23344 6.64812 9.35199C6.76665 9.47054 6.79931 9.6444 6.81176 9.84513C6.82081 9.99098 6.81965 10.176 6.81824 10.403Z" fill="black"/>
</svg>
