<svg width="16" height="16" viewBox="0 0 16 16" fill="none" xmlns="http://www.w3.org/2000/svg">
<path d="M14.5958 7.99973C14.5958 11.6425 11.6428 14.5956 8 14.5956C4.35721 14.5956 1.40415 11.6425 1.40415 7.99973C1.40415 4.35691 4.35721 1.40383 8 1.40383C11.6428 1.40383 14.5958 4.35691 14.5958 7.99973Z" stroke="black" stroke-width="0.807658"/>
<path fill-rule="evenodd" clip-rule="evenodd" d="M13.7919 4.06701C12.2476 4.99833 10.2301 5.57554 8.00043 5.57554C5.77034 5.57554 3.75255 4.99813 2.20819 4.06653C2.05707 4.28868 1.9184 4.51998 1.79318 4.75943C3.47458 5.77319 5.63887 6.3832 8.00043 6.3832C10.3616 6.3832 12.5255 5.7734 14.2068 4.75995C14.0816 4.5205 13.943 4.28918 13.7919 4.06701ZM14.2068 11.2374C12.5255 10.224 10.3616 9.61417 8.00041 9.61417C5.63885 9.61417 3.47457 10.2242 1.79317 11.2379C1.91839 11.4774 2.05706 11.7087 2.20818 11.9308C3.75254 10.9992 5.77033 10.4218 8.00041 10.4218C10.2301 10.4218 12.2476 10.999 13.7919 11.9304C13.943 11.7082 14.0816 11.4769 14.2068 11.2374Z" fill="black"/>
<path fill-rule="evenodd" clip-rule="evenodd" d="M8.54977 1.022C8.36813 1.00787 8.18455 1.00067 7.99929 1.00067C7.81439 1.00067 7.63116 1.00784 7.44987 1.02192C6.12927 2.78476 5.3078 5.2596 5.3078 8.0001C5.3078 10.7409 6.12947 13.216 7.45034 14.9789C7.63148 14.993 7.81455 15.0001 7.99929 15.0001C8.18442 15.0001 8.36787 14.9929 8.54938 14.9788C9.87019 13.2159 10.6918 10.7409 10.6918 8.00015C10.6918 5.25967 9.87035 2.78484 8.54977 1.022ZM6.11546 8.0001C6.11546 10.5162 6.85044 12.762 7.99983 14.3626C9.14919 12.762 9.88416 10.5162 9.88416 8.00015C9.88416 5.48409 9.14918 3.23826 7.99979 1.63769C6.85042 3.23826 6.11546 5.48407 6.11546 8.0001Z" fill="black"/>
</svg>
