<svg width="17" height="17" viewBox="0 0 17 17" fill="none" xmlns="http://www.w3.org/2000/svg">
<path fill-rule="evenodd" clip-rule="evenodd" d="M9.24467 16.6916C8.8334 17.1028 8.16658 17.1028 7.75531 16.6916L0.308457 9.24471C-0.102821 8.83343 -0.10282 8.16662 0.308458 7.75534L7.75531 0.308489C8.16658 -0.102789 8.8334 -0.102787 9.24468 0.308491L16.6915 7.75534C17.1028 8.16662 17.1028 8.83343 16.6915 9.24471L9.24467 16.6916ZM8.49999 15.9469L15.9468 8.50003L8.49999 1.05318L1.05314 8.50002L8.49999 15.9469ZM9.0157 9.02222L11.6434 9.02223V7.96908L9.0157 7.96908V5.37903H7.96256V7.96908L5.32458 7.96908L5.32458 9.02222H7.96256V11.6979H9.0157L9.0157 9.02222Z" fill="#999999"/>
</svg>
