<svg width="16" height="16" viewBox="0 0 16 16" fill="none" xmlns="http://www.w3.org/2000/svg">
<path d="M2.74444 1.14288H10.3932L13.8432 4.6499V14.4745C13.8432 14.6858 13.6635 14.8572 13.4419 14.8572H2.74444C2.52284 14.8572 2.34319 14.6858 2.34319 14.4745V1.52554C2.34319 1.3142 2.52284 1.14288 2.74444 1.14288Z" fill="#F36D78"/>
<path d="M10.3926 1.14288V4.2757C10.3926 4.49143 10.5686 4.66632 10.7856 4.66632H13.8987L10.3926 1.14288Z" fill="#D7515C"/>
<path d="M5.0461 9.12803C4.92705 9.12803 4.82661 9.08835 4.74476 9.00899C4.66292 8.92962 4.62199 8.83041 4.62199 8.71137V8.15333C4.62199 8.03428 4.66292 7.93383 4.74476 7.85199C4.82661 7.77014 4.92705 7.72922 5.0461 7.72922H9.0997C9.01041 7.78378 8.93849 7.84827 8.88392 7.92267C8.82936 7.99708 8.80208 8.07148 8.80208 8.14589V8.44351L8.80952 8.67416C8.77976 8.67912 8.73759 8.6816 8.68303 8.6816H8.17707C7.77529 8.6816 7.55455 8.83041 7.51487 9.12803H5.0461ZM5.96873 7.25303C5.85464 7.25303 5.75543 7.2121 5.67111 7.13026C5.58678 7.04841 5.54462 6.94796 5.54462 6.82892V6.31552C5.54462 6.20143 5.58678 6.10099 5.67111 6.01418C5.75543 5.92738 5.85464 5.88397 5.96873 5.88397H10.3051C10.4191 5.88397 10.5171 5.92738 10.599 6.01418C10.6808 6.10099 10.7217 6.20143 10.7217 6.31552V6.82892C10.7217 6.94796 10.6808 7.04841 10.599 7.13026C10.5171 7.2121 10.4191 7.25303 10.3051 7.25303H5.96873ZM8.50446 10.5417C8.59374 10.5417 8.66195 10.5368 8.70907 10.5268C8.75619 10.5169 8.79092 10.5194 8.81324 10.5343C8.83556 10.5492 8.8492 10.5839 8.85416 10.6385C8.85912 10.693 8.8616 10.7848 8.8616 10.9138V10.9658C8.8616 10.9857 8.86408 11.003 8.86904 11.0179H5.0461C4.92705 11.0179 4.82661 10.9758 4.74476 10.8914C4.66292 10.8071 4.62199 10.7079 4.62199 10.5938V10.0358C4.62199 9.92169 4.66292 9.82248 4.74476 9.73816C4.82661 9.65383 4.92705 9.61167 5.0461 9.61167H7.49999V9.7828C7.49999 10.0011 7.56075 10.1809 7.68228 10.3222C7.80381 10.4636 7.94642 10.5343 8.11011 10.5343H8.25892C8.27876 10.5343 8.29364 10.5355 8.30356 10.538C8.31348 10.5405 8.33084 10.5417 8.35565 10.5417H8.50446ZM11.1756 9.33637C11.2103 9.36613 11.2364 9.40085 11.2537 9.44054C11.2711 9.48022 11.281 9.52238 11.2835 9.56702C11.286 9.61167 11.281 9.65259 11.2686 9.68979C11.2562 9.72699 11.2351 9.75552 11.2054 9.77536C11.126 9.8448 11.0181 9.92169 10.8817 10.006C10.7453 10.0903 10.6014 10.1784 10.4501 10.2702C10.2989 10.3619 10.1513 10.4524 10.0074 10.5417C9.86359 10.631 9.74702 10.7104 9.65774 10.7798C9.54365 10.879 9.45932 10.9311 9.40476 10.9361C9.35019 10.941 9.32291 10.8716 9.32291 10.7277V10.3557C9.32291 10.2565 9.30183 10.1871 9.25967 10.1474C9.21751 10.1077 9.15674 10.0879 9.07738 10.0879H8.18451C8.11507 10.0879 8.05431 10.0693 8.00222 10.0321C7.95014 9.99485 7.9241 9.93161 7.9241 9.84232V9.4703C7.9241 9.31653 7.94766 9.22352 7.99478 9.19128C8.04191 9.15904 8.12747 9.14292 8.25148 9.14292H8.39285C8.42757 9.14292 8.46973 9.14415 8.51934 9.14663C8.56894 9.14912 8.63095 9.15036 8.70535 9.15036H9.02529C9.13938 9.15036 9.21751 9.11191 9.25967 9.03503C9.30183 8.95814 9.32291 8.87258 9.32291 8.77833V8.42863C9.32291 8.32942 9.34275 8.26617 9.38244 8.23889C9.42212 8.21161 9.48412 8.23269 9.56845 8.30214C9.65774 8.36662 9.7743 8.44351 9.91815 8.53279C10.062 8.62208 10.2133 8.71385 10.372 8.80809C10.5308 8.90234 10.682 8.99535 10.8259 9.08711C10.9697 9.17888 11.0863 9.26196 11.1756 9.33637Z" fill="white"/>
</svg>
