<svg width="21" height="21" viewBox="0 0 21 21" fill="none" xmlns="http://www.w3.org/2000/svg">
<path fill-rule="evenodd" clip-rule="evenodd" d="M12.2667 4.80525C12.2667 4.80528 12.2667 4.80531 12.2667 4.80534V5.07176V7.47028H13.3333V12.0009H12.2667V13.3336H5.06654C4.32979 13.3336 3.7334 12.7389 3.7334 12.0024V12.0009H2.66667V7.47028H3.73334V7.46405H3.7334V2.93968V2.67317H8.80007C8.94735 2.67317 9.06674 2.79249 9.06674 2.93968C9.06674 3.08687 8.94735 3.20619 8.80007 3.20619H4.26674V7.47028H11.7324L11.732 5.33827H9.60007V2.93968C9.60007 2.78954 9.7193 2.66979 9.86785 2.66672C9.92338 2.66597 9.96275 2.67816 10.005 2.69818C10.0385 2.71408 10.0725 2.73578 10.1143 2.76592C10.1774 2.81133 12.1665 4.59592 12.1824 4.61074C12.2384 4.66319 12.2667 4.73413 12.2667 4.80525ZM11.6063 4.80525C11.3893 4.60835 10.8983 4.16417 10.1334 3.4727V4.80525H11.6063ZM11.7326 8.16685H9.82292V11.2002H10.35V9.91475H11.5708V9.49392H10.35V8.59185H11.7326L11.7326 8.16685ZM11.7333 12.0009H8H4.26674V12.0024C4.26674 12.4442 4.62407 12.8005 5.06654 12.8005H11.7334L11.7333 12.0009ZM4.83542 11.2002V10.0731H5.46251C5.8139 10.0731 6.08716 9.99045 6.2823 9.82517C6.47744 9.65989 6.57501 9.42865 6.57501 9.13143C6.57501 8.84115 6.47535 8.60782 6.27605 8.43143C6.07674 8.25504 5.80765 8.16685 5.46876 8.16685H4.30834V11.2002H4.83542ZM5.46876 9.65017H4.83542V8.59185H5.48334C5.65834 8.59462 5.79584 8.64497 5.89584 8.74289C5.99584 8.8408 6.04584 8.9717 6.04584 9.13559C6.04584 9.30226 5.99653 9.42969 5.89792 9.51788C5.79931 9.60608 5.65626 9.65017 5.46876 9.65017ZM7.03542 8.16685V11.2002H7.90834C8.18195 11.2002 8.42466 11.1411 8.63646 11.0231C8.84827 10.905 9.01146 10.737 9.12605 10.5189C9.24063 10.3009 9.29792 10.0481 9.29792 9.76059V9.60851C9.29792 9.32517 9.24098 9.07379 9.12709 8.85434C9.0132 8.6349 8.85244 8.46546 8.6448 8.34601C8.43716 8.22657 8.19931 8.16685 7.93125 8.16685H7.03542ZM7.5625 10.7793V8.59185H7.93126C8.20348 8.59185 8.41112 8.67865 8.55417 8.85226C8.69723 9.02587 8.76875 9.27726 8.76875 9.60642V9.77517C8.76598 10.0988 8.69063 10.347 8.54271 10.52C8.3948 10.6929 8.18265 10.7793 7.90625 10.7793H7.5625Z" fill="#C9353F"/>
</svg>
