<svg width="16" height="16" viewBox="0 0 16 16" fill="none" xmlns="http://www.w3.org/2000/svg">
<path d="M2.53407 1.33331H10.1828L13.6328 4.84033V14.6649C13.6328 14.8763 13.4532 15.0476 13.2316 15.0476H2.53407C2.31246 15.0476 2.13281 14.8763 2.13281 14.6649V1.71597C2.13281 1.50463 2.31246 1.33331 2.53407 1.33331Z" fill="#E34D59"/>
<path d="M10.1328 1.33331V4.46613C10.1328 4.68186 10.3088 4.85675 10.5259 4.85675H13.639L10.1328 1.33331Z" fill="#EF6D75"/>
<path fill-rule="evenodd" clip-rule="evenodd" d="M3.5531 10.6507C5.52008 9.25597 6.73478 7.03276 6.84596 4.62402L7.745 4.66552H8.6448C8.6448 6.44446 9.76311 8.03134 11.4384 8.62966L11.7136 8.72796L11.6166 8.99976L11.5949 10.5409L10.5063 10.5256C8.35743 10.4953 6.2459 11.0892 4.42789 12.2354L3.94803 11.4742L3.42734 10.7399L3.5531 10.6507ZM7.36647 9.07408C7.75445 8.98188 8.14687 8.90762 8.54249 8.85166C8.29905 8.60078 8.07821 8.32942 7.88235 8.04096C7.73113 8.39551 7.55883 8.7405 7.36647 9.07408Z" fill="white"/>
</svg>
