<svg width="16" height="16" viewBox="0 0 16 16" fill="none" xmlns="http://www.w3.org/2000/svg">
<path fill-rule="evenodd" clip-rule="evenodd" d="M11 2H5V1H11V2ZM1.5 3.5C1.5 2.94772 1.94772 2.5 2.5 2.5H13.5C14.0523 2.5 14.5 2.94772 14.5 3.5V13.5C14.5 14.0523 14.0523 14.5 13.5 14.5H2.5C1.94772 14.5 1.5 14.0523 1.5 13.5V3.5ZM13.5 13.5V3.5H2.5L2.5 13.5H13.5ZM10.5 6.5C10.5 7.88071 9.38071 9 8 9C6.61929 9 5.5 7.88071 5.5 6.5C5.5 5.11929 6.61929 4 8 4C9.38071 4 10.5 5.11929 10.5 6.5ZM9.5 6.5C9.5 5.67157 8.82843 5 8 5C7.17157 5 6.5 5.67157 6.5 6.5C6.5 7.32843 7.17157 8 8 8C8.82843 8 9.5 7.32843 9.5 6.5ZM8 11C9.24124 11 10.4221 11.3126 11.5 11.8795V13L12.5 13V11.8584C12.5 11.5106 12.3213 11.1842 12.0145 11.0204C10.7893 10.3665 9.43252 10 8 10C6.56748 10 5.21075 10.3665 3.9855 11.0204C3.67873 11.1842 3.5 11.5106 3.5 11.8584V13H4.5V11.8795C5.57794 11.3126 6.75876 11 8 11Z" fill="#999999"/>
</svg>
