<svg width="16" height="16" viewBox="0 0 16 16" fill="none" xmlns="http://www.w3.org/2000/svg">
<path fill-rule="evenodd" clip-rule="evenodd" d="M4.88767 10.9199C4.69834 10.6806 4.46834 10.1913 4.05901 9.59728C3.82701 9.26128 3.25167 8.62861 3.08034 8.30728C2.93167 8.02328 2.94767 7.89595 2.98301 7.66061C3.04567 7.24195 3.47501 6.91595 3.93301 6.95995C4.27901 6.99261 4.57234 7.22128 4.83634 7.43728C4.99567 7.56728 5.19167 7.81995 5.30967 7.96261C5.41834 8.09328 5.44501 8.14728 5.56101 8.30195C5.71434 8.50661 5.76234 8.60795 5.70367 8.38261C5.65634 8.05195 5.57901 7.48728 5.46701 6.98795C5.38167 6.60928 5.36101 6.54995 5.27967 6.25928C5.19367 5.94995 5.14967 5.73328 5.06901 5.40528C5.01301 5.17328 4.91234 4.69928 4.88501 4.43261C4.84701 4.06795 4.82701 3.47328 5.06101 3.19995C5.24434 2.98595 5.66501 2.92128 5.92567 3.05328C6.26701 3.22595 6.46101 3.72195 6.54967 3.91995C6.70901 4.27595 6.80767 4.68728 6.89367 5.22728C7.00301 5.91461 7.20434 6.86861 7.21101 7.06928C7.22701 6.82328 7.16567 6.30528 7.20834 6.06928C7.24701 5.85528 7.42701 5.60661 7.65234 5.53928C7.84301 5.48261 8.06634 5.46195 8.26301 5.50261C8.47167 5.54528 8.69167 5.69461 8.77367 5.83528C9.01501 6.25128 9.01967 7.10128 9.02967 7.05595C9.08701 6.80528 9.07701 6.23661 9.21901 5.99995C9.31234 5.84395 9.55034 5.70328 9.67701 5.68061C9.87301 5.64595 10.1137 5.63528 10.3197 5.67528C10.4857 5.70795 10.7103 5.90528 10.771 5.99995C10.9163 6.22928 10.999 6.87795 11.0237 7.10528C11.0337 7.19928 11.073 6.84395 11.219 6.61461C11.4897 6.18861 12.4477 6.10595 12.4843 7.04061C12.501 7.47661 12.4977 7.45661 12.4977 7.74995C12.4977 8.09461 12.4897 8.30195 12.471 8.55128C12.4503 8.81795 12.393 9.42061 12.3097 9.71261C12.2523 9.91328 12.0623 10.3646 11.875 10.6353C11.875 10.6353 11.159 11.4686 11.081 11.8439C11.0023 12.2186 11.0283 12.2213 11.013 12.4873C10.9977 12.7526 11.0937 13.1019 11.0937 13.1019C11.0937 13.1019 10.559 13.1713 10.271 13.1253C10.0103 13.0833 9.68767 12.5646 9.60434 12.4059C9.48967 12.1873 9.24501 12.2293 9.14967 12.3906C8.99967 12.6459 8.67701 13.1039 8.44901 13.1326C8.00367 13.1886 7.07967 13.1533 6.35634 13.1459C6.35634 13.1459 6.47967 12.4719 6.20501 12.2406C6.00167 12.0679 5.65167 11.7179 5.44234 11.5339L4.88767 10.9199Z" fill="white"/>
<path fill-rule="evenodd" clip-rule="evenodd" d="M4.88767 10.9199C4.69834 10.6806 4.46834 10.1913 4.05901 9.59728C3.82701 9.26128 3.25167 8.62861 3.08034 8.30728C2.93167 8.02328 2.94767 7.89595 2.98301 7.66061C3.04567 7.24195 3.47501 6.91595 3.93301 6.95995C4.27901 6.99261 4.57234 7.22128 4.83634 7.43728C4.99567 7.56728 5.19167 7.81995 5.30967 7.96261C5.41834 8.09328 5.44501 8.14728 5.56101 8.30195C5.71434 8.50661 5.76234 8.60795 5.70367 8.38261C5.65634 8.05195 5.57901 7.48728 5.46701 6.98795C5.38167 6.60928 5.36101 6.54995 5.27967 6.25928C5.19367 5.94995 5.14967 5.73328 5.06901 5.40528C5.01301 5.17328 4.91234 4.69928 4.88501 4.43261C4.84701 4.06795 4.82701 3.47328 5.06101 3.19995C5.24434 2.98595 5.66501 2.92128 5.92567 3.05328C6.26701 3.22595 6.46101 3.72195 6.54967 3.91995C6.70901 4.27595 6.80767 4.68728 6.89367 5.22728C7.00301 5.91461 7.20434 6.86861 7.21101 7.06928C7.22701 6.82328 7.16567 6.30528 7.20834 6.06928C7.24701 5.85528 7.42701 5.60661 7.65234 5.53928C7.84301 5.48261 8.06634 5.46195 8.26301 5.50261C8.47167 5.54528 8.69167 5.69461 8.77367 5.83528C9.01501 6.25128 9.01967 7.10128 9.02967 7.05595C9.08701 6.80528 9.07701 6.23661 9.21901 5.99995C9.31234 5.84395 9.55034 5.70328 9.67701 5.68061C9.87301 5.64595 10.1137 5.63528 10.3197 5.67528C10.4857 5.70795 10.7103 5.90528 10.771 5.99995C10.9163 6.22928 10.999 6.87795 11.0237 7.10528C11.0337 7.19928 11.073 6.84395 11.219 6.61461C11.4897 6.18861 12.4477 6.10595 12.4843 7.04061C12.501 7.47661 12.4977 7.45661 12.4977 7.74995C12.4977 8.09461 12.4897 8.30195 12.471 8.55128C12.4503 8.81795 12.393 9.42061 12.3097 9.71261C12.2523 9.91328 12.0623 10.3646 11.875 10.6353C11.875 10.6353 11.159 11.4686 11.081 11.8439C11.0023 12.2186 11.0283 12.2213 11.013 12.4873C10.9977 12.7526 11.0937 13.1019 11.0937 13.1019C11.0937 13.1019 10.559 13.1713 10.271 13.1253C10.0103 13.0833 9.68767 12.5646 9.60434 12.4059C9.48967 12.1873 9.24501 12.2293 9.14967 12.3906C8.99967 12.6459 8.67701 13.1039 8.44901 13.1326C8.00367 13.1886 7.07967 13.1533 6.35634 13.1459C6.35634 13.1459 6.47967 12.4719 6.20501 12.2406C6.00167 12.0679 5.65167 11.7179 5.44234 11.5339L4.88767 10.9199V10.9199Z" stroke="black" stroke-width="0.75" stroke-linecap="round" stroke-linejoin="round"/>
<path d="M10.3776 11.1563V8.85028" stroke="black" stroke-width="0.75" stroke-linecap="round"/>
<path d="M9.03386 11.1641L9.02319 8.84875" stroke="black" stroke-width="0.75" stroke-linecap="round"/>
<path d="M7.70316 8.86981L7.71716 11.1538" stroke="black" stroke-width="0.75" stroke-linecap="round"/>
</svg>
