<svg width="16" height="16" viewBox="0 0 16 16" fill="none" xmlns="http://www.w3.org/2000/svg">
<path d="M2.68523 1.14288H10.2865L13.715 4.6499V14.4745C13.715 14.6858 13.5365 14.8572 13.3163 14.8572H2.68523C2.465 14.8572 2.28647 14.6858 2.28647 14.4745V1.52554C2.28647 1.3142 2.465 1.14288 2.68523 1.14288Z" fill="#ED7B2F"/>
<path d="M10.2865 1.14288V4.2757C10.2865 4.49143 10.4614 4.66632 10.6771 4.66632H13.7708L10.2865 1.14288Z" fill="#FC9F62"/>
<path fill-rule="evenodd" clip-rule="evenodd" d="M7.05662 5.20753C6.60424 5.2464 6.15688 5.28485 5.73513 5.26506C5.70188 8.03948 5.70742 10.8139 5.74899 13.5857H7.34251V10.6695C7.36933 10.6705 7.39623 10.6715 7.42318 10.6725C8.05875 10.6958 8.72515 10.7203 9.30738 10.4307C11.0173 9.61962 11.3221 7.12342 10.1693 5.76378C9.30334 5.01447 8.16489 5.11229 7.05662 5.20753ZM7.49778 6.661C7.43927 6.66412 7.38168 6.6672 7.32554 6.66944C7.31723 7.5435 7.31169 8.41231 7.36711 9.28112C7.45625 9.27062 7.54969 9.26311 7.64494 9.25546C8.12127 9.21718 8.64284 9.17526 8.89689 8.73778C9.03002 8.47044 9.09604 8.17756 9.08979 7.88203C9.08354 7.58651 9.00519 7.29636 8.86086 7.03429C8.54395 6.60515 7.98815 6.63482 7.49778 6.661Z" fill="white"/>
</svg>
