<svg width="16" height="16" viewBox="0 0 16 16" fill="none" xmlns="http://www.w3.org/2000/svg">
<g clip-path="url(#clip0_1652_192)">
<path d="M8.00104 14.6667C11.6829 14.6667 14.6677 11.6819 14.6677 8.00004C14.6677 4.31814 11.6829 1.33337 8.00104 1.33337C4.31914 1.33337 1.33437 4.31814 1.33437 8.00004C1.33437 11.6819 4.31914 14.6667 8.00104 14.6667Z" stroke="#BBBBBB" stroke-opacity="0.3" stroke-width="2" stroke-linejoin="round"/>
<path fill-rule="evenodd" clip-rule="evenodd" d="M11.1071 6.58174C11.4976 6.19122 11.4976 5.55805 11.1071 5.16753C10.7166 4.777 10.0834 4.777 9.69289 5.16753L8.13721 6.72321L6.58157 5.16758C6.19105 4.77705 5.55788 4.77705 5.16736 5.16758C4.77683 5.5581 4.77684 6.19127 5.16736 6.58179L6.72299 8.13743L5.16741 9.69301C4.77689 10.0835 4.77689 10.7167 5.16741 11.1072C5.55794 11.4977 6.1911 11.4977 6.58162 11.1072L8.13721 9.55164L9.69284 11.1073C10.0834 11.4978 10.7165 11.4978 11.1071 11.1073C11.4976 10.7168 11.4976 10.0836 11.1071 9.69306L9.55142 8.13743L11.1071 6.58174Z" fill="#999999"/>
</g>
<defs>
<clipPath id="clip0_1652_192">
<rect width="16" height="16" fill="white"/>
</clipPath>
</defs>
</svg>
