<svg width="16" height="16" viewBox="0 0 16 16" fill="none" xmlns="http://www.w3.org/2000/svg">
<path fill-rule="evenodd" clip-rule="evenodd" d="M12.5 4C12.7761 4 13 3.77614 13 3.5C13 3.22386 12.7761 3 12.5 3C12.2239 3 12 3.22386 12 3.5C12 3.77614 12.2239 4 12.5 4ZM12.5 5C13.3284 5 14 4.32843 14 3.5C14 2.67157 13.3284 2 12.5 2C11.791 2 11.1969 2.4919 11.0403 3.15304L5.60295 5.48338C5.32887 5.18617 4.93617 5 4.5 5C3.67157 5 3 5.67157 3 6.5C3 7.06519 3.31258 7.55736 3.7743 7.81309L3.06572 12.0638C2.44905 12.25 2 12.8226 2 13.5C2 14.3284 2.67157 15 3.5 15C4.32843 15 5 14.3284 5 13.5C5 12.8739 4.61639 12.3374 4.07138 12.1127L4.76071 7.97742C5.46486 7.85402 6 7.23951 6 6.5C6 6.46725 5.99895 6.43474 5.99688 6.40252L11.1662 4.18704C11.4155 4.66989 11.9192 5 12.5 5ZM4 13.5C4 13.7761 3.77614 14 3.5 14C3.22386 14 3 13.7761 3 13.5C3 13.2239 3.22386 13 3.5 13C3.77614 13 4 13.2239 4 13.5ZM10.25 11.25H9.25H7V10.25L9.25 10.25L10.25 10.25H12.5V11.25H10.25Z" fill="#999999"/>
</svg>
