<svg width="16" height="16" viewBox="0 0 16 16" fill="none" xmlns="http://www.w3.org/2000/svg">
<path d="M6.35355 10.3535L6.35355 13.1464L7.35355 13.1464L7.35356 9.14643C7.35356 8.87029 7.1297 8.64643 6.85356 8.64643L2.85356 8.64643L2.85355 9.64643L5.64645 9.64643L2.5 12.7929L3.20711 13.5L6.35355 10.3535Z" fill="#999999"/>
<path d="M9.99996 5.14646L9.99996 2.35357L8.99996 2.35357L8.99996 6.35357C8.99996 6.62971 9.22382 6.85357 9.49996 6.85357L13.5 6.85357L13.5 5.85357L10.7071 5.85357L13.8535 2.7071L13.1464 2L9.99996 5.14646Z" fill="#999999"/>
<path d="M5.57322 5.9268L2.78033 5.9268L2.78033 6.9268L6.78033 6.9268C7.05647 6.9268 7.28033 6.70294 7.28033 6.4268L7.28033 2.4268L6.28033 2.4268L6.28033 5.21969L3.13386 2.07324L2.42676 2.78035L5.57322 5.9268Z" fill="#999999"/>
<path d="M10.7803 9.5732L13.5732 9.5732L13.5732 8.5732L9.57319 8.5732C9.29704 8.5732 9.07319 8.79706 9.07319 9.0732L9.07319 13.0732L10.0732 13.0732L10.0732 10.2803L13.2197 13.4268L13.9268 12.7196L10.7803 9.5732Z" fill="#999999"/>
</svg>
