<svg width="16" height="16" viewBox="0 0 16 16" fill="none" xmlns="http://www.w3.org/2000/svg">
<path d="M1.46492 1.57373C1.20813 1.57373 0.999969 1.7819 0.999969 2.03868C0.999969 2.29546 1.20813 2.50363 1.46492 2.50363H2.26694C2.69785 2.50363 3.07078 2.80334 3.16348 3.22417L5.0847 11.9455C5.1774 12.3664 5.55033 12.6661 5.98124 12.6661H11.5279C11.7847 12.6661 11.9929 12.4579 11.9929 12.2011C11.9929 11.9444 11.7847 11.7362 11.5279 11.7362H6.75399C6.32114 11.7362 5.9471 11.4338 5.85636 11.0106L5.81566 10.8208C5.69312 10.2493 6.12879 9.71034 6.7133 9.71034H12.7751C13.1985 9.71034 13.5669 9.4208 13.6671 9.00942L14.7237 4.66832C14.8644 4.0903 14.4266 3.53316 13.8317 3.53316H4.94443C4.51397 3.53316 4.14132 3.23407 4.04816 2.81381L3.93272 2.29308C3.83956 1.87282 3.4669 1.57373 3.03644 1.57373H1.46492ZM4.64917 5.57552C4.52521 5.00347 4.96105 4.46306 5.54638 4.46306H12.6328C13.2265 4.46306 13.664 5.018 13.5255 5.59527L12.9302 8.07658C12.8312 8.48938 12.462 8.78044 12.0375 8.78044H6.08407C5.65198 8.78044 5.27837 8.47912 5.18686 8.05683L4.64917 5.57552ZM6.11217 13.9585C6.11217 14.2168 6.3216 14.4263 6.57995 14.4263C6.8383 14.4263 7.04773 14.2168 7.04773 13.9585V13.9309C7.04773 13.6726 6.8383 13.4631 6.57995 13.4631C6.3216 13.4631 6.11217 13.6726 6.11217 13.9309V13.9585ZM10.2554 13.9585C10.2554 14.2168 10.4648 14.4263 10.7232 14.4263C10.9815 14.4263 11.191 14.2168 11.191 13.9585V13.9309C11.191 13.6726 10.9815 13.4631 10.7232 13.4631C10.4648 13.4631 10.2554 13.6726 10.2554 13.9309V13.9585Z" fill="black"/>
<path d="M6.27878 6.16406L6.50829 7.54112" stroke="black" stroke-width="0.918037" stroke-linecap="round"/>
</svg>
