<svg width="16" height="16" viewBox="0 0 16 16" fill="none" xmlns="http://www.w3.org/2000/svg">
<path fill-rule="evenodd" clip-rule="evenodd" d="M1.5 1.75C0.947715 1.75 0.5 2.19772 0.5 2.75V13.25C0.5 13.8023 0.947715 14.25 1.5 14.25H7.5C8.05229 14.25 8.5 13.8023 8.5 13.25V2.75C8.5 2.19772 8.05229 1.75 7.5 1.75H1.5ZM1.5 13.25V2.75H7.5V13.25H1.5ZM6 12.25H3V11.25H6V12.25ZM9 7.75H14.5V13.25H9V14.25H14.5C15.0523 14.25 15.5 13.8023 15.5 13.25V7.75C15.5 7.19772 15.0523 6.75 14.5 6.75H9V7.75Z" fill="#999999"/>
</svg>
