<svg width="16" height="16" viewBox="0 0 16 16" fill="none" xmlns="http://www.w3.org/2000/svg">
<path d="M7.45787 9.08473C6.56014 9.08473 5.83237 8.35697 5.83237 7.45924C5.83237 6.5615 6.56014 5.83374 7.45787 5.83374" stroke="black" stroke-width="0.812502" stroke-linecap="round" stroke-linejoin="round"/>
<path d="M10.1654 9.08485C9.26767 9.08485 8.53991 8.35709 8.53991 7.45936C8.53991 6.56162 9.26767 5.83386 10.1654 5.83386" stroke="black" stroke-width="0.812502" stroke-linecap="round" stroke-linejoin="round"/>
<path d="M8.53991 7.45789H10.1656" stroke="black" stroke-width="0.812502" stroke-linecap="round" stroke-linejoin="round"/>
<path d="M8.04644 2.80926C8.28151 2.80926 8.4719 2.62233 8.4719 2.38998V1.37717C8.4719 1.14588 8.28151 0.957886 8.04644 0.957886C7.81137 0.957886 7.61991 1.14482 7.61991 1.37717V2.38998C7.62097 2.62233 7.81137 2.80926 8.04644 2.80926ZM4.46829 4.22869C4.57785 4.22869 4.68634 4.1875 4.7693 4.10512C4.9363 3.94142 4.9363 3.67634 4.7693 3.51369L4.0407 2.79659C3.8737 2.63289 3.6046 2.63289 3.43867 2.79659C3.27167 2.96029 3.27167 3.22537 3.43867 3.38907L4.16727 4.10512C4.24918 4.1875 4.35873 4.22869 4.46829 4.22869ZM2.95683 6.88166H1.92615C1.69108 6.88166 1.49962 7.06859 1.49962 7.30094C1.49962 7.53223 1.69001 7.72022 1.92615 7.72022H2.95683C3.1919 7.72022 3.38336 7.53328 3.38336 7.30094C3.38336 7.06965 3.19296 6.88166 2.95683 6.88166ZM14.0731 6.97565H13.0424C12.8074 6.97565 12.6159 7.16259 12.6159 7.39493C12.6159 7.62622 12.8074 7.81421 13.0424 7.81421H14.0731C14.3082 7.81421 14.4997 7.62728 14.4997 7.39493C14.4997 7.16259 14.3093 6.97565 14.0731 6.97565ZM11.6001 4.29417C11.7097 4.29417 11.8182 4.25298 11.9011 4.17166L12.6297 3.45455C12.7967 3.29085 12.7967 3.02577 12.6297 2.86207C12.4627 2.69837 12.1936 2.69837 12.0266 2.86207L11.297 3.57917C11.131 3.74287 11.131 4.00796 11.297 4.17166C11.3821 4.25298 11.4895 4.29417 11.6001 4.29417ZM9.57279 12.6111H6.42755C6.19248 12.6111 6.00102 12.7991 6.00102 13.0304C6.00102 13.2617 6.19142 13.4497 6.42755 13.4497H9.57279C9.80786 13.4497 9.99931 13.2627 9.99931 13.0304C9.99825 12.7991 9.80679 12.6111 9.57279 12.6111ZM9.00373 14.2027H6.99661C6.76154 14.2027 6.57008 14.3896 6.57008 14.622C6.57008 14.8532 6.76047 15.0412 6.99661 15.0412H9.00267C9.23773 15.0412 9.42919 14.8532 9.42919 14.622C9.43026 14.3896 9.2388 14.2027 9.00373 14.2027Z" fill="black"/>
<path d="M11.9269 7.45981C11.9269 9.62893 10.1685 11.3873 7.99941 11.3873C5.83029 11.3873 4.07188 9.62893 4.07188 7.45981C4.07188 5.2907 5.83029 3.53229 7.99941 3.53229C10.1685 3.53229 11.9269 5.2907 11.9269 7.45981Z" stroke="black" stroke-width="0.812502"/>
</svg>
