<svg width="16" height="16" viewBox="0 0 16 16" fill="none" xmlns="http://www.w3.org/2000/svg">
<path d="M8.00075 14.9998C7.82876 15 7.65977 14.9569 7.51098 14.8747L3.71976 12.7751L3.67616 12.8123C3.5177 12.9464 3.33294 13.0492 3.13254 13.1149C2.93215 13.1805 2.72009 13.2077 2.50862 13.1948C2.29715 13.1819 2.09046 13.1292 1.90048 13.0398C1.71049 12.9503 1.54099 12.8258 1.40175 12.6736C0.813982 12.0331 0.878933 11.0568 1.5468 10.4929C1.70671 10.3578 1.89326 10.2545 2.09555 10.1888L2.15086 10.1709V5.97203C2.15111 5.80733 2.19653 5.64556 2.2826 5.50274C2.36867 5.35993 2.49241 5.24104 2.64154 5.15785L6.48761 3.02855L6.46971 2.96927C6.42816 2.83122 6.40708 2.6883 6.40706 2.54468C6.40752 1.69091 7.12932 0.999441 8.01934 0.999878C8.90937 1.00032 9.63048 1.69244 9.63002 2.54599C9.63002 2.69474 9.60753 2.84305 9.56323 2.98568L9.54464 3.04518L13.36 5.15763C13.5089 5.24096 13.6325 5.35989 13.7186 5.50268C13.8046 5.64546 13.85 5.80717 13.8504 5.97181V10.1709L13.9055 10.1891C14.7482 10.4627 15.1999 11.3397 14.9144 12.1477C14.6289 12.9558 13.7141 13.3889 12.8718 13.1153C12.6703 13.0498 12.4844 12.9468 12.3249 12.8123L12.2813 12.7749L8.49098 14.8744C8.34163 14.956 8.17285 14.9993 8.00075 14.9998ZM4.18337 11.2922L4.19507 11.3465C4.23725 11.5471 4.23725 11.7537 4.19507 11.9544L4.1836 12.0086L8.00144 14.1235L11.8193 12.0125L11.8078 11.957C11.7654 11.7568 11.7654 11.5506 11.8078 11.3504L11.8193 11.2948L10.4707 10.5478L8.23347 11.7826C8.16348 11.8215 8.08399 11.842 8.003 11.8423C7.92202 11.8425 7.8424 11.8224 7.77216 11.784L5.53218 10.5437L4.18337 11.2922ZM13.388 10.9903C13.0074 10.9912 12.6994 11.2878 12.7006 11.6529C12.7005 11.7394 12.7183 11.8251 12.753 11.9051C12.7877 11.9851 12.8386 12.0577 12.9027 12.1189C12.9669 12.1802 13.0431 12.2287 13.1269 12.2619C13.2107 12.2951 13.3006 12.3122 13.3914 12.3122C13.7722 12.3114 14.0799 12.0147 14.079 11.6496C14.0791 11.4754 14.0069 11.3083 13.878 11.1847C13.7491 11.0611 13.5742 10.9913 13.3914 10.9903H13.388ZM2.61262 10.9903C2.23187 10.9912 1.9241 11.2878 1.92502 11.6529C1.92496 11.7394 1.94278 11.8251 1.97747 11.9051C2.01215 11.9851 2.06302 12.0577 2.12717 12.1189C2.19132 12.1802 2.26749 12.2287 2.35133 12.2619C2.43518 12.2951 2.52506 12.3122 2.61584 12.3122C2.99659 12.3114 3.30436 12.0147 3.30344 11.6499C3.30368 11.4756 3.23147 11.3083 3.10259 11.1846C2.97372 11.061 2.7987 10.991 2.61584 10.9901L2.61262 10.9903ZM5.99372 7.55642V9.78L8.00121 10.8923L10.0085 9.78V7.55642L8.00121 6.44409L5.99372 7.55642ZM8.96261 3.79767C8.82764 3.89234 8.67774 3.96595 8.51852 4.01576L8.46206 4.03261V5.67912L10.6986 6.91658C10.7699 6.95512 10.8291 7.01105 10.8702 7.07864C10.9113 7.14623 10.9328 7.22303 10.9325 7.30114V9.78022L12.282 10.5272L12.3256 10.4901C12.4849 10.3562 12.6704 10.2535 12.8713 10.188L12.9269 10.1698V5.93965L9.0053 3.7677L8.96261 3.79767ZM3.07531 5.93987V10.1685L3.13085 10.1867C3.33199 10.2516 3.51748 10.3542 3.67639 10.4885L3.72045 10.5259L5.06995 9.77891V7.29961C5.07015 7.22237 5.09149 7.14651 5.13186 7.07952C5.17223 7.01254 5.23024 6.95676 5.30015 6.91768L7.54013 5.67737V4.02189L7.48528 4.00264C7.33286 3.95228 7.18961 3.87959 7.06069 3.78717L7.01777 3.75611L3.07531 5.93987ZM8.01888 1.88362C7.92804 1.88385 7.83814 1.90113 7.75431 1.93448C7.67047 1.96782 7.59435 2.01658 7.53029 2.07797C7.46623 2.13935 7.41548 2.21216 7.38094 2.29224C7.3464 2.37232 7.32874 2.4581 7.32899 2.54468C7.32865 2.63126 7.34622 2.71706 7.38067 2.79717C7.41513 2.87728 7.4658 2.95014 7.5298 3.01159C7.5938 3.07303 7.66987 3.12186 7.75367 3.15529C7.83747 3.18871 7.92735 3.20608 8.01819 3.20639C8.10905 3.20619 8.19898 3.18893 8.28284 3.1556C8.3667 3.12227 8.44285 3.07351 8.50693 3.01213C8.57102 2.95074 8.62179 2.87792 8.65635 2.79783C8.6909 2.71773 8.70856 2.63194 8.70832 2.54534V2.54446C8.7085 2.36977 8.63601 2.20213 8.50673 2.0783C8.37745 1.95446 8.20216 1.88432 8.01888 1.88362Z" fill="black"/>
</svg>
