<svg width="16" height="16" viewBox="0 0 16 16" fill="none" xmlns="http://www.w3.org/2000/svg">
<path d="M7.99992 1.00002C8.12944 1.00002 8.25365 1.05147 8.34523 1.14305C8.43681 1.23463 8.48826 1.35884 8.48826 1.48835C8.48826 1.61787 8.43681 1.74208 8.34523 1.83366C8.25365 1.92524 8.12944 1.97669 7.99992 1.97669C4.68826 1.97669 1.9766 4.68836 1.9766 8.00003C1.9766 11.3117 4.68826 14.0234 7.99992 14.0234C11.3116 14.0234 14.0232 11.3117 14.0232 8.00003C14.0232 7.87051 14.0747 7.7463 14.1663 7.65472C14.2579 7.56314 14.3821 7.51169 14.5116 7.51169C14.6411 7.51169 14.7653 7.56314 14.8569 7.65472C14.9485 7.7463 14.9999 7.87051 14.9999 8.00003C14.9999 11.851 11.8509 15 7.99992 15C4.14893 15 0.999939 11.851 0.999939 8.00003C0.999939 4.14902 4.14893 1.00002 7.99992 1.00002ZM7.99992 4.33336C8.12679 4.33336 8.24845 4.38375 8.33816 4.47346C8.42786 4.56316 8.47826 4.68483 8.47826 4.81169C8.47826 4.93855 8.42786 5.06022 8.33816 5.14992C8.24845 5.23963 8.12679 5.29002 7.99992 5.29002C6.51059 5.29002 5.28993 6.51069 5.28993 8.00003C5.28993 9.48936 6.51059 10.71 7.99992 10.71C9.48925 10.71 10.7099 9.48936 10.7099 8.00003C10.7099 7.87316 10.7603 7.7515 10.85 7.66179C10.9397 7.57209 11.0614 7.52169 11.1883 7.52169C11.3151 7.52169 11.4368 7.57209 11.5265 7.66179C11.6162 7.7515 11.6666 7.87316 11.6666 8.00003C11.6666 10.0177 10.0176 11.6667 7.99992 11.6667C5.98226 11.6667 4.33327 10.0177 4.33327 8.00003C4.33327 5.98236 5.98226 4.33336 7.99992 4.33336ZM11.8126 1.14735C12.1276 0.832354 12.6659 1.05569 12.6659 1.50069V3.33402H14.4992C14.9292 3.33402 15.1519 3.83602 14.8832 4.15402L14.8526 4.18736L12.8526 6.18702C12.7588 6.2807 12.6318 6.33333 12.4992 6.33336H10.3733L8.18659 8.52003C8.09589 8.61031 7.97402 8.66238 7.84609 8.66551C7.71815 8.66864 7.59388 8.6226 7.49887 8.53686C7.40386 8.45112 7.34535 8.33221 7.33537 8.20463C7.3254 8.07704 7.36473 7.95049 7.44526 7.85103L7.47959 7.81302L9.66659 5.62602V3.50069C9.66666 3.38521 9.70671 3.27332 9.77992 3.18402L9.81325 3.14736L11.8126 1.14735ZM11.6819 2.66669L10.6666 3.68202V5.33336H12.3179L13.3332 4.31802H12.1899C12.0637 4.31811 11.942 4.27118 11.8485 4.18638C11.755 4.10158 11.6964 3.98499 11.6842 3.85936L11.6819 3.81036V2.66669Z" fill="black"/>
</svg>
