<svg width="16" height="16" viewBox="0 0 16 16" fill="none" xmlns="http://www.w3.org/2000/svg">
<path fill-rule="evenodd" clip-rule="evenodd" d="M11 2.25H4L4 13.75H11V9.85665L12 8.85665V13.75C12 14.3023 11.5523 14.75 11 14.75H4C3.44772 14.75 3 14.3023 3 13.75V2.25C3 1.69772 3.44772 1.25 4 1.25H11C11.5523 1.25 12 1.69772 12 2.25V4.61401L11 5.61401V2.25ZM13.7914 4.59686L14.1478 4.96281C14.3027 5.12192 14.3027 5.3924 14.1478 5.55151L10.4915 9.30648C10.4295 9.35422 10.3521 9.40195 10.2746 9.41786L9.39153 9.57697H9.37604C9.31407 9.57697 9.26759 9.52924 9.28308 9.46559L9.43801 8.55867C9.4535 8.47912 9.48448 8.39956 9.54645 8.33592L13.2027 4.59686C13.2802 4.5173 13.3886 4.46957 13.4971 4.46957C13.6055 4.46957 13.714 4.5173 13.7914 4.59686Z" fill="black" fill-opacity="0.9"/>
<rect x="5.25" y="11" width="4.5" height="1" fill="#307AF2"/>
</svg>
