<svg width="32" height="32" viewBox="0 0 32 32" fill="none" xmlns="http://www.w3.org/2000/svg">
<rect width="32" height="32" rx="4" fill="#0052D9"/>
<path d="M24.2579 18.5975L24.6667 19.0063L20.9874 22.6855L22.3774 23.9937L25.9218 20.4492C26.3123 20.0587 26.3123 19.4256 25.9218 19.035L24.9717 18.0849C24.5786 17.6918 23.9402 17.6948 23.5508 18.0917L20.0063 21.7044L20.5786 22.2767L24.2579 18.5975ZM28.2929 18.0782C28.6834 17.6877 28.6834 17.0545 28.2929 16.664L27.336 15.7071C26.9455 15.3166 26.3123 15.3166 25.9218 15.7071L25.0755 16.5535L27.4465 18.9245L28.2929 18.0782ZM18.7799 24.8931L18.3711 24.4843L20.5786 22.2767L20.0063 21.7044L17.1447 24.566L16.627 26.1191C16.3674 26.8978 17.1047 27.6403 17.8852 27.3862L19.5157 26.8553L22.3774 23.9937L20.9874 22.6855L18.7799 24.8931Z" fill="white" fill-opacity="0.5"/>
<path d="M22 8H11C9.89543 8 9 8.89543 9 10V23C9 24.1046 9.89543 25 11 25H13.6666C14.2 25 14.7113 24.7869 15.0868 24.4081L23.4203 16.003C23.7916 15.6284 24 15.1223 24 14.5949V10C24 8.89543 23.1046 8 22 8Z" fill="white"/>
<rect x="12" y="14.5" width="9" height="1" rx="0.5" fill="#0052D9"/>
<rect x="12" y="11" width="9" height="1" rx="0.5" fill="#0052D9"/>
<rect x="12" y="18" width="5" height="1" rx="0.5" fill="#0052D9"/>
</svg>
