<svg width="16" height="16" viewBox="0 0 16 16" fill="none" xmlns="http://www.w3.org/2000/svg">
<path d="M9.51081 1.7002C10.3156 1.7002 10.9712 2.38242 10.9712 3.21975L10.9702 4.59992H13.5396C14.297 4.59992 14.9225 5.20565 14.993 5.97486L15 6.12053V13.8283C15.0001 13.901 14.984 13.9727 14.953 14.0379C14.922 14.103 14.8769 14.1598 14.8214 14.2038C14.7658 14.2479 14.7012 14.2779 14.6326 14.2917C14.564 14.3055 14.4933 14.3025 14.4259 14.2832L14.3494 14.2517L10.5633 12.3496H6.48922C6.1266 12.3486 5.77723 12.2077 5.50875 11.9541C5.24026 11.7005 5.07175 11.3523 5.03584 10.9768L5.02879 10.8301L5.02778 10.2736L1.7 12.5226C1.64282 12.5614 1.57793 12.5863 1.51019 12.5954C1.44246 12.6045 1.37362 12.5976 1.30882 12.5751C1.24403 12.5527 1.18495 12.5152 1.13601 12.4657C1.08707 12.4161 1.04952 12.3557 1.02619 12.2889L1.00604 12.2113L1 12.1275V3.21975C1 2.38242 1.65569 1.7002 2.46044 1.7002H9.51081ZM10.9712 8.45959C10.9712 9.29692 10.3156 9.97914 9.51081 9.97914H5.93426L5.93526 10.8311C5.93526 11.1151 6.13771 11.3551 6.39958 11.4002L6.48922 11.4075H10.6691L10.8665 11.4547L14.0936 13.0759V6.12053C14.0936 5.83653 13.8911 5.59654 13.6292 5.55148L13.5396 5.54414L10.9702 5.5431L10.9712 8.45959ZM9.51081 2.64337H2.46044C2.31376 2.64419 2.17332 2.70518 2.0696 2.8131C1.96589 2.92101 1.90727 3.06714 1.90648 3.21975V11.2587L5.08418 9.11247C5.13286 9.07928 5.18724 9.05615 5.24433 9.04436L5.33095 9.03597H9.51081C9.81398 9.03597 10.0648 8.77503 10.0648 8.45959V3.21975C10.064 3.06714 10.0054 2.92101 9.90164 2.8131C9.79793 2.70518 9.65749 2.64419 9.51081 2.64337ZM4.97843 6.41605C5.0918 6.41581 5.20114 6.45977 5.28488 6.53928C5.36863 6.61879 5.42069 6.72807 5.43081 6.84556C5.44092 6.96305 5.40835 7.08021 5.33953 7.17394C5.2707 7.26767 5.17061 7.33117 5.059 7.35189L4.97843 7.35922H3.97123C3.85786 7.35947 3.74852 7.3155 3.66478 7.23599C3.58103 7.15648 3.52897 7.04721 3.51885 6.92972C3.50873 6.81223 3.5413 6.69506 3.61013 6.60133C3.67896 6.5076 3.77905 6.44411 3.89065 6.42339L3.97123 6.41605H4.97843ZM6.48922 4.32012C6.60259 4.31987 6.71193 4.36384 6.79568 4.44335C6.87942 4.52286 6.93149 4.63213 6.9416 4.74962C6.95172 4.86711 6.91915 4.98428 6.85032 5.07801C6.78149 5.17174 6.6814 5.23523 6.5698 5.25595L6.48922 5.26329H3.97123C3.85786 5.26353 3.74852 5.21957 3.66478 5.14006C3.58103 5.06055 3.52897 4.95127 3.51885 4.83378C3.50873 4.71629 3.5413 4.59913 3.61013 4.5054C3.67896 4.41166 3.77905 4.34818 3.89065 4.32745L3.97123 4.32012H6.48922Z" fill="black"/>
</svg>
