<svg width="16" height="16" viewBox="0 0 16 16" fill="none" xmlns="http://www.w3.org/2000/svg">
<path fill-rule="evenodd" clip-rule="evenodd" d="M5.80488 3.51951C5.80488 2.8891 6.31593 2.37805 6.94634 2.37805H9.05366C9.68407 2.37805 10.1951 2.8891 10.1951 3.51951C10.1951 4.14993 9.68407 4.66098 9.05366 4.66098H6.94634C6.31593 4.66098 5.80488 4.14993 5.80488 3.51951ZM6.94634 1.5C5.831 1.5 4.92683 2.40417 4.92683 3.51951C4.92683 4.29916 5.36863 4.97562 6.01553 5.3122L4.76378 8.81707H3.02439C2.45864 8.81707 2 9.2757 2 9.84146V11.5976V13.061C2 13.6267 2.45864 14.0854 3.02439 14.0854H12.9756C13.5414 14.0854 14 13.6267 14 13.061V11.5976V9.84146C14 9.2757 13.5414 8.81707 12.9756 8.81707H11.2362L9.98447 5.3122C10.6314 4.97562 11.0732 4.29916 11.0732 3.51951C11.0732 2.40417 10.169 1.5 9.05366 1.5H6.94634ZM6.84598 5.59756L5.69615 8.81707H10.3039L9.15402 5.59756H6.84598ZM3.02439 9.69512H5.07317H10.9268H12.9756C13.0564 9.69512 13.122 9.76063 13.122 9.84146V10.5835C13.0742 10.5767 13.0253 10.5732 12.9756 10.5732H3.02439C2.9747 10.5732 2.92584 10.5767 2.87805 10.5835V9.84146C2.87805 9.76064 2.94356 9.69512 3.02439 9.69512ZM2.87805 11.5976V13.061C2.87805 13.1418 2.94356 13.2073 3.02439 13.2073H12.9756C13.0564 13.2073 13.122 13.1418 13.122 13.061V11.5976C13.122 11.5167 13.0564 11.4512 12.9756 11.4512H3.02439C2.94356 11.4512 2.87805 11.5167 2.87805 11.5976Z" fill="#999999"/>
</svg>
