<svg width="16" height="16" viewBox="0 0 16 16" fill="none" xmlns="http://www.w3.org/2000/svg">
<path d="M9.7105 5.82096L9.82386 6.06248L10.0876 6.10278L13.3854 6.60664C13.6268 6.64352 13.7254 6.93793 13.5549 7.11271L11.1421 9.58558L10.9659 9.76619L11.0065 10.0152L11.5675 13.4545C11.6079 13.7017 11.3455 13.8865 11.1263 13.7654L8.24189 12.1709L8 12.0372L7.75811 12.1709L4.87369 13.7654C4.65452 13.8865 4.39215 13.7017 4.43246 13.4545L4.99348 10.0152L5.0341 9.76619L4.85788 9.58558L2.44514 7.11271C2.27462 6.93794 2.37318 6.64352 2.61456 6.60664L5.9124 6.10278L6.17614 6.06248L6.2895 5.82096L7.72843 2.75534C7.8364 2.5253 8.1636 2.5253 8.27157 2.75534L9.7105 5.82096Z" stroke="#999999"/>
</svg>
