<svg width="16" height="16" viewBox="0 0 16 16" fill="none" xmlns="http://www.w3.org/2000/svg">
<path fill-rule="evenodd" clip-rule="evenodd" d="M8.35359 1.64645C8.15833 1.45118 7.84175 1.45118 7.64648 1.64645L1.14648 8.14645L1.85359 8.85355L3.00004 7.70711V13.5C3.00004 14.0523 3.44775 14.5 4.00004 14.5H12C12.5523 14.5 13 14.0523 13 13.5V7.70711L14.1465 8.85355L14.8536 8.14645L8.35359 1.64645ZM4.00004 6.70711L8.00004 2.70711L12 6.70711V13.5H10.5V9.99999C10.5 9.17156 9.82843 8.49999 9 8.49999H7C6.17157 8.49999 5.5 9.17156 5.5 9.99999V13.5H4.00004V6.70711ZM6.5 13.5H9.5V9.99999C9.5 9.72384 9.27614 9.49999 9 9.49999H7C6.72386 9.49999 6.5 9.72384 6.5 9.99999V13.5Z" fill="#999999"/>
</svg>
