<svg width="32" height="32" viewBox="0 0 32 32" fill="none" xmlns="http://www.w3.org/2000/svg">
<path fill-rule="evenodd" clip-rule="evenodd" d="M22.0616 2.1176C22.3133 1.98847 22.606 1.96463 22.8753 2.05131C24.5198 2.58065 26.044 3.42872 27.3608 4.5471C28.6775 5.66548 29.7611 7.03226 30.5497 8.56941C31.3382 10.1066 31.8163 11.784 31.9566 13.5059C32.0968 15.2278 31.8966 16.9605 31.3672 18.605C31.1867 19.1658 30.5858 19.474 30.0251 19.2935L18.5176 15.5895C17.9569 15.409 17.6486 14.808 17.8291 14.2473L21.5331 2.73984C21.6198 2.47055 21.8099 2.24672 22.0616 2.1176ZM9.58575 4.7566C12.09 4.05056 14.7475 4.10298 17.222 4.90724C17.7822 5.08933 18.0888 5.69113 17.9067 6.25138L14.4997 16.7338L24.9821 20.1408C25.2512 20.2283 25.4745 20.419 25.6029 20.6711C25.7313 20.9232 25.7543 21.2159 25.6669 21.485C24.8626 23.9595 23.3426 26.1399 21.2992 27.7506C19.2557 29.3612 16.7805 30.3297 14.1866 30.5336C11.5926 30.7375 8.9965 30.1677 6.72645 28.8961C4.4564 27.6246 2.61438 25.7084 1.43334 23.39C0.252303 21.0716 -0.214718 18.455 0.091337 15.8711C0.397392 13.2872 1.46278 10.8522 3.15277 8.8738C4.84276 6.89544 7.08145 5.46264 9.58575 4.7566Z" fill="url(#paint0_linear_1724_152)"/>
<defs>
<linearGradient id="paint0_linear_1724_152" x1="16" y1="2" x2="16" y2="30.5741" gradientUnits="userSpaceOnUse">
<stop stop-color="#2578FA"/>
<stop offset="1" stop-color="#0052D4"/>
</linearGradient>
</defs>
</svg>
