<svg width="32" height="32" viewBox="0 0 32 32" fill="none" xmlns="http://www.w3.org/2000/svg">
<path fill-rule="evenodd" clip-rule="evenodd" d="M10.5833 2C11.1816 2 11.6667 2.48502 11.6667 3.08333V4.88889H9.5V3.08333C9.5 2.48502 9.98502 2 10.5833 2ZM21.7778 4.88889H26.1111C27.7066 4.88889 29 6.18229 29 7.77778V28C29 29.5955 27.7066 30.8889 26.1111 30.8889H5.88889C4.2934 30.8889 3 29.5955 3 28V7.77778C3 6.18229 4.2934 4.88889 5.88889 4.88889H9.5V8.13886C9.5 8.73717 9.98502 9.2222 10.5833 9.2222C11.1816 9.2222 11.6667 8.73717 11.6667 8.13886L11.6667 4.88889H19.6111V8.13886C19.6111 8.73717 20.0961 9.2222 20.6944 9.2222C21.2928 9.2222 21.7778 8.73717 21.7778 8.13886L21.7778 4.88889ZM21.7778 4.88889V3.08333C21.7778 2.48502 21.2928 2 20.6944 2C20.0961 2 19.6111 2.48502 19.6111 3.08333V4.88889H21.7778ZM8.77778 15.3611C8.77778 14.7628 9.2628 14.2778 9.86111 14.2778H19.25C19.8483 14.2778 20.3333 14.7628 20.3333 15.3611C20.3333 15.9594 19.8483 16.4444 19.25 16.4444H9.86111C9.2628 16.4444 8.77778 15.9594 8.77778 15.3611ZM9.86111 20.0555C9.2628 20.0555 8.77778 20.5406 8.77778 21.1389C8.77778 21.7372 9.2628 22.2222 9.86111 22.2222H14.9167C15.515 22.2222 16 21.7372 16 21.1389C16 20.5406 15.515 20.0555 14.9167 20.0555H9.86111Z" fill="url(#paint0_linear_1724_151)"/>
<defs>
<linearGradient id="paint0_linear_1724_151" x1="16" y1="2" x2="16" y2="30.8889" gradientUnits="userSpaceOnUse">
<stop stop-color="#2578FA"/>
<stop offset="1" stop-color="#0052D4"/>
</linearGradient>
</defs>
</svg>
