<svg width="32" height="32" viewBox="0 0 32 32" fill="none" xmlns="http://www.w3.org/2000/svg">
<path fill-rule="evenodd" clip-rule="evenodd" d="M11.6667 3C13.2622 3 14.5556 4.2934 14.5556 5.88889V11.6667C14.5556 13.2622 13.2622 14.5556 11.6667 14.5556H5.88889C4.2934 14.5556 3 13.2622 3 11.6667V5.88889C3 4.2934 4.2934 3 5.88889 3H11.6667ZM5.88889 5.16667C5.49002 5.16667 5.16667 5.49002 5.16667 5.88889V11.6667C5.16667 12.0655 5.49002 12.3889 5.88889 12.3889H11.6667C12.0655 12.3889 12.3889 12.0655 12.3889 11.6667V5.88889C12.3889 5.49002 12.0655 5.16667 11.6667 5.16667H5.88889ZM11.6667 17.4444C13.2622 17.4444 14.5556 18.7378 14.5556 20.3333V26.1111C14.5556 27.7066 13.2622 29 11.6667 29H5.88889C4.2934 29 3 27.7066 3 26.1111V20.3333C3 18.7378 4.2934 17.4444 5.88889 17.4444H11.6667ZM5.88889 19.6111C5.49002 19.6111 5.16667 19.9345 5.16667 20.3333V26.1111C5.16667 26.51 5.49002 26.8333 5.88889 26.8333H11.6667C12.0655 26.8333 12.3889 26.51 12.3889 26.1111V20.3333C12.3889 19.9345 12.0655 19.6111 11.6667 19.6111H5.88889ZM17.4444 5.88889C17.4444 4.2934 18.7378 3 20.3333 3H26.1111C27.7066 3 29 4.2934 29 5.88889V11.6667C29 13.2622 27.7066 14.5556 26.1111 14.5556H20.3333C18.7378 14.5556 17.4444 13.2622 17.4444 11.6667V5.88889ZM20.3333 5.16667C19.9345 5.16667 19.6111 5.49002 19.6111 5.88889V11.6667C19.6111 12.0655 19.9345 12.3889 20.3333 12.3889H26.1111C26.51 12.3889 26.8333 12.0655 26.8333 11.6667V5.88889C26.8333 5.49002 26.51 5.16667 26.1111 5.16667H20.3333ZM26.1111 17.4444C27.7066 17.4444 29 18.7378 29 20.3333V26.1111C29 27.7066 27.7066 29 26.1111 29H20.3333C18.7378 29 17.4444 27.7066 17.4444 26.1111V20.3333C17.4444 18.7378 18.7378 17.4444 20.3333 17.4444H26.1111ZM20.3333 19.6111C19.9345 19.6111 19.6111 19.9345 19.6111 20.3333V26.1111C19.6111 26.51 19.9345 26.8333 20.3333 26.8333H26.1111C26.51 26.8333 26.8333 26.51 26.8333 26.1111V20.3333C26.8333 19.9345 26.51 19.6111 26.1111 19.6111H20.3333Z" fill="#999999"/>
</svg>
