<svg width="32" height="32" viewBox="0 0 32 32" fill="none" xmlns="http://www.w3.org/2000/svg">
<path fill-rule="evenodd" clip-rule="evenodd" d="M5.88889 3C4.2934 3 3 4.2934 3 5.88889V11.6667C3 13.2622 4.2934 14.5556 5.88889 14.5556H11.6667C13.2622 14.5556 14.5556 13.2622 14.5556 11.6667V5.88889C14.5556 4.2934 13.2622 3 11.6667 3H5.88889ZM5.88889 17.4444C4.2934 17.4444 3 18.7378 3 20.3333V26.1111C3 27.7066 4.2934 29 5.88889 29H11.6667C13.2622 29 14.5556 27.7066 14.5556 26.1111V20.3333C14.5556 18.7378 13.2622 17.4444 11.6667 17.4444H5.88889ZM17.4444 5.88889C17.4444 4.2934 18.7378 3 20.3333 3H26.1111C27.7066 3 29 4.2934 29 5.88889V11.6667C29 13.2622 27.7066 14.5556 26.1111 14.5556H20.3333C18.7378 14.5556 17.4444 13.2622 17.4444 11.6667V5.88889ZM20.3333 17.4444C18.7378 17.4444 17.4444 18.7378 17.4444 20.3333V26.1111C17.4444 27.7066 18.7378 29 20.3333 29H26.1111C27.7066 29 29 27.7066 29 26.1111V20.3333C29 18.7378 27.7066 17.4444 26.1111 17.4444H20.3333Z" fill="url(#paint0_linear_1724_153)"/>
<defs>
<linearGradient id="paint0_linear_1724_153" x1="16" y1="3" x2="16" y2="29" gradientUnits="userSpaceOnUse">
<stop stop-color="#2578FA"/>
<stop offset="1" stop-color="#0052D4"/>
</linearGradient>
</defs>
</svg>
