<svg width="32" height="32" viewBox="0 0 32 32" fill="none" xmlns="http://www.w3.org/2000/svg">
<path fill-rule="evenodd" clip-rule="evenodd" d="M22.8753 2.05159C22.3145 1.87109 21.7136 2.17936 21.5331 2.74013L17.829 14.2476C17.6485 14.8084 17.9568 15.4093 18.5176 15.5898L30.025 19.2938C30.5858 19.4743 31.1867 19.1661 31.3672 18.6053C31.8966 16.9608 32.0968 15.2281 31.9565 13.5062C31.8163 11.7843 31.3382 10.1069 30.5496 8.56971C29.7611 7.03256 28.6775 5.66577 27.3607 4.54739C26.044 3.42901 24.5198 2.58094 22.8753 2.05159ZM20.1866 13.8859L23.2211 4.45839C24.2185 4.88991 25.1484 5.46737 25.9797 6.1734C27.0829 7.11042 27.9908 8.25556 28.6515 9.54345C29.3122 10.8313 29.7127 12.2367 29.8302 13.6794C29.9188 14.7665 29.8454 15.8586 29.6141 16.9204L20.1866 13.8859ZM17.222 4.90753C14.7475 4.10326 12.0901 4.05084 9.58577 4.75688C7.08147 5.46293 4.84277 6.89573 3.15278 8.8741C1.46278 10.8525 0.397393 13.2876 0.0913372 15.8714C-0.214719 18.4553 0.252304 21.0719 1.43335 23.3903C2.61439 25.7088 4.45641 27.6249 6.72646 28.8965C8.99652 30.168 11.5927 30.7379 14.1866 30.534C16.7805 30.3301 19.2557 29.3615 21.2992 27.7509C23.3427 26.1402 24.8627 23.9598 25.6669 21.4853C25.849 20.925 25.5425 20.3232 24.9822 20.1411L14.4997 16.7341L17.9067 6.25167C18.0888 5.69141 17.7823 5.08962 17.222 4.90753ZM10.1647 6.81018C11.919 6.31557 13.763 6.26522 15.5322 6.65588L12.1412 17.0892C12.0537 17.3582 12.0767 17.651 12.2051 17.903C12.3335 18.1551 12.5568 18.3458 12.8259 18.4333L23.2592 21.8243C22.535 23.4851 21.4101 24.9471 19.9786 26.0754C18.2665 27.4249 16.1927 28.2364 14.0194 28.4072C11.8461 28.578 9.67097 28.1006 7.76902 27.0352C5.86708 25.9699 4.32377 24.3644 3.33425 22.422C2.34473 20.4795 1.95344 18.2872 2.20986 16.1224C2.46629 13.9575 3.35891 11.9173 4.77485 10.2597C6.19079 8.60218 8.06646 7.40173 10.1647 6.81018Z" fill="#999999"/>
</svg>
