<svg width="32" height="32" viewBox="0 0 32 32" fill="none" xmlns="http://www.w3.org/2000/svg">
<path fill-rule="evenodd" clip-rule="evenodd" d="M16 16.5556C20.2955 16.5556 23.7778 13.0733 23.7778 8.77778C23.7778 4.48223 20.2955 1 16 1C11.7045 1 8.22222 4.48223 8.22222 8.77778C8.22222 13.0733 11.7045 16.5556 16 16.5556ZM27.8356 20.8921C29.1249 21.304 30 22.5022 30 23.8556V28C30 29.7182 28.6071 31.1111 26.8889 31.1111H5.11111C3.39289 31.1111 2 29.7182 2 28V23.8567C2 22.5033 2.87496 21.3052 4.16413 20.8932L11.2658 18.6239C14.3452 17.6399 17.6548 17.6397 20.7343 18.6235L27.8356 20.8921Z" fill="url(#paint0_linear_1724_150)"/>
<defs>
<linearGradient id="paint0_linear_1724_150" x1="16" y1="1" x2="16" y2="31.1111" gradientUnits="userSpaceOnUse">
<stop stop-color="#2578FA"/>
<stop offset="1" stop-color="#0052D4"/>
</linearGradient>
</defs>
</svg>
