<svg width="32" height="32" viewBox="0 0 32 32" fill="none" xmlns="http://www.w3.org/2000/svg">
<path fill-rule="evenodd" clip-rule="evenodd" d="M21.4444 8.27778C21.4444 11.2847 19.0069 13.7222 16 13.7222C12.9931 13.7222 10.5556 11.2847 10.5556 8.27778C10.5556 5.27089 12.9931 2.83333 16 2.83333C19.0069 2.83333 21.4444 5.27089 21.4444 8.27778ZM23.7778 8.27778C23.7778 12.5733 20.2955 16.0556 16 16.0556C11.7045 16.0556 8.22222 12.5733 8.22222 8.27778C8.22222 3.98223 11.7045 0.5 16 0.5C20.2955 0.5 23.7778 3.98223 23.7778 8.27778ZM20.0243 20.3462L27.1256 22.6147C27.4479 22.7177 27.6667 23.0173 27.6667 23.3556V27.5C27.6667 27.9295 27.3184 28.2778 26.8889 28.2778H5.11111C4.68156 28.2778 4.33333 27.9295 4.33333 27.5V23.3567C4.33333 23.0184 4.55207 22.7188 4.87437 22.6158L11.976 20.3465C14.5936 19.5101 17.4067 19.51 20.0243 20.3462ZM30 23.3556C30 22.0021 29.1249 20.8039 27.8356 20.3921L20.7343 18.1235C17.6548 17.1397 14.3452 17.1399 11.2658 18.1239L4.16413 20.3932C2.87496 20.8052 2 22.0033 2 23.3567V27.5C2 29.2182 3.39289 30.6111 5.11111 30.6111H26.8889C28.6071 30.6111 30 29.2182 30 27.5V23.3556Z" fill="#999999"/>
</svg>
