<svg width="32" height="32" viewBox="0 0 32 32" fill="none" xmlns="http://www.w3.org/2000/svg">
<path fill-rule="evenodd" clip-rule="evenodd" d="M29.0825 8.12517L30 1.9175L23.7923 1L25.6082 3.4458L16.4172 9.48374L10.8296 5.29307L2 11.2905L3.17529 13.0208L10.7694 7.86255L16.3376 12.0387L26.8572 5.12799L29.0825 8.12517ZM24.2019 27.5866V12.8529H26.9908V27.5866H24.2019ZM22.1102 12.1557C22.1102 11.3856 22.7345 10.7612 23.5046 10.7612H27.688C28.4582 10.7612 29.0825 11.3856 29.0825 12.1557V28.2838C29.0825 29.0539 28.4582 29.6783 27.688 29.6783H23.5046C22.7345 29.6783 22.1102 29.0539 22.1102 28.2838V12.1557ZM4.67931 17.0364V27.5866H7.46825V17.0364H4.67931ZM3.98208 14.9446C3.21193 14.9446 2.58761 15.569 2.58761 16.3391V28.2838C2.58761 29.0539 3.21193 29.6783 3.98208 29.6783H8.16548C8.93562 29.6783 9.55995 29.0539 9.55995 28.2838V16.3391C9.55995 15.569 8.93562 14.9446 8.16548 14.9446H3.98208ZM14.4406 21.2198V27.5866H17.2295V21.2198H14.4406ZM13.7434 19.1281C12.9732 19.1281 12.3489 19.7524 12.3489 20.5225V28.2838C12.3489 29.0539 12.9732 29.6783 13.7434 29.6783H17.9268C18.6969 29.6783 19.3212 29.0539 19.3212 28.2838V20.5225C19.3212 19.7524 18.6969 19.1281 17.9268 19.1281H13.7434Z" fill="#999999"/>
</svg>
