<svg width="32" height="32" viewBox="0 0 32 32" fill="none" xmlns="http://www.w3.org/2000/svg">
<mask id="path-1-inside-1_1724_155" fill="white">
<path fill-rule="evenodd" clip-rule="evenodd" d="M10.5833 7.22222C9.98502 7.22222 9.5 6.7372 9.5 6.13889V5.05548H5.88889C5.49002 5.05548 5.16667 5.37883 5.16667 5.7777V25.9999C5.16667 26.3988 5.49002 26.7221 5.88889 26.7221H26.1111C26.51 26.7221 26.8333 26.3988 26.8333 25.9999V5.7777C26.8333 5.37883 26.51 5.05548 26.1111 5.05548H21.7778V6.13889C21.7778 6.7372 21.2928 7.22222 20.6944 7.22222C20.0961 7.22222 19.6111 6.7372 19.6111 6.13889V5.05548H11.6667V6.13889C11.6667 6.7372 11.1816 7.22222 10.5833 7.22222ZM19.6111 2.88881H11.6667V1.08333C11.6667 0.485025 11.1816 -4.35903e-08 10.5833 0C9.98502 4.35866e-08 9.5 0.485025 9.5 1.08333V2.88881H5.88889C4.2934 2.88881 3 4.18221 3 5.7777V25.9999C3 27.5954 4.2934 28.8888 5.88889 28.8888H26.1111C27.7066 28.8888 29 27.5954 29 25.9999V5.7777C29 4.18221 27.7066 2.88881 26.1111 2.88881H21.7778V1.08333C21.7778 0.485025 21.2927 -4.35903e-08 20.6944 0C20.0961 4.35866e-08 19.6111 0.485025 19.6111 1.08333V2.88881ZM8.77778 13.361C8.77778 12.7627 9.26281 12.2777 9.86112 12.2777H19.25C19.8483 12.2777 20.3333 12.7627 20.3333 13.361C20.3333 13.9593 19.8483 14.4443 19.25 14.4443H9.86112C9.26281 14.4443 8.77778 13.9593 8.77778 13.361ZM9.86112 18.0555C9.26281 18.0555 8.77778 18.5405 8.77778 19.1389C8.77778 19.7372 9.26281 20.2222 9.86112 20.2222H14.9167C15.515 20.2222 16 19.7372 16 19.1389C16 18.5405 15.515 18.0555 14.9167 18.0555H9.86112Z"/>
</mask>
<path d="M9.5 5.05548H11.6667V2.88881H9.5V5.05548ZM21.7778 5.05548V2.88881H19.6111V5.05548H21.7778ZM19.6111 5.05548H21.7778V2.88881H19.6111V5.05548ZM11.6667 5.05548V2.88881H9.5V5.05548H11.6667ZM19.6111 2.88881V5.05548H21.7778V2.88881H19.6111ZM11.6667 2.88881H9.5V5.05548H11.6667V2.88881ZM10.5833 0V2.16667V0ZM9.5 2.88881V5.05548H11.6667V2.88881H9.5ZM21.7778 2.88881H19.6111V5.05548H21.7778V2.88881ZM20.6944 0V2.16667V0ZM7.33333 6.13889C7.33333 7.93381 8.78841 9.38889 10.5833 9.38889V5.05556C11.1816 5.05556 11.6667 5.54058 11.6667 6.13889H7.33333ZM7.33333 5.05548V6.13889H11.6667V5.05548H7.33333ZM5.88889 7.22215H9.5V2.88881H5.88889V7.22215ZM7.33333 5.7777C7.33333 6.57545 6.68663 7.22215 5.88889 7.22215V2.88881C4.2934 2.88881 3 4.18221 3 5.7777H7.33333ZM7.33333 25.9999V5.7777H3V25.9999H7.33333ZM5.88889 24.5555C6.68663 24.5555 7.33333 25.2022 7.33333 25.9999H3C3 27.5954 4.2934 28.8888 5.88889 28.8888V24.5555ZM26.1111 24.5555H5.88889V28.8888H26.1111V24.5555ZM24.6667 25.9999C24.6667 25.2022 25.3134 24.5555 26.1111 24.5555V28.8888C27.7066 28.8888 29 27.5954 29 25.9999H24.6667ZM24.6667 5.7777V25.9999H29V5.7777H24.6667ZM26.1111 7.22215C25.3134 7.22215 24.6667 6.57545 24.6667 5.7777H29C29 4.18221 27.7066 2.88881 26.1111 2.88881V7.22215ZM21.7778 7.22215H26.1111V2.88881H21.7778V7.22215ZM19.6111 5.05548V6.13889H23.9444V5.05548H19.6111ZM19.6111 6.13889C19.6111 5.54058 20.0961 5.05556 20.6944 5.05556V9.38889C22.4894 9.38889 23.9444 7.93381 23.9444 6.13889H19.6111ZM20.6944 5.05556C21.2927 5.05556 21.7778 5.54058 21.7778 6.13889H17.4444C17.4444 7.93382 18.8995 9.38889 20.6944 9.38889V5.05556ZM21.7778 6.13889V5.05548H17.4444V6.13889H21.7778ZM11.6667 7.22215H19.6111V2.88881H11.6667V7.22215ZM13.8333 6.13889V5.05548H9.5V6.13889H13.8333ZM10.5833 9.38889C12.3783 9.38889 13.8333 7.93381 13.8333 6.13889H9.5C9.5 5.54058 9.98502 5.05556 10.5833 5.05556V9.38889ZM19.6111 0.722147H11.6667V5.05548H19.6111V0.722147ZM13.8333 2.88881V1.08333H9.5V2.88881H13.8333ZM13.8333 1.08333C13.8333 -0.711591 12.3783 -2.16667 10.5833 -2.16667V2.16667C9.98502 2.16667 9.5 1.68164 9.5 1.08333H13.8333ZM10.5833 -2.16667C8.78841 -2.16667 7.33333 -0.711591 7.33333 1.08333H11.6667C11.6667 1.68164 11.1816 2.16667 10.5833 2.16667V-2.16667ZM7.33333 1.08333V2.88881H11.6667V1.08333H7.33333ZM9.5 0.722147H5.88889V5.05548H9.5V0.722147ZM5.88889 0.722147C3.09678 0.722147 0.833333 2.9856 0.833333 5.7777H5.16667C5.16667 5.37883 5.49002 5.05548 5.88889 5.05548V0.722147ZM0.833333 5.7777V25.9999H5.16667V5.7777H0.833333ZM0.833333 25.9999C0.833333 28.792 3.09678 31.0555 5.88889 31.0555V26.7221C5.49002 26.7221 5.16667 26.3988 5.16667 25.9999H0.833333ZM5.88889 31.0555H26.1111V26.7221H5.88889V31.0555ZM26.1111 31.0555C28.9032 31.0555 31.1667 28.792 31.1667 25.9999H26.8333C26.8333 26.3988 26.51 26.7221 26.1111 26.7221V31.0555ZM31.1667 25.9999V5.7777H26.8333V25.9999H31.1667ZM31.1667 5.7777C31.1667 2.9856 28.9032 0.722147 26.1111 0.722147V5.05548C26.51 5.05548 26.8333 5.37883 26.8333 5.7777H31.1667ZM26.1111 0.722147H21.7778V5.05548H26.1111V0.722147ZM19.6111 1.08333V2.88881H23.9444V1.08333H19.6111ZM20.6944 2.16667C20.0961 2.16667 19.6111 1.68164 19.6111 1.08333H23.9444C23.9444 -0.711591 22.4894 -2.16667 20.6944 -2.16667V2.16667ZM21.7778 1.08333C21.7778 1.68164 21.2927 2.16667 20.6944 2.16667V-2.16667C18.8995 -2.16667 17.4444 -0.711593 17.4444 1.08333H21.7778ZM21.7778 2.88881V1.08333H17.4444V2.88881H21.7778ZM9.86112 10.111C8.06619 10.111 6.61112 11.5661 6.61112 13.361H10.9445C10.9445 13.9593 10.4594 14.4443 9.86112 14.4443V10.111ZM19.25 10.111H9.86112V14.4443H19.25V10.111ZM22.5 13.361C22.5 11.5661 21.0449 10.111 19.25 10.111V14.4443C18.6517 14.4443 18.1667 13.9593 18.1667 13.361H22.5ZM19.25 16.611C21.0449 16.611 22.5 15.1559 22.5 13.361H18.1667C18.1667 12.7627 18.6517 12.2777 19.25 12.2777V16.611ZM9.86112 16.611H19.25V12.2777H9.86112V16.611ZM6.61112 13.361C6.61112 15.1559 8.06619 16.611 9.86112 16.611V12.2777C10.4594 12.2777 10.9445 12.7627 10.9445 13.361H6.61112ZM10.9445 19.1389C10.9445 19.7372 10.4594 20.2222 9.86112 20.2222V15.8889C8.06619 15.8889 6.61112 17.3439 6.61112 19.1389H10.9445ZM9.86112 18.0555C10.4594 18.0555 10.9445 18.5405 10.9445 19.1389H6.61112C6.61112 20.9338 8.0662 22.3889 9.86112 22.3889V18.0555ZM14.9167 18.0555H9.86112V22.3889H14.9167V18.0555ZM13.8333 19.1389C13.8333 18.5405 14.3184 18.0555 14.9167 18.0555V22.3889C16.7116 22.3889 18.1667 20.9338 18.1667 19.1389H13.8333ZM14.9167 20.2222C14.3184 20.2222 13.8333 19.7372 13.8333 19.1389H18.1667C18.1667 17.3439 16.7116 15.8889 14.9167 15.8889V20.2222ZM9.86112 20.2222H14.9167V15.8889H9.86112V20.2222Z" fill="#999999" mask="url(#path-1-inside-1_1724_155)"/>
</svg>
