<svg width="16" height="16" viewBox="0 0 16 16" fill="none" xmlns="http://www.w3.org/2000/svg">
<path d="M4.00011 11.75H7.00011V10.75H4.00011V11.75Z" fill="#999999"/>
<path d="M1.50133 9C1.50133 8.72386 1.72519 8.5 2.00133 8.5H14.0013C14.2775 8.5 14.5013 8.72386 14.5013 9V13.5C14.5013 13.7761 14.2775 14 14.0013 14H2.00133C1.72519 14 1.50133 13.7761 1.50133 13.5V9ZM2.50133 13H13.5013V9.5H2.50133V13Z" fill="#999999"/>
<path d="M8.42676 5.94974L10.4016 3.97487L11.1087 4.68197L8.28031 7.5104C8.08505 7.70566 7.76847 7.70566 7.5732 7.5104L4.74478 4.68197L5.45188 3.97487L7.42676 5.94974L7.42677 1.49998L8.42677 1.49998L8.42676 5.94974Z" fill="#999999"/>
</svg>
