<svg width="16" height="16" viewBox="0 0 16 16" fill="none" xmlns="http://www.w3.org/2000/svg">
<path d="M1.65634 13.8903L14.4921 13.8903" stroke="black" stroke-width="0.836693" stroke-linecap="round"/>
<path fill-rule="evenodd" clip-rule="evenodd" d="M8.74438 1.72744C8.86028 1.80511 8.92983 1.93545 8.92983 2.07496V5.31318L13.3623 7.45901C13.5067 7.5289 13.5984 7.67517 13.5984 7.83555V14.3282H12.7617V8.09782L8.92983 6.24277V14.0608H8.09314V2.69921L3.09542 4.75332V14.3272H2.25873V4.47296C2.25873 4.30334 2.36115 4.1505 2.51804 4.08602L8.35245 1.68803C8.48149 1.63499 8.62849 1.64977 8.74438 1.72744ZM4.86444 6.34431C4.6227 6.34431 4.42673 6.54028 4.42673 6.78202C4.42673 7.02377 4.6227 7.21974 4.86444 7.21974H6.32349C6.56523 7.21974 6.7612 7.02377 6.7612 6.78202C6.7612 6.54028 6.56523 6.34431 6.32349 6.34431H4.86444ZM4.42698 10.0958C4.42698 9.85403 4.62295 9.65806 4.86469 9.65806H6.32374C6.56548 9.65806 6.76145 9.85403 6.76145 10.0958C6.76145 10.3375 6.56548 10.5335 6.32374 10.5335H4.86469C4.62295 10.5335 4.42698 10.3375 4.42698 10.0958ZM10.1155 9.65997C9.87373 9.65997 9.67776 9.85594 9.67776 10.0977C9.67776 10.3394 9.87373 10.5354 10.1155 10.5354H11.5745C11.8163 10.5354 12.0122 10.3394 12.0122 10.0977C12.0122 9.85594 11.8163 9.65997 11.5745 9.65997H10.1155Z" fill="black"/>
</svg>
