<svg width="16" height="16" viewBox="0 0 16 16" fill="none" xmlns="http://www.w3.org/2000/svg">
<path d="M8.00268 12.8778V7.82303M8.00268 7.82303L12.2987 5.44434M8.00268 7.82303L3.70663 5.44434" stroke="black" stroke-width="0.84375" stroke-linecap="round" stroke-linejoin="round"/>
<path d="M7.97311 15.3125C7.70419 15.3125 7.40837 15.2343 7.16634 15.104L2.05677 12.2377C1.57271 11.951 1.25 11.4559 1.25 10.8826V5.14991C1.25 4.6027 1.54582 4.08154 2.05677 3.7949L7.16634 0.902478C7.6504 0.615841 8.26893 0.615841 8.77989 0.902478L13.9432 3.7949C14.4542 4.08154 14.75 4.6027 14.75 5.14991L14.7231 10.8826C14.7231 11.4299 14.4273 11.951 13.9163 12.2116L8.80678 15.104C8.53785 15.2343 8.26893 15.3125 7.97311 15.3125ZM7.97311 1.50181C7.83865 1.50181 7.70419 1.52787 7.56972 1.60604L2.46016 4.49847C2.21813 4.62876 2.05677 4.88933 2.05677 5.14991V10.8826C2.05677 11.1693 2.21813 11.4038 2.46016 11.5602L7.56972 14.4265C7.81176 14.5568 8.13447 14.5568 8.3765 14.4265L13.4861 11.5341C13.7281 11.4038 13.8895 11.1432 13.8895 10.8826L13.9163 5.14991C13.9163 4.86328 13.755 4.6027 13.513 4.47241L8.3765 1.60604C8.26893 1.52787 8.10757 1.50181 7.97311 1.50181Z" fill="black"/>
</svg>
