<svg width="16" height="16" viewBox="0 0 16 16" fill="none" xmlns="http://www.w3.org/2000/svg">
<path d="M11.568 2.28333C11.9708 2.28333 12.3322 2.52445 12.4783 2.89056L12.6205 3.25032C13.0403 4.32189 13.3756 5.26993 13.6266 6.09449L14.5116 6.09445C14.7814 6.09445 15 6.30773 15 6.57084C15 6.81847 14.8063 7.02196 14.5587 7.04505L14.5116 7.04723L13.8929 7.04729C14.0883 7.82544 14.1861 8.46062 14.1861 8.95279C14.1861 10.0273 14.1084 11.3289 13.9531 12.8578C13.9036 13.3453 13.4833 13.7167 12.9812 13.7167H11.4054C10.9398 13.7167 10.5389 13.3961 10.4476 12.9508L10.2791 12.1287H5.72093L5.55238 12.9508C5.46107 13.3961 5.0602 13.7167 4.59461 13.7167H3.02379C2.52011 13.7167 2.09902 13.3431 2.05142 12.8539L1.9935 12.234C1.87381 10.8934 1.81395 9.79966 1.81395 8.95279C1.81395 8.49337 1.91964 7.85818 2.13103 7.04724L1.48836 7.04723C1.21864 7.04723 0.999985 6.83394 0.999985 6.57084C0.999985 6.3232 1.19367 6.11971 1.44134 6.09662L1.48836 6.09445L2.40305 6.09452C2.67997 5.19243 3.05455 4.128 3.52677 2.90119C3.66981 2.52951 4.03417 2.28333 4.44118 2.28333H11.568ZM12.8857 7.04729H3.14023C3.04262 7.40144 2.96546 7.71929 2.90874 8.00007L4.74419 8.00001V8.95279H2.7907C2.7907 9.85293 2.86182 11.059 3.00474 12.5657L3.02379 12.7639H4.59461L4.92018 11.1759H11.0798L11.4054 12.7639H12.9812C13.1335 11.2641 13.2093 9.9927 13.2093 8.95279H11.2558V8.00001L13.1053 8.00007C13.0524 7.71477 12.9792 7.39699 12.8857 7.04729ZM11.568 3.23611H4.44118L4.31421 3.56834C3.95351 4.51913 3.65692 5.36262 3.42436 6.09451H12.6058C12.3726 5.35838 12.0715 4.51751 11.7022 3.57546L11.568 3.23611Z" fill="black"/>
</svg>
