<svg width="16" height="16" viewBox="0 0 16 16" fill="none" xmlns="http://www.w3.org/2000/svg">
<path d="M3.67325 12.3508C3.83014 12.6071 4.28779 13.3383 4.62356 13.8746C4.82658 14.1987 4.98491 14.4516 5.00477 14.4848C5.10141 14.6475 5.26423 14.7443 5.45445 14.75H5.46783C5.6467 14.75 5.82468 14.6655 6.00302 14.4916C6.41939 14.004 6.40891 13.762 6.40385 13.6456L6.40316 13.6211C6.40619 13.496 6.40548 13.1887 6.40473 12.8455C6.40366 12.4455 6.40257 11.9943 6.40726 11.7302L7.97857 10.2154C8.42889 11.4531 9.31924 13.8598 9.38053 14.0203C9.51026 14.3498 9.76743 14.4076 9.87161 14.4172C10.0806 14.4362 10.299 14.3505 10.4759 14.1734C10.5005 14.1471 11.0834 13.5254 11.337 13.2161C11.6166 12.879 11.6045 12.5792 11.5994 12.4517C11.5987 12.4109 11.5551 11.6847 11.4781 10.4044C11.405 9.1938 11.3178 7.74031 11.2705 6.91899L13.9851 4.19927C14.6509 3.53435 14.7502 2.84184 14.75 2.48796C14.75 2.09742 14.6357 1.75028 14.4446 1.55988C14.2548 1.36879 13.8932 1.24994 13.5004 1.24994C13.1478 1.24994 12.4579 1.34838 11.7981 2.00822L9.08615 4.72636C8.38436 4.68174 7.22195 4.60587 6.14075 4.53522C4.76546 4.44527 3.57769 4.36776 3.52431 4.36649C3.50555 4.36545 3.48211 4.36472 3.45618 4.36472C3.20876 4.36472 2.98444 4.45085 2.77096 4.62827C2.46332 4.88329 1.84141 5.4687 1.8129 5.49564C1.63815 5.67156 1.55015 5.8919 1.57107 6.10092C1.58478 6.23169 1.6551 6.46904 1.9689 6.59151C2.12107 6.65129 4.52476 7.5526 5.79785 8.02286L4.28458 9.58648C4.22017 9.58724 4.14645 9.59148 4.06041 9.58724C3.78146 9.58724 3.4165 9.5821 3.09481 9.57741C2.76212 9.57271 2.47811 9.56803 2.37584 9.57167L2.37947 9.66423L2.35222 9.57167L2.33043 9.57134C2.17842 9.57134 1.94832 9.61793 1.51086 9.9849L1.47191 10.0214C1.29556 10.1992 1.25407 10.3776 1.2503 10.4962C1.24433 10.675 1.31935 10.8361 1.46038 10.9495C1.55843 11.0294 2.72872 11.7775 3.67325 12.3508ZM4.07484 11.7294C3.2843 11.2501 2.43626 10.7104 2.07867 10.4762C2.24258 10.3491 2.32429 10.3169 2.34283 10.3107L2.47665 10.3104C2.59998 10.3104 2.7976 10.3133 3.02211 10.3162L3.08433 10.3172C3.53081 10.3237 4.06005 10.3314 4.33717 10.3255C4.50887 10.3219 4.66901 10.2523 4.78834 10.1288L6.42677 8.43551C6.57968 8.27791 6.6417 8.05554 6.59304 7.84113C6.54415 7.62655 6.39197 7.45336 6.18586 7.37742C5.11889 6.98458 3.01146 6.19541 2.39586 5.96241C2.57941 5.79079 3.01543 5.38583 3.24194 5.19795C3.35481 5.10459 3.42333 5.10459 3.45613 5.10459C3.46806 5.10459 3.47887 5.10491 3.49581 5.10582C3.58777 5.10979 4.91854 5.1967 6.09284 5.27345C7.19602 5.34554 8.38376 5.42302 9.08125 5.46748C9.26827 5.48011 9.44752 5.41092 9.5791 5.27906L12.3198 2.53166C12.7914 2.06022 13.262 1.98977 13.5004 1.98977C13.7633 1.98977 13.9069 2.06926 13.9224 2.08298C14.0376 2.20074 14.1672 2.97256 13.4629 3.67594L10.719 6.42515C10.5889 6.55558 10.5203 6.73584 10.5309 6.9199C10.5753 7.6981 10.6589 9.08822 10.7311 10.2859L10.7408 10.4496C10.793 11.3177 10.8583 12.3982 10.8616 12.4806C10.8646 12.5611 10.8672 12.6246 10.7662 12.7464C10.5819 12.9714 10.1908 13.3948 10.0087 13.5907C9.78404 12.9863 9.00409 10.8762 8.62432 9.82881C8.54955 9.62219 8.37694 9.46941 8.1633 9.41965C7.95267 9.37047 7.72546 9.43294 7.56895 9.58361L5.86775 11.2233C5.74371 11.3433 5.67338 11.504 5.66959 11.676C5.66402 11.9445 5.66506 12.4239 5.66616 12.8598C5.66688 13.184 5.66759 13.4877 5.66474 13.6066C5.66434 13.6272 5.66474 13.6506 5.66831 13.6727C5.66831 13.6735 5.64883 13.75 5.52081 13.9155L5.24963 13.482C4.90555 12.9321 4.4342 12.1793 4.29138 11.9456C4.23766 11.8574 4.16265 11.783 4.07484 11.7294Z" fill="black" stroke="black" stroke-width="0.17705"/>
</svg>
