<svg width="16" height="16" viewBox="0 0 16 16" fill="none" xmlns="http://www.w3.org/2000/svg">
<path d="M2.74446 1.14288H10.3932L13.8432 4.6499V14.4745C13.8432 14.6858 13.6635 14.8572 13.4419 14.8572H2.74446C2.52285 14.8572 2.3432 14.6858 2.3432 14.4745V1.52554C2.3432 1.3142 2.52285 1.14288 2.74446 1.14288Z" fill="#445EE7"/>
<path d="M10.3926 1.14288V4.2757C10.3926 4.49143 10.5686 4.66632 10.7856 4.66632H13.8987L10.3926 1.14288Z" fill="#889AF8"/>
<path d="M12.3333 8.74111L7.19594 4.66669L5.9559 11.9298H8.08169L8.61314 8.74111H12.3333Z" fill="#F0F4FF"/>
<path d="M12.3333 8.74097H3.66666L3.84381 6.96948H10.0987L12.3333 8.74097Z" fill="url(#paint0_linear_1708_162)"/>
<path d="M6.4874 8.74097L6.8037 6.96948H8.96748L8.61318 8.74097H6.4874Z" fill="#D4DFFF"/>
<defs>
<linearGradient id="paint0_linear_1708_162" x1="11.4476" y1="7.67808" x2="2.23584" y2="7.67808" gradientUnits="userSpaceOnUse">
<stop stop-color="#98B0FC"/>
<stop offset="1" stop-color="#D9EFFD" stop-opacity="0"/>
</linearGradient>
</defs>
</svg>
