<svg width="16" height="16" viewBox="0 0 16 16" fill="none" xmlns="http://www.w3.org/2000/svg">
<path d="M1.30881 13.8555L14.6935 13.8555" stroke="black" stroke-width="0.836543" stroke-linecap="round"/>
<path fill-rule="evenodd" clip-rule="evenodd" d="M1.58651 3.03244V10.7356H14.4135V3.03244H1.58651ZM1.30767 2.14362C0.999658 2.14362 0.749969 2.40891 0.749969 2.73617V11.0319C0.749969 11.3591 0.999659 11.6244 1.30767 11.6244H14.6924C15.0004 11.6244 15.2501 11.3591 15.2501 11.0319V2.73617C15.2501 2.40891 15.0004 2.14362 14.6924 2.14362H1.30767Z" fill="black"/>
<path fill-rule="evenodd" clip-rule="evenodd" d="M13.1761 13.8554C13.2628 13.7544 13.3007 13.648 13.3007 13.5776C13.3007 13.4057 13.0752 13.0195 12.4636 13.0195C11.852 13.0195 11.6266 13.4057 11.6266 13.5776C11.6266 13.648 11.6644 13.7544 11.7511 13.8554H10.8232C10.8014 13.7656 10.79 13.6727 10.79 13.5776C10.79 12.8073 11.5393 12.1829 12.4636 12.1829C13.3879 12.1829 14.1372 12.8073 14.1372 13.5776C14.1372 13.6727 14.1258 13.7656 14.104 13.8554H13.1761Z" fill="black"/>
<path fill-rule="evenodd" clip-rule="evenodd" d="M6.32797 13.8563V11.067H7.16476V13.8563H6.32797Z" fill="black"/>
<path fill-rule="evenodd" clip-rule="evenodd" d="M9.11532 13.8563V11.067H9.95212V13.8563H9.11532Z" fill="black"/>
<path d="M5.5897 4.47271V5.03582H7.96977V5.54H5.95994V6.06382H7.96977V6.57455H5.37153V7.15075H11.1895V6.57455H8.59123V6.06382H10.6209V5.54H8.59123V5.03582H10.9713V4.47271H9.58953C9.69531 4.28937 9.77465 4.09949 9.82754 3.90305L9.17302 3.81793C9.12013 4.04056 9.04079 4.26318 8.94824 4.47271H7.6392C7.55326 4.23699 7.46731 4.02746 7.37475 3.83758L6.72023 3.94234C6.82601 4.10603 6.91857 4.28282 6.99791 4.47271H5.5897ZM8.04249 7.2817C8.01605 7.42576 7.98299 7.56981 7.93671 7.71386H5.52359V8.29006H7.61276C7.51359 8.41447 7.4012 8.52578 7.26897 8.63055C6.84585 8.94484 6.16489 9.18056 5.21286 9.34425L5.4707 9.94665C6.57478 9.72402 7.34169 9.42283 7.77804 9.04306C8.02266 8.83353 8.221 8.57816 8.37305 8.29006H11.044V7.71386H8.58462C8.61106 7.596 8.63751 7.47814 8.65734 7.34718L8.04249 7.2817ZM8.89535 8.44066L8.56478 8.9252C9.39119 9.17401 10.1978 9.52104 10.9911 9.9532L11.3481 9.40973C10.6077 9.02996 9.79448 8.70912 8.89535 8.44066Z" fill="black"/>
</svg>
