<svg width="16" height="16" viewBox="0 0 16 16" fill="none" xmlns="http://www.w3.org/2000/svg">
<path d="M13.3284 7.82844C14.8905 6.26634 14.8905 3.73368 13.3284 2.17158L14.0355 1.46448C15.9881 3.4171 15.9881 6.58292 14.0355 8.53555L13.3284 7.82844Z" fill="#999999"/>
<path d="M10.9999 5C10.9999 6.933 9.43294 8.5 7.49994 8.5C5.56694 8.5 3.99994 6.933 3.99994 5C3.99994 3.067 5.56694 1.5 7.49994 1.5C9.43294 1.5 10.9999 3.067 10.9999 5ZM9.99994 5C9.99994 3.61929 8.88065 2.5 7.49994 2.5C6.11923 2.5 4.99994 3.61929 4.99994 5C4.99994 6.38071 6.11923 7.5 7.49994 7.5C8.88065 7.5 9.99994 6.38071 9.99994 5Z" fill="#999999"/>
<path d="M13.4631 10.8528C13.7969 11.0122 13.9999 11.3547 13.9999 11.7246L13.9999 14C13.9999 14.2761 13.7761 14.5 13.4999 14.5L1.49994 14.5C1.2238 14.5 0.99994 14.2761 0.999939 14V11.7246C0.999939 11.3547 1.20296 11.0122 1.5368 10.8528C3.34934 9.98707 5.36645 9.5 7.49994 9.5C9.63343 9.5 11.6505 9.98708 13.4631 10.8528ZM7.49994 10.5C5.53334 10.5 3.67428 10.9457 1.99994 11.7398L1.99994 13.5H12.9999V11.7398C11.3256 10.9457 9.46654 10.5 7.49994 10.5Z" fill="#999999"/>
<path d="M11.9142 3.58577C12.6952 4.36682 12.6952 5.63315 11.9142 6.4142L12.6213 7.1213C13.7928 5.94973 13.7928 4.05023 12.6213 2.87866L11.9142 3.58577Z" fill="#999999"/>
</svg>
