<svg width="16" height="16" viewBox="0 0 16 16" fill="none" xmlns="http://www.w3.org/2000/svg">
<path d="M7.46166 1.34644C7.02227 1.12482 6.52571 0.999993 5.99999 0.999993C4.20507 0.999993 2.75001 2.45506 2.75001 4.24997C2.75001 6.02943 4.18012 7.47486 5.95369 7.49963V6.49949C4.73243 6.47484 3.75 5.47713 3.75 4.24997C3.75 3.00734 4.75735 1.99999 5.99999 1.99999C6.29366 1.99999 6.57419 2.05625 6.83139 2.15858L7.46166 1.34644Z" fill="#999999"/>
<path d="M5.95369 8.22089C4.0192 8.22774 2.18916 8.66413 0.540926 9.43587C0.204535 9.59337 0 9.93713 0 10.3086V12.4999C0 12.776 0.223856 12.9999 0.499996 12.9999H2.85707V11.9999H0.999993V10.3252C2.51069 9.62373 4.18418 9.22767 5.95369 9.22088V8.22089Z" fill="#999999"/>
<path d="M13.2498 5.0635C13.2498 6.85842 11.7948 8.31348 9.99985 8.31348C8.20494 8.31348 6.74987 6.85842 6.74987 5.0635C6.74987 3.26859 8.20494 1.81353 9.99985 1.81353C11.7948 1.81353 13.2498 3.26859 13.2498 5.0635ZM12.2498 5.0635C12.2498 3.82087 11.2425 2.81352 9.99985 2.81352C8.75722 2.81352 7.74987 3.82087 7.74987 5.0635C7.74987 6.30614 8.75722 7.31349 9.99985 7.31349C11.2425 7.31349 12.2498 6.30614 12.2498 5.0635Z" fill="#999999"/>
<path d="M10.9999 10.4717C10.6703 10.4441 10.3369 10.43 9.9999 10.43C8.21329 10.43 6.52379 10.8268 4.99993 11.5344V13.4999H10.4999V14.4999H4.49993C4.22379 14.4999 3.99994 14.276 3.99994 13.9999V11.5178C3.99994 11.1463 4.20447 10.8026 4.54086 10.645C6.20223 9.86716 8.04832 9.42999 9.9999 9.42999C10.3365 9.42999 10.67 9.44299 10.9999 9.46851V10.4717Z" fill="#999999"/>
<path d="M13.1369 12.344L11.688 13.7928L12.3951 14.4999L13.844 13.0511L15.2928 14.4999L15.9999 13.7928L14.5511 12.344L16 10.895L15.2929 10.1879L13.844 11.6369L12.395 10.1879L11.6879 10.895L13.1369 12.344Z" fill="#999999"/>
</svg>
