<svg width="16" height="16" viewBox="0 0 16 16" fill="none" xmlns="http://www.w3.org/2000/svg">
<path fill-rule="evenodd" clip-rule="evenodd" d="M3 2C3 1.44386 3.44386 1 4 1H8.29289C8.40841 1 8.52186 1.01999 8.62863 1.05804C8.72835 1.07544 8.82878 1.12167 8.91355 1.20645L12.6236 4.91644L12.6246 4.91753L12.7071 5C12.8946 5.18754 13 5.44189 13 5.70711V8H12V6H8V2H4V13H8.53613V14H4C3.44386 14 3 13.5561 3 13V2ZM9 5H11.2929L9 2.70711V5ZM8.81882 10.5021L10.1028 11.8102L9.43003 12.5L7.34271 10.3734C7.15225 10.1794 7.15176 9.86872 7.34159 9.67407L9.44468 7.5177L10.1196 8.20533L8.82961 9.52803L12.9933 9.49596L13 10.4699L8.81882 10.5021Z" fill="#999999"/>
</svg>
