<svg width="16" height="16" viewBox="0 0 16 16" fill="none" xmlns="http://www.w3.org/2000/svg">
<path fill-rule="evenodd" clip-rule="evenodd" d="M9.1825 10.883C9.21514 10.6724 9.2444 10.4548 9.26999 10.231C9.1065 10.2407 8.94102 10.2486 8.77376 10.2546C8.7096 10.3129 8.64544 10.3706 8.58131 10.4275C8.78447 10.5888 8.98524 10.7408 9.1825 10.883ZM9.97991 11.4174C10.052 11.0201 10.112 10.5988 10.1582 10.1584C10.5708 10.1152 10.9666 10.0598 11.3417 9.99368C11.4965 10.2426 11.6328 10.4826 11.7494 10.7111C12.0286 11.2577 12.1719 11.693 12.2124 11.9986C12.2317 12.144 12.2246 12.2267 12.2164 12.2684C12.1746 12.2767 12.0919 12.2837 11.9466 12.2644C11.641 12.2239 11.2057 12.0806 10.659 11.8015C10.4423 11.6908 10.2152 11.5625 9.97991 11.4174ZM12.8447 12.8967C13.3494 12.392 13.0798 11.222 12.2486 9.80296C13.9212 9.38858 15.0001 8.73542 15.0001 8.00062C15.0001 7.25942 13.9023 6.60128 12.2048 6.18749C12.5906 5.54324 12.8635 4.94762 13.0039 4.4387C13.4465 4.28479 13.7642 3.86393 13.7642 3.36886C13.7642 2.74347 13.2572 2.23649 12.6319 2.23649C12.2164 2.23649 11.8532 2.4602 11.6562 2.79373C11.1224 2.90172 10.4738 3.17744 9.76264 3.59415C9.34689 2.01146 8.71192 0.999878 8.0004 0.999878C7.27366 0.999878 6.62677 2.05521 6.21178 3.6965C4.71524 2.78494 3.4701 2.47203 2.94505 2.99708C2.42389 3.51823 2.72831 4.74881 3.62426 6.23051C2.02431 6.64609 0.999878 7.2846 0.999878 8.00062C0.999878 8.71005 2.00556 9.3434 3.58029 9.75921C2.72893 11.198 2.4486 12.3868 2.95847 12.8967C3.47947 13.4177 4.70947 13.1136 6.19058 12.2183C6.60456 13.9082 7.26117 15.0001 8.0004 15.0001C8.72464 15.0001 9.36958 13.952 9.78473 12.3204C11.1886 13.1361 12.344 13.3974 12.8447 12.8967ZM11.5557 3.72211C11.3069 3.79863 11.011 3.91942 10.6725 4.09232C10.4466 4.20763 10.2095 4.34213 9.9637 4.49475C10.0432 4.91803 10.1087 5.36939 10.1583 5.84282C10.553 5.88422 10.9323 5.93666 11.2929 5.99903C11.4736 5.71471 11.6308 5.44132 11.7629 5.18273C11.9189 4.87721 12.0325 4.60648 12.1094 4.37374C11.8493 4.23823 11.6484 4.00469 11.5557 3.72211ZM12.6801 7.22958C12.3836 7.13352 12.0545 7.04591 11.6977 6.96871C11.4728 7.29126 11.2239 7.62146 10.9532 7.95518C11.2455 8.3164 11.5122 8.6734 11.7506 9.02096C12.0871 8.94661 12.3983 8.86295 12.6801 8.77165C13.2641 8.58249 13.6732 8.37603 13.9179 8.18861C14.0343 8.09944 14.0878 8.03596 14.1115 8.00062C14.0878 7.96528 14.0343 7.90179 13.9179 7.81263C13.6732 7.62521 13.2641 7.41874 12.6801 7.22958ZM10.7435 6.79755C10.5767 6.77322 10.4057 6.75099 10.2309 6.73101C10.2388 6.86431 10.2455 6.99893 10.2509 7.13476C10.2933 7.18168 10.3353 7.2286 10.3769 7.2755C10.505 7.11452 10.6273 6.95501 10.7435 6.79755ZM6.73067 5.77017C6.79048 5.76662 6.85056 5.76331 6.9109 5.76026C7.01478 5.66413 7.11872 5.56989 7.22258 5.47759C7.08437 5.36761 6.94725 5.26193 6.81158 5.16069C6.78157 5.35805 6.75452 5.56141 6.73067 5.77017ZM8.88203 5.75081C9.01255 5.75612 9.14196 5.76261 9.27014 5.77022C9.24099 5.51516 9.20708 5.26817 9.16883 5.03033C8.9757 5.17026 8.77926 5.31949 8.58057 5.47759C8.68103 5.56686 8.78155 5.65795 8.88203 5.75081ZM4.53047 6.03066C4.94329 5.9542 5.38247 5.89096 5.84248 5.84273C5.88776 5.41088 5.94625 4.9974 6.0165 4.60683C5.70719 4.40727 5.41029 4.23509 5.1307 4.09232C4.58403 3.81317 4.14873 3.66985 3.84317 3.62934C3.6978 3.61007 3.61508 3.61714 3.57336 3.62539C3.56511 3.66711 3.55804 3.74983 3.57731 3.8952C3.61782 4.20076 3.76114 4.63606 4.04029 5.18273C4.17722 5.45089 4.34121 5.73497 4.53047 6.03066ZM5.76993 6.73091C5.5325 6.75805 5.30205 6.78932 5.07947 6.82437C5.18976 6.97312 5.30543 7.12365 5.42627 7.2755C5.5349 7.15303 5.64624 7.03045 5.76019 6.90797C5.7632 6.8487 5.76645 6.78968 5.76993 6.73091ZM3.31982 7.22958C3.5686 7.14899 3.84031 7.07434 4.13211 7.00679C4.34998 7.31723 4.58987 7.63458 4.84992 7.95517C4.56849 8.30294 4.31083 8.6468 4.07933 8.98209C3.80749 8.91783 3.55354 8.84737 3.31982 8.77165C2.73587 8.58249 2.32674 8.37603 2.08203 8.18861C1.9656 8.09944 1.91211 8.03595 1.88844 8.00062C1.91211 7.96528 1.9656 7.90179 2.08203 7.81263C2.32674 7.6252 2.73587 7.41874 3.31982 7.22958ZM4.05371 10.7111C4.1754 10.4727 4.31845 10.2219 4.48162 9.96144C4.90864 10.042 5.36436 10.1084 5.84262 10.1585C5.8845 10.5578 5.93769 10.9413 6.00101 11.3055C5.7021 11.4972 5.41499 11.6632 5.14412 11.8015C4.59745 12.0806 4.16215 12.2239 3.85659 12.2644C3.71122 12.2837 3.6285 12.2767 3.58678 12.2684C3.57853 12.2267 3.57146 12.144 3.59073 11.9986C3.63124 11.693 3.77456 11.2577 4.05371 10.7111ZM5.02075 9.1675C5.26148 9.20637 5.5116 9.2408 5.77001 9.27033C5.7646 9.17923 5.75976 9.0875 5.75551 8.9952C5.64346 8.87491 5.53393 8.75452 5.42701 8.63423C5.2842 8.81412 5.14867 8.99214 5.02075 9.1675ZM6.79867 10.7527C6.77383 10.583 6.75116 10.409 6.73081 10.2311C6.82662 10.2368 6.9231 10.2418 7.02023 10.2462C7.08745 10.3074 7.15466 10.3679 7.22184 10.4275C7.07948 10.5405 6.93829 10.649 6.79867 10.7527ZM10.2545 8.7699C10.2485 8.93855 10.2406 9.1054 10.2308 9.27023C10.4262 9.24789 10.6169 9.22274 10.8024 9.19499C10.6686 9.01075 10.5264 8.82353 10.3761 8.63424C10.336 8.67945 10.2954 8.72467 10.2545 8.7699ZM9.00374 11.8264C8.64472 11.5817 8.2754 11.3066 7.90158 11.004C7.58694 11.2587 7.2755 11.4939 6.9707 11.7079C7.04736 12.0608 7.13422 12.3864 7.22936 12.6801C7.41853 13.2641 7.62499 13.6732 7.81241 13.9179C7.90157 14.0343 7.96507 14.0878 8.0004 14.1115C8.03574 14.0878 8.09923 14.0343 8.18839 13.9179C8.37581 13.6732 8.58227 13.2641 8.77144 12.6801C8.85583 12.4196 8.93371 12.134 9.00374 11.8264ZM7.90158 4.90067C7.59335 4.65072 7.28814 4.4194 6.98919 4.20837C7.06123 3.88754 7.14179 3.59015 7.22936 3.31982C7.41853 2.73587 7.62499 2.32674 7.81241 2.08203C7.90158 1.9656 7.96506 1.91211 8.0004 1.88844C8.03574 1.91211 8.09922 1.9656 8.18839 2.08203C8.37581 2.32674 8.58227 2.73587 8.77144 3.31982C8.84812 3.55654 8.91943 3.81402 8.98435 4.08982C8.63135 4.33182 8.2686 4.60304 7.90158 4.90067ZM9.64834 8.1026C9.64834 9.06912 8.86483 9.85263 7.89832 9.85263C6.9318 9.85263 6.14829 9.06912 6.14829 8.1026C6.14829 7.13609 6.9318 6.35258 7.89832 6.35258C8.86483 6.35258 9.64834 7.13609 9.64834 8.1026Z" fill="black"/>
</svg>
