<svg width="16" height="16" viewBox="0 0 16 16" fill="none" xmlns="http://www.w3.org/2000/svg">
<g clip-path="url(#clip0_409_13)">
<path fill-rule="evenodd" clip-rule="evenodd" d="M5.17647 1.90771C7.36881 1.90771 9.24283 3.24439 9.99751 5.13211L10.0755 5.11013C10.4641 5.00821 10.8727 4.95387 11.2941 4.95387C13.8931 4.95387 16 7.02025 16 9.56925C16 10.3544 15.8001 11.0937 15.4475 11.741L15.5921 14.0835C15.5973 14.1669 15.5785 14.25 15.5384 14.3214C15.4305 14.5132 15.199 14.5743 15.0212 14.4579L13.6536 13.5635C13.2485 13.7941 12.8052 13.9672 12.3353 14.0713C12.0004 14.1455 11.6519 14.1846 11.2941 14.1846C9.47411 14.1846 7.89542 13.1713 7.11257 11.6885L7.11475 11.6927C6.5166 11.9308 5.8621 12.0616 5.17647 12.0616C4.78291 12.0616 4.3996 12.0185 4.03119 11.9369L3.88484 11.9022L2.09044 13.381C1.92525 13.5173 1.68898 13.4832 1.56271 13.305C1.50727 13.2268 1.48007 13.1294 1.48618 13.0312L1.63206 10.6848C1.37806 10.4506 1.14817 10.1916 0.94644 9.91172C0.350269 9.0845 0 8.07469 0 6.98464C0 4.18073 2.31758 1.90771 5.17647 1.90771ZM11.2941 5.96925C9.19597 5.96925 7.52941 7.60376 7.52941 9.56925C7.52941 11.5347 9.19597 13.1693 11.2941 13.1693C11.5841 13.1693 11.8692 13.138 12.146 13.0767C12.5236 12.993 12.8832 12.854 13.2142 12.6655L13.6856 12.3971L14.5816 12.9825L14.4892 11.4963L14.6361 11.2265L14.7338 11.0333C14.9473 10.5767 15.0588 10.0811 15.0588 9.56925C15.0588 7.60376 13.3923 5.96925 11.2941 5.96925ZM5.17647 2.9231C2.81842 2.9231 0.941176 4.76425 0.941176 6.98464C0.941176 7.81809 1.20329 8.61389 1.68945 9.28846C1.79754 9.43844 1.91608 9.58145 2.0442 9.71645L2.24344 9.9128L2.60275 10.244L2.50729 11.759L3.66028 10.8096L4.22049 10.9422C4.53117 11.0111 4.85113 11.0462 5.17647 11.0462C5.7324 11.0462 6.26161 10.9438 6.74579 10.7583L6.69968 10.5723C6.62671 10.2494 6.58824 9.91371 6.58824 9.56925C6.58824 7.84695 7.55011 6.34499 8.97575 5.5519L9.11003 5.48001C8.48857 3.99047 6.97188 2.9231 5.17647 2.9231ZM9.69412 8.00002C10.058 8.00002 10.3529 8.29017 10.3529 8.64808C10.3529 9.00599 10.058 9.29613 9.69412 9.29613C9.33026 9.29613 9.03529 9.00599 9.03529 8.64808C9.03529 8.29017 9.33026 8.00002 9.69412 8.00002ZM12.8941 8.00002C13.258 8.00002 13.5529 8.29017 13.5529 8.64808C13.5529 9.00599 13.258 9.29613 12.8941 9.29613C12.5303 9.29613 12.2353 9.00599 12.2353 8.64808C12.2353 8.29017 12.5303 8.00002 12.8941 8.00002ZM3.2 5.25848C3.61584 5.25848 3.95294 5.59008 3.95294 5.99912C3.95294 6.40816 3.61584 6.73975 3.2 6.73975C2.78416 6.73975 2.44706 6.40816 2.44706 5.99912C2.44706 5.59008 2.78416 5.25848 3.2 5.25848ZM6.58824 5.25848C7.00407 5.25848 7.34118 5.59008 7.34118 5.99912C7.34118 6.40816 7.00407 6.73975 6.58824 6.73975C6.1724 6.73975 5.83529 6.40816 5.83529 5.99912C5.83529 5.59008 6.1724 5.25848 6.58824 5.25848Z" fill="#999999"/>
</g>
<defs>
<clipPath id="clip0_409_13">
<rect width="16" height="13.2" fill="white" transform="translate(0 1.40002)"/>
</clipPath>
</defs>
</svg>
