<svg width="16" height="16" viewBox="0 0 16 16" fill="none" xmlns="http://www.w3.org/2000/svg">
<path d="M2.74501 1.14294H10.3938L13.8438 4.64996V14.4746C13.8438 14.6859 13.6641 14.8572 13.4425 14.8572H2.74501C2.5234 14.8572 2.34375 14.6859 2.34375 14.4746V1.5256C2.34375 1.31427 2.5234 1.14294 2.74501 1.14294Z" fill="#0052D4"/>
<path d="M10.3932 1.14288V4.2757C10.3932 4.49143 10.5692 4.66632 10.7863 4.66632H13.8994L10.3932 1.14288Z" fill="#4579D0"/>
<path d="M11.2274 11.2676C11.6203 11.5989 12.3371 11.3849 12.3371 10.9363V5.71436H11.0605V9.66956L8.52271 7.53012C8.2696 7.31673 7.83308 7.31673 7.57997 7.53012L5.04222 9.66956V5.71436H3.76562V10.9363C3.76562 11.3849 4.48238 11.5989 4.8753 11.2676L8.05134 8.59005L11.2274 11.2676Z" fill="white"/>
<path fill-rule="evenodd" clip-rule="evenodd" d="M10.8352 11.4744L8.05134 9.12747L5.26749 11.4744C4.92609 11.7622 4.40152 11.8278 3.96877 11.6986C3.55 11.5736 3.26562 11.2841 3.26562 10.9364V5.38104H5.54222V8.71066L7.18777 7.32338C7.64107 6.94123 8.46161 6.94123 8.9149 7.32338L10.5605 8.71066V5.38104H12.8371V10.9364C12.8371 11.2841 12.5527 11.5736 12.1339 11.6986C11.7012 11.8278 11.1766 11.7622 10.8352 11.4744ZM11.0605 9.66958L8.52271 7.53014C8.2696 7.31675 7.83308 7.31675 7.57997 7.53014L5.04222 9.66958V5.71438H3.76562V10.9364C3.76562 11.3849 4.48238 11.5989 4.8753 11.2676L8.05134 8.59007L11.2274 11.2676C11.6203 11.5989 12.3371 11.3849 12.3371 10.9364V5.71438H11.0605V9.66958Z" fill="white"/>
</svg>
