<svg width="16" height="16" viewBox="0 0 16 16" fill="none" xmlns="http://www.w3.org/2000/svg">
<circle cx="8" cy="8" r="8" fill="white"/>
<path d="M12.2667 4.80534C12.2667 4.73419 12.2384 4.66321 12.1824 4.61074C12.1665 4.59592 10.1774 2.81133 10.1143 2.76592C10.0725 2.73578 10.0385 2.71408 10.005 2.69818C9.96275 2.67816 9.92338 2.66597 9.86785 2.66672C9.71929 2.66979 9.60006 2.78954 9.60006 2.93968V5.33827H11.732L11.7334 12.8005H5.06654C4.62406 12.8005 4.26673 12.4442 4.26673 12.0024V3.20619H8.80006C8.94734 3.20619 9.06673 3.08687 9.06673 2.93968C9.06673 2.79249 8.94734 2.67317 8.80006 2.67317H3.7334V2.93968V12.0024C3.7334 12.7389 4.32978 13.3336 5.06654 13.3336H12.2667V5.07176V4.80525H10.1334V3.4727C10.9022 4.16769 11.3943 4.61287 11.6096 4.80824" fill="#307AF2"/>
<path fill-rule="evenodd" clip-rule="evenodd" d="M2.66667 7.46979H3.73333V7.46356H4.26667V7.46979H13.3333V12.0005H8H2.66667V7.46979ZM6.88049 11.2667L6 8.20002H6.56695L7.14249 10.5322H7.15967L7.76527 8.20002H8.28497L8.89057 10.5322H8.90775L9.48329 8.20002H10.0502L9.16545 11.2667H8.63287L8.03586 8.96024H8.01868L7.41737 11.2667H6.88049Z" fill="#307AF2"/>
</svg>
