<svg width="16" height="16" viewBox="0 0 16 16" fill="none" xmlns="http://www.w3.org/2000/svg">
<path d="M2.5 11H7.5V13H3V14H13V13H8.5V11H13.5C14.0523 11 14.5 10.5523 14.5 10V3C14.5 2.44772 14.0523 2 13.5 2H2.5C1.94771 2 1.5 2.44772 1.5 3V10C1.5 10.5523 1.94772 11 2.5 11ZM2.5 3L13.5 3V10L2.5 10L2.5 3Z" fill="black" fill-opacity="0.9"/>
<path fill-rule="evenodd" clip-rule="evenodd" d="M6.5 7.20001V4.20001H7.5V6.91975V7.20001H8.21848H10.5V8.20001H8.66031H7.5H6.5V7.29846V7.20001Z" fill="#307AF2"/>
</svg>
