<svg width="16" height="16" viewBox="0 0 16 16" fill="none" xmlns="http://www.w3.org/2000/svg">
<path d="M4 14V2H8.50011V6.01275H12.5V8H13.5V5.70431C13.5 5.44241 13.3973 5.19096 13.2139 5.004L9.57975 1.29969C9.3917 1.108 9.13445 1 8.86591 1H3.99534C3.52005 1 3 1.33727 3 1.92191V14.0781C3 14.6627 3.52005 15 3.99534 15H7.50003V14H4ZM11.8216 5.01275H9.50011V2.64645L11.8216 5.01275Z" fill="#999999"/>
<path d="M9.10984 9V9.77756H12.4709L9 14.3269V15H13.8V14.2224H10.1423L13.6243 9.6499V9H9.10984Z" fill="#999999"/>
</svg>
