<svg width="16" height="16" viewBox="0 0 16 16" fill="none" xmlns="http://www.w3.org/2000/svg">
<g clip-path="url(#clip0_1653_208)">
<path d="M2.74501 1.14294H10.3938L13.8438 4.64996V14.4746C13.8438 14.6859 13.6641 14.8572 13.4425 14.8572H2.74501C2.5234 14.8572 2.34375 14.6859 2.34375 14.4746V1.5256C2.34375 1.31427 2.5234 1.14294 2.74501 1.14294Z" fill="#0052D4"/>
<path d="M10.3932 1.14288V4.2757C10.3932 4.49143 10.5692 4.66632 10.7863 4.66632H13.8994L10.3932 1.14288Z" fill="#4579D0"/>
<path fill-rule="evenodd" clip-rule="evenodd" d="M11 5H9.00101V6.46593H11V5ZM8.99899 6.26591H7V7.73183H8.99899V6.26591ZM9.00101 7.73197H11V9.19789H9.00101V7.73197ZM8.99899 8.86478H7V10.3307H8.99899V8.86478ZM9.00101 10.3306H11V11.7965H9.00101V10.3306ZM7 11.7966H10.998V17.5937C10.998 17.6673 10.9383 17.727 10.8647 17.727H7.13327C7.05967 17.727 7 17.6673 7 17.5937V11.7966ZM7.60072 15.6614C7.60072 15.5878 7.66038 15.5281 7.73398 15.5281H10.266C10.3396 15.5281 10.3993 15.5878 10.3993 15.6614V16.994C10.3993 17.0676 10.3396 17.1273 10.266 17.1273H7.73398C7.66038 17.1273 7.60072 17.0676 7.60072 16.994V15.6614Z" fill="white"/>
</g>
<defs>
<clipPath id="clip0_1653_208">
<rect width="16" height="16" fill="white"/>
</clipPath>
</defs>
</svg>
