<svg width="16" height="16" viewBox="0 0 16 16" fill="none" xmlns="http://www.w3.org/2000/svg">
<path d="M3.64503 1.66669H9.97836L13.145 4.83335V13.5417C13.145 13.9789 12.7906 14.3334 12.3534 14.3334H3.64503C3.20779 14.3334 2.85336 13.9789 2.85336 13.5417V2.45835C2.85336 2.02112 3.20779 1.66669 3.64503 1.66669Z" fill="#BCEBDC"/>
<path fill-rule="evenodd" clip-rule="evenodd" d="M7.86669 3.33337H6.26669V4.93337H4.66669V6.53337H6.26669V7.33337H4.66669V8.93337H6.26669V9.73337H4.66669V11.3334H6.26669V9.73337L7.86669 9.73337V8.13337H6.26669L6.26669 7.33337H7.86669V5.73337H6.26669V4.93337H7.86669V3.33337Z" fill="white"/>
<path d="M9.97839 1.66669L13.1451 4.83335H10.7701C10.3328 4.83335 9.97839 4.47892 9.97839 4.04169V1.66669Z" fill="#85DBBE"/>
</svg>
